<svg width="16" height="16" viewBox="0 0 16 16" fill="none" xmlns="http://www.w3.org/2000/svg">
<path d="M15.6801 8.04755C14.5907 7.9184 13.4552 8.27003 12.6165 9.10369L7.35235 14.3678C5.89855 15.8216 3.54076 15.8216 2.08823 14.3678C1.47321 13.7541 1.11903 12.9767 1.02441 12.1762L2.03325 12.2964C4.36419 12.5764 6.69386 11.7709 8.35352 10.1113C9.79709 8.66768 11.747 7.87109 13.7634 7.87109C14.0715 7.87109 14.3797 7.889 14.6891 7.92736L15.6813 8.04883L15.6801 8.04755Z" fill="#C9C9C9"/>
<path d="M15.6804 8.04719L14.6881 7.92573C14.3787 7.88737 14.0706 7.86946 13.7624 7.86946C11.746 7.86946 9.79611 8.66605 8.35254 10.1096C6.69288 11.7693 4.36194 12.5748 2.03228 12.2948L1.02344 12.1746C2.11667 12.3038 3.25593 11.9483 4.09471 11.1095L9.35882 5.8454C10.8126 4.40055 13.164 4.4031 14.6153 5.85306C15.2303 6.46808 15.5845 7.24421 15.6791 8.04591L15.6804 8.04719Z" fill="#C9C9C9"/>
<path d="M6.90228 5.65562C6.7514 5.90367 6.56856 6.13766 6.35375 6.35247L3.72233 8.98388C3.64433 8.54275 3.65457 8.08757 3.76581 7.65412C3.85787 7.30122 4.01386 6.96494 4.21844 6.66318C4.48567 6.27064 4.83729 6.0034 5.17485 5.68119C5.42802 5.43953 5.59552 5.11092 5.67608 4.77208C5.77325 4.36037 5.73745 3.92052 5.57378 3.52926C5.47277 3.29144 5.32573 3.07279 5.14161 2.88867C4.76953 2.51659 4.28365 2.33629 3.79649 2.31967C3.42058 2.29793 3.03699 2.41812 2.75185 2.68663C2.29794 3.11753 2.15473 3.86554 2.48334 4.41152C2.50124 4.44093 2.70454 4.73756 2.71861 4.72605L1.642 5.80265L1.08964 6.35503C0.474617 5.74001 0.120436 4.96388 0.0258173 4.16218C-0.103324 3.06895 0.252136 1.92841 1.08964 1.09091C1.92842 0.252126 3.06895 -0.103327 4.1609 0.0258146C4.9626 0.121712 5.73873 0.475886 6.35375 1.09091C6.70921 1.44637 6.97772 1.85553 7.15928 2.29282C7.61064 3.37966 7.52497 4.63656 6.90228 5.65818V5.65562Z" fill="#C9C9C9"/>
<path d="M5.67491 4.77206C5.59435 5.11089 5.42813 5.4395 5.17369 5.68116C4.83613 6.00465 4.48322 6.27061 4.21727 6.66315C4.01269 6.96491 3.8567 7.30119 3.76463 7.65409C3.65339 8.08882 3.64444 8.544 3.72116 8.98385C3.27747 8.54145 3.05244 7.96224 3.04605 7.38046C3.04349 7.15542 3.07417 6.93039 3.13682 6.71302C3.24167 6.35117 3.43602 6.01104 3.72116 5.72591C4.00246 5.44461 4.28504 5.16203 4.56634 4.88074C4.70315 4.74392 4.83485 4.61862 4.9333 4.44856C5.13277 4.10333 5.18519 3.68906 5.07395 3.30675C5.00362 3.06765 4.87065 2.84644 4.68525 2.67894C4.49345 2.50505 4.25179 2.39253 3.99863 2.34266C3.93214 2.32988 3.86309 2.32092 3.79532 2.31836C4.28248 2.33498 4.76708 2.51528 5.14044 2.88736C5.32328 3.07148 5.47161 3.28885 5.57262 3.52795C5.73628 3.91921 5.77208 4.35906 5.67491 4.77078V4.77206Z" fill="#C9C9C9"/>
</svg>
