<svg width="16" height="16" viewBox="0 0 16 16" fill="none" xmlns="http://www.w3.org/2000/svg">
<path d="M15.6801 8.04657C14.5907 7.91743 13.4552 8.26905 12.6165 9.10272L7.35235 14.3668C5.89855 15.8206 3.54076 15.8206 2.08823 14.3668C1.47321 13.7531 1.11903 12.9757 1.02441 12.1753L2.03325 12.2954C4.36419 12.5755 6.69386 11.7699 8.35352 10.1103C9.79709 8.66671 11.747 7.87012 13.7634 7.87012C14.0715 7.87012 14.3797 7.88803 14.6891 7.92638L15.6813 8.04785L15.6801 8.04657Z" fill="#7090B0"/>
<path d="M15.68 8.04622L14.6877 7.92475C14.3783 7.8864 14.0702 7.86849 13.762 7.86849C11.7456 7.86849 9.79571 8.66508 8.35214 10.1086C6.69248 11.7683 4.36154 12.5738 2.03188 12.2938L1.02304 12.1736C2.11627 12.3028 3.25553 11.9473 4.09431 11.1085L9.35842 5.84442C10.8122 4.39957 13.1636 4.40212 14.6149 5.85209C15.2299 6.46711 15.5841 7.24324 15.6787 8.04494L15.68 8.04622Z" fill="#7090B0"/>
<path d="M6.90228 5.65562C6.7514 5.90367 6.56856 6.13766 6.35375 6.35247L3.72233 8.98388C3.64433 8.54275 3.65457 8.08757 3.76581 7.65412C3.85787 7.30122 4.01386 6.96494 4.21844 6.66318C4.48567 6.27064 4.83729 6.0034 5.17485 5.68119C5.42802 5.43953 5.59552 5.11092 5.67608 4.77208C5.77325 4.36037 5.73745 3.92052 5.57378 3.52926C5.47277 3.29144 5.32574 3.07279 5.14161 2.88867C4.76953 2.51659 4.28365 2.33629 3.79649 2.31967C3.42058 2.29793 3.03699 2.41812 2.75185 2.68663C2.29794 3.11753 2.15473 3.86554 2.48334 4.41152C2.50124 4.44093 2.70454 4.73756 2.71861 4.72606L1.642 5.80265L1.08964 6.35503C0.474617 5.74001 0.120436 4.96388 0.0258173 4.16218C-0.103324 3.06895 0.252136 1.92841 1.08964 1.09091C1.92842 0.252126 3.06895 -0.103327 4.1609 0.0258146C4.9626 0.121712 5.73873 0.475886 6.35375 1.09091C6.70921 1.44637 6.97772 1.85553 7.15928 2.29282C7.61064 3.37966 7.52497 4.63656 6.90228 5.65818V5.65562Z" fill="#7090B0"/>
<path d="M5.67475 4.77206C5.5942 5.11089 5.42798 5.4395 5.17353 5.68116C4.83598 6.00465 4.48307 6.27061 4.21711 6.66315C4.01253 6.96491 3.85654 7.30119 3.76448 7.65409C3.65324 8.08882 3.64429 8.544 3.72101 8.98385C3.27732 8.54145 3.05229 7.96224 3.04589 7.38046C3.04334 7.15542 3.07402 6.93039 3.13667 6.71302C3.24152 6.35117 3.43587 6.01104 3.72101 5.72591C4.0023 5.44461 4.28489 5.16203 4.56618 4.88074C4.703 4.74392 4.8347 4.61862 4.93315 4.44856C5.13262 4.10333 5.18504 3.68906 5.0738 3.30675C5.00347 3.06765 4.8705 2.84644 4.6851 2.67894C4.4933 2.50505 4.25164 2.39253 3.99847 2.34266C3.93198 2.32988 3.86294 2.32092 3.79517 2.31836C4.28233 2.33498 4.76693 2.51528 5.14029 2.88736C5.32313 3.07148 5.47145 3.28885 5.57246 3.52795C5.73613 3.91921 5.77193 4.35906 5.67475 4.77078V4.77206Z" fill="#7090B0"/>
</svg>
