<svg width="40" height="69" viewBox="0 0 40 69" fill="none" xmlns="http://www.w3.org/2000/svg">
<path d="M20 4C15.7565 4 11.6869 5.68571 8.68629 8.68629C5.68571 11.6869 4 15.7565 4 20C4 24.2435 5.68571 28.3131 8.68629 31.3137C11.6869 34.3143 15.7565 36 20 36C24.2435 36 28.3131 34.3143 31.3137 31.3137C34.3143 28.3131 36 24.2435 36 20C36 15.7565 34.3143 11.6869 31.3137 8.68629C28.3131 5.68571 24.2435 4 20 4ZM0 20C0 8.954 8.954 0 20 0C31.046 0 40 8.954 40 20C40 31.046 31.046 40 20 40C8.954 40 0 31.046 0 20ZM20 10C20.5304 10 21.0391 10.2107 21.4142 10.5858C21.7893 10.9609 22 11.4696 22 12V18H28C28.5304 18 29.0391 18.2107 29.4142 18.5858C29.7893 18.9609 30 19.4696 30 20C30 20.5304 29.7893 21.0391 29.4142 21.4142C29.0391 21.7893 28.5304 22 28 22H22V28C22 28.5304 21.7893 29.0391 21.4142 29.4142C21.0391 29.7893 20.5304 30 20 30C19.4696 30 18.9609 29.7893 18.5858 29.4142C18.2107 29.0391 18 28.5304 18 28V22H12C11.4696 22 10.9609 21.7893 10.5858 21.4142C10.2107 21.0391 10 20.5304 10 20C10 19.4696 10.2107 18.9609 10.5858 18.5858C10.9609 18.2107 11.4696 18 12 18H18V12C18 11.4696 18.2107 10.9609 18.5858 10.5858C18.9609 10.2107 19.4696 10 20 10Z" fill="#0C6EED"/>
<path d="M2.218 51.57H8.028V57.436H2.218V51.57ZM6.894 52.508H3.352V56.498H6.894V52.508ZM10.352 50.422H11.514V59.704H10.352V50.422ZM11.15 54.286H13.39V55.252H11.15V54.286ZM3.632 61.86H12.088V62.812H3.632V61.86ZM3.632 58.822H4.794V62.266H3.632V58.822ZM14.5789 55.714H26.0169V56.666H14.5789V55.714ZM16.0909 53.754H24.6589V54.692H16.0909V53.754ZM16.0909 50.842H24.5189V51.794H17.2389V54.51H16.0909V50.842ZM15.9509 57.758H24.5469V60.74H17.1269V62.336H15.9789V59.872H23.3989V58.668H15.9509V57.758ZM15.9789 62.028H24.9249V62.952H15.9789V62.028ZM36.6698 50.436H37.8318V63.092H36.6698V50.436ZM32.9598 51.794H34.1078C34.1078 55.462 32.4558 58.668 28.2278 60.74L27.6118 59.802C31.2658 58.038 32.9598 55.35 32.9598 51.99V51.794ZM28.1858 51.794H33.4638V52.746H28.1858V51.794Z" fill="#0C6EED"/>
</svg>
