<svg width="20" height="20" viewBox="0 0 20 20" fill="none" xmlns="http://www.w3.org/2000/svg">
<path d="M16.25 2.57001H14.375V1.95663C14.375 1.79396 14.3092 1.63794 14.1919 1.52291C14.0747 1.40788 13.9158 1.34326 13.75 1.34326C13.5842 1.34326 13.4253 1.40788 13.3081 1.52291C13.1908 1.63794 13.125 1.79396 13.125 1.95663V2.57001H6.875V1.95663C6.875 1.79396 6.80915 1.63794 6.69194 1.52291C6.57473 1.40788 6.41576 1.34326 6.25 1.34326C6.08424 1.34326 5.92527 1.40788 5.80806 1.52291C5.69085 1.63794 5.625 1.79396 5.625 1.95663V2.57001H3.75C3.41848 2.57001 3.10054 2.69925 2.86612 2.92931C2.6317 3.15937 2.5 3.4714 2.5 3.79675V16.0642C2.5 16.3896 2.6317 16.7016 2.86612 16.9316C3.10054 17.1617 3.41848 17.2909 3.75 17.2909H16.25C16.5815 17.2909 16.8995 17.1617 17.1339 16.9316C17.3683 16.7016 17.5 16.3896 17.5 16.0642V3.79675C17.5 3.4714 17.3683 3.15937 17.1339 2.92931C16.8995 2.69925 16.5815 2.57001 16.25 2.57001ZM5.625 3.79675V4.41012C5.625 4.5728 5.69085 4.72881 5.80806 4.84384C5.92527 4.95887 6.08424 5.0235 6.25 5.0235C6.41576 5.0235 6.57473 4.95887 6.69194 4.84384C6.80915 4.72881 6.875 4.5728 6.875 4.41012V3.79675H13.125V4.41012C13.125 4.5728 13.1908 4.72881 13.3081 4.84384C13.4253 4.95887 13.5842 5.0235 13.75 5.0235C13.9158 5.0235 14.0747 4.95887 14.1919 4.84384C14.3092 4.72881 14.375 4.5728 14.375 4.41012V3.79675H16.25V6.25024H3.75V3.79675H5.625ZM16.25 16.0642H3.75V7.47699H16.25V16.0642ZM12.5 11.7706C12.5 11.9333 12.4342 12.0893 12.3169 12.2043C12.1997 12.3193 12.0408 12.384 11.875 12.384H10.625V13.6107C10.625 13.7734 10.5592 13.9294 10.4419 14.0444C10.3247 14.1595 10.1658 14.2241 10 14.2241C9.83424 14.2241 9.67527 14.1595 9.55806 14.0444C9.44085 13.9294 9.375 13.7734 9.375 13.6107V12.384H8.125C7.95924 12.384 7.80027 12.3193 7.68306 12.2043C7.56585 12.0893 7.5 11.9333 7.5 11.7706C7.5 11.6079 7.56585 11.4519 7.68306 11.3369C7.80027 11.2218 7.95924 11.1572 8.125 11.1572H9.375V9.93048C9.375 9.7678 9.44085 9.61179 9.55806 9.49676C9.67527 9.38173 9.83424 9.3171 10 9.3171C10.1658 9.3171 10.3247 9.38173 10.4419 9.49676C10.5592 9.61179 10.625 9.7678 10.625 9.93048V11.1572H11.875C12.0408 11.1572 12.1997 11.2218 12.3169 11.3369C12.4342 11.4519 12.5 11.6079 12.5 11.7706Z" fill="white"/>
</svg>
