<svg width="36" height="36" viewBox="0 0 36 36" fill="none" xmlns="http://www.w3.org/2000/svg">
<rect width="36" height="36" rx="18" fill="white"/>
<path d="M24.25 10.5H22.375V9.875C22.375 9.70924 22.3092 9.55027 22.1919 9.43306C22.0747 9.31585 21.9158 9.25 21.75 9.25C21.5842 9.25 21.4253 9.31585 21.3081 9.43306C21.1908 9.55027 21.125 9.70924 21.125 9.875V10.5H14.875V9.875C14.875 9.70924 14.8092 9.55027 14.6919 9.43306C14.5747 9.31585 14.4158 9.25 14.25 9.25C14.0842 9.25 13.9253 9.31585 13.8081 9.43306C13.6908 9.55027 13.625 9.70924 13.625 9.875V10.5H11.75C11.4185 10.5 11.1005 10.6317 10.8661 10.8661C10.6317 11.1005 10.5 11.4185 10.5 11.75V24.25C10.5 24.5815 10.6317 24.8995 10.8661 25.1339C11.1005 25.3683 11.4185 25.5 11.75 25.5H24.25C24.5815 25.5 24.8995 25.3683 25.1339 25.1339C25.3683 24.8995 25.5 24.5815 25.5 24.25V11.75C25.5 11.4185 25.3683 11.1005 25.1339 10.8661C24.8995 10.6317 24.5815 10.5 24.25 10.5ZM13.625 11.75V12.375C13.625 12.5408 13.6908 12.6997 13.8081 12.8169C13.9253 12.9342 14.0842 13 14.25 13C14.4158 13 14.5747 12.9342 14.6919 12.8169C14.8092 12.6997 14.875 12.5408 14.875 12.375V11.75H21.125V12.375C21.125 12.5408 21.1908 12.6997 21.3081 12.8169C21.4253 12.9342 21.5842 13 21.75 13C21.9158 13 22.0747 12.9342 22.1919 12.8169C22.3092 12.6997 22.375 12.5408 22.375 12.375V11.75H24.25V14.25H11.75V11.75H13.625ZM24.25 24.25H11.75V15.5H24.25V24.25ZM20.5 19.875C20.5 20.0408 20.4342 20.1997 20.3169 20.3169C20.1997 20.4342 20.0408 20.5 19.875 20.5H18.625V21.75C18.625 21.9158 18.5592 22.0747 18.4419 22.1919C18.3247 22.3092 18.1658 22.375 18 22.375C17.8342 22.375 17.6753 22.3092 17.5581 22.1919C17.4408 22.0747 17.375 21.9158 17.375 21.75V20.5H16.125C15.9592 20.5 15.8003 20.4342 15.6831 20.3169C15.5658 20.1997 15.5 20.0408 15.5 19.875C15.5 19.7092 15.5658 19.5503 15.6831 19.4331C15.8003 19.3158 15.9592 19.25 16.125 19.25H17.375V18C17.375 17.8342 17.4408 17.6753 17.5581 17.5581C17.6753 17.4408 17.8342 17.375 18 17.375C18.1658 17.375 18.3247 17.4408 18.4419 17.5581C18.5592 17.6753 18.625 17.8342 18.625 18V19.25H19.875C20.0408 19.25 20.1997 19.3158 20.3169 19.4331C20.4342 19.5503 20.5 19.7092 20.5 19.875Z" fill="#7090B0"/>
</svg>
