<svg width="24" height="24" viewBox="0 0 24 24" fill="none" xmlns="http://www.w3.org/2000/svg">
<path fill-rule="evenodd" clip-rule="evenodd" d="M15.1428 13.1304H16.7408V11.6304H15.1428V13.1304ZM11.4078 13.1304H13.0068V11.6304H11.4078V13.1304ZM7.67383 13.1304H9.27283V11.6304H7.67383V13.1304ZM19.1088 5.11944C17.2738 3.28444 14.8328 2.27344 12.2328 2.27344C9.63383 2.27344 7.19083 3.28444 5.35583 5.12044C3.51583 6.95944 2.50383 9.40444 2.50583 12.0034C2.50583 14.6394 3.88983 17.1514 4.39183 17.9754L2.04883 21.7114L2.96183 21.7034C3.01983 21.7034 8.77183 21.6534 12.0218 21.7234C12.0948 21.7244 12.1668 21.7254 12.2388 21.7254C14.8348 21.7254 17.2668 20.7184 19.1088 18.8754C22.9008 15.0824 22.9008 8.91244 19.1088 5.11944Z" fill="#7C7C7C"/>
</svg>
