<svg width="20" height="21" viewBox="0 0 20 21" fill="none" xmlns="http://www.w3.org/2000/svg">
<g clip-path="url(#clip0_165_7550)">
<path fill-rule="evenodd" clip-rule="evenodd" d="M8.33317 15.6863V18.1863C8.33317 18.6465 8.70627 19.0196 9.1665 19.0196H10.8332C11.2934 19.0196 11.6665 18.6465 11.6665 18.1863V15.6863H13.3332V18.1863C13.3332 19.567 12.2139 20.6863 10.8332 20.6863H9.1665C7.78579 20.6863 6.6665 19.567 6.6665 18.1863V15.6863H8.33317Z" fill="#777E91"/>
<path fill-rule="evenodd" clip-rule="evenodd" d="M12.5002 11.7574L13.1244 11.257C14.2709 10.338 15.0002 8.93119 15.0002 7.35295C15.0002 4.59152 12.7616 2.35295 10.0002 2.35295C7.23874 2.35295 5.00016 4.59152 5.00016 7.35295C5.00016 8.93119 5.72947 10.338 6.87595 11.257L7.50016 11.7574V14.0196C7.50016 14.4798 7.87326 14.8529 8.3335 14.8529H11.6668C12.1271 14.8529 12.5002 14.4798 12.5002 14.0196V11.7574ZM14.1668 12.5574V14.0196C14.1668 15.4003 13.0475 16.5196 11.6668 16.5196H8.3335C6.95278 16.5196 5.8335 15.4003 5.8335 14.0196V12.5574C4.30939 11.3357 3.3335 9.45827 3.3335 7.35295C3.3335 3.67105 6.31826 0.686279 10.0002 0.686279C13.6821 0.686279 16.6668 3.67105 16.6668 7.35295C16.6668 9.45827 15.6909 11.3357 14.1668 12.5574Z" fill="#777E91"/>
<path d="M8.92259 7.59711C8.59715 7.27167 8.06951 7.27167 7.74408 7.59711C7.41864 7.92254 7.41864 8.45018 7.74408 8.77562L9.16667 10.1982V14.853H10.8333V10.1982L12.2559 8.77562C12.5814 8.45018 12.5814 7.92254 12.2559 7.59711C11.9305 7.27167 11.4028 7.27167 11.0774 7.59711L10 8.67452L8.92259 7.59711Z" fill="#777E91"/>
</g>
<defs>
<clipPath id="clip0_165_7550">
<rect width="20" height="20" fill="white" transform="translate(0 0.686279)"/>
</clipPath>
</defs>
</svg>
