<svg width="18" height="18" viewBox="0 0 18 18" fill="none" xmlns="http://www.w3.org/2000/svg">
<rect width="18" height="18" fill="#F5F5F5"/>
<g id="Version 1">
<path d="M-31235 -5368C-31235 -5395.61 -31212.6 -5418 -31185 -5418H38390C38417.6 -5418 38440 -5395.61 38440 -5368V16768C38440 16795.6 38417.6 16818 38390 16818H-31185C-31212.6 16818 -31235 16795.6 -31235 16768V-5368Z" fill="#FFFAEF"/>
<path d="M-31185 -5417H38390V-5419H-31185V-5417ZM38439 -5368V16768H38441V-5368H38439ZM38390 16817H-31185V16819H38390V16817ZM-31234 16768V-5368H-31236V16768H-31234ZM-31185 16817C-31212.1 16817 -31234 16795.1 -31234 16768H-31236C-31236 16796.2 -31213.2 16819 -31185 16819V16817ZM38439 16768C38439 16795.1 38417.1 16817 38390 16817V16819C38418.2 16819 38441 16796.2 38441 16768H38439ZM38390 -5417C38417.1 -5417 38439 -5395.06 38439 -5368H38441C38441 -5396.17 38418.2 -5419 38390 -5419V-5417ZM-31185 -5419C-31213.2 -5419 -31236 -5396.17 -31236 -5368H-31234C-31234 -5395.06 -31212.1 -5417 -31185 -5417V-5419Z" fill="black" fill-opacity="0.1"/>
<g id="&#237;&#148;&#132;&#235;&#161;&#156;&#236;&#160;&#157;&#237;&#138;&#184;">
<path d="M-13877 -3410C-13877 -3437.61 -13854.6 -3460 -13827 -3460H15350C15377.6 -3460 15400 -3437.61 15400 -3410V4732C15400 4759.61 15377.6 4782 15350 4782H-13827C-13854.6 4782 -13877 4759.61 -13877 4732V-3410Z" fill="#EFFEFF"/>
<path d="M-13827 -3459H15350V-3461H-13827V-3459ZM15399 -3410V4732H15401V-3410H15399ZM15350 4781H-13827V4783H15350V4781ZM-13876 4732V-3410H-13878V4732H-13876ZM-13827 4781C-13854.1 4781 -13876 4759.06 -13876 4732H-13878C-13878 4760.17 -13855.2 4783 -13827 4783V4781ZM15399 4732C15399 4759.06 15377.1 4781 15350 4781V4783C15378.2 4783 15401 4760.17 15401 4732H15399ZM15350 -3459C15377.1 -3459 15399 -3437.06 15399 -3410H15401C15401 -3438.17 15378.2 -3461 15350 -3461V-3459ZM-13827 -3461C-13855.2 -3461 -13878 -3438.17 -13878 -3410H-13876C-13876 -3437.06 -13854.1 -3459 -13827 -3459V-3461Z" fill="black" fill-opacity="0.1"/>
<g id="&#237;&#148;&#132;&#235;&#161;&#156;&#236;&#160;&#157;&#237;&#138;&#184; &#235;&#167;&#140;&#235;&#147;&#164;&#234;&#184;&#176; / &#236;&#136;&#152;&#236;&#160;&#149;">
<path d="M-2794 -2904C-2794 -2931.61 -2771.61 -2954 -2744 -2954H11863C11890.6 -2954 11913 -2931.61 11913 -2904V4259C11913 4286.61 11890.6 4309 11863 4309H-2744C-2771.61 4309 -2794 4286.61 -2794 4259V-2904Z" fill="#FFEFEF"/>
<path d="M-2744 -2953H11863V-2955H-2744V-2953ZM11912 -2904V4259H11914V-2904H11912ZM11863 4308H-2744V4310H11863V4308ZM-2793 4259V-2904H-2795V4259H-2793ZM-2744 4308C-2771.06 4308 -2793 4286.06 -2793 4259H-2795C-2795 4287.17 -2772.17 4310 -2744 4310V4308ZM11912 4259C11912 4286.06 11890.1 4308 11863 4308V4310C11891.2 4310 11914 4287.17 11914 4259H11912ZM11863 -2953C11890.1 -2953 11912 -2931.06 11912 -2904H11914C11914 -2932.17 11891.2 -2955 11863 -2955V-2953ZM-2744 -2955C-2772.17 -2955 -2795 -2932.17 -2795 -2904H-2793C-2793 -2931.06 -2771.06 -2953 -2744 -2953V-2955Z" fill="black" fill-opacity="0.1"/>
<g id="&#237;&#148;&#132;&#235;&#161;&#156;&#236;&#160;&#157;&#237;&#138;&#184; &#236;&#136;&#152;&#236;&#160;&#149;">
<rect width="1536" height="3798" transform="translate(-692 -2351)" fill="white"/>
<g id="Frame 1000006216">
<g id="Frame 1000006214">
<g id="Frame 1000006213">
<g id="Frame 1000006135">
<g id="Group 1000005866">
<g id="Rectangle" filter="url(#filter0_d_35_14259)">
<rect x="-471" y="-93" width="1026" height="599" rx="20" fill="white"/>
</g>
</g>
<g id="Frame 1000006105">
<rect x="-416" y="-13" width="462" height="44" rx="10" fill="#F1F3F7"/>
<g id="Group 39758">
<rect id="Rectangle 1677" x="18" width="18" height="18" rx="9" transform="rotate(90 18 0)" fill="black" fill-opacity="0.2"/>
<path id="Polygon 1 (Stroke)" fill-rule="evenodd" clip-rule="evenodd" d="M9.49027 12.3663C9.09161 12.8253 8.3791 12.8253 7.98043 12.3663L4.44539 8.2971C4.14311 7.94914 4.17033 7.41318 4.50621 7.10001C4.84208 6.78684 5.3594 6.81505 5.66169 7.16302L8.73535 10.7012L11.809 7.16302C12.1113 6.81505 12.6286 6.78684 12.9645 7.10001C13.3004 7.41318 13.3276 7.94914 13.0253 8.2971L9.49027 12.3663Z" fill="white"/>
</g>
</g>
</g>
</g>
</g>
</g>
</g>
</g>
</g>
</g>
<defs>
<filter id="filter0_d_35_14259" x="-495" y="-109" width="1074" height="647" filterUnits="userSpaceOnUse" color-interpolation-filters="sRGB">
<feFlood flood-opacity="0" result="BackgroundImageFix"/>
<feColorMatrix in="SourceAlpha" type="matrix" values="0 0 0 0 0 0 0 0 0 0 0 0 0 0 0 0 0 0 127 0" result="hardAlpha"/>
<feOffset dy="8"/>
<feGaussianBlur stdDeviation="12"/>
<feColorMatrix type="matrix" values="0 0 0 0 0.584314 0 0 0 0 0.615686 0 0 0 0 0.647059 0 0 0 0.2 0"/>
<feBlend mode="normal" in2="BackgroundImageFix" result="effect1_dropShadow_35_14259"/>
<feBlend mode="normal" in="SourceGraphic" in2="effect1_dropShadow_35_14259" result="shape"/>
</filter>
</defs>
</svg>
