<svg width="22" height="16" viewBox="0 0 22 16" fill="none" xmlns="http://www.w3.org/2000/svg">
<path fill-rule="evenodd" clip-rule="evenodd" d="M11 0.5C6.05694 0.5 1.83964 3.47849 0.131621 7.6765L0 8L0.131621 8.3235C1.83964 12.5215 6.05694 15.5 11 15.5C15.9431 15.5 20.1603 12.5215 21.8684 8.32351L22 8L21.8684 7.67649C20.1603 3.47849 15.9431 0.5 11 0.5ZM11 13.7353C6.96097 13.7353 3.48974 11.3771 1.96548 8C3.48974 4.6229 6.96097 2.26471 11 2.26471C15.039 2.26471 18.5102 4.6229 20.0345 8C18.5102 11.3771 15.039 13.7353 11 13.7353ZM14.6442 7.99983C14.6442 10.68 13.0128 12.8528 11.0003 12.8528C8.98782 12.8528 7.35637 10.68 7.35637 7.99983C7.35637 5.31962 8.98782 3.14689 11.0003 3.14689C13.0128 3.14689 14.6442 5.31962 14.6442 7.99983ZM13.7333 6.23512C13.7333 6.96609 13.1215 7.55865 12.3668 7.55865C11.6121 7.55865 11.0003 6.96609 11.0003 6.23512C11.0003 5.50416 11.6121 4.91159 12.3668 4.91159C13.1215 4.91159 13.7333 5.50416 13.7333 6.23512Z" fill="black"/>
</svg>
