<svg width="20" height="21" viewBox="0 0 20 21" fill="none" xmlns="http://www.w3.org/2000/svg">
<path d="M10 14.2472C12.0711 14.2472 13.75 12.5361 13.75 10.4254C13.75 8.31461 12.0711 6.60352 10 6.60352C7.92893 6.60352 6.25 8.31461 6.25 10.4254C6.25 12.5361 7.92893 14.2472 10 14.2472Z" stroke="#7A7A7A" stroke-width="1.26192" stroke-linecap="round" stroke-linejoin="round"/>
<path d="M14.3516 5.41696C14.5495 5.60275 14.737 5.79384 14.9141 5.99024L17.0469 6.30076C17.3944 6.91585 17.6622 7.57422 17.8438 8.25946L16.5469 10.0191C16.5469 10.0191 16.5703 10.5605 16.5469 10.8312L17.8438 12.5909C17.6631 13.2764 17.3952 13.9349 17.0469 14.5496L14.9141 14.8601C14.9141 14.8601 14.5469 15.2502 14.3516 15.4334L14.0469 17.607C13.4434 17.9612 12.7974 18.2342 12.125 18.4192L10.3984 17.0975C10.1333 17.1214 9.86667 17.1214 9.60156 17.0975L7.875 18.4192C7.20236 18.2351 6.55625 17.962 5.95313 17.607L5.64844 15.4334C5.45573 15.2476 5.26823 15.0565 5.08594 14.8601L2.95312 14.5496C2.60561 13.9345 2.33776 13.2761 2.15625 12.5909L3.45313 10.8312C3.45313 10.8312 3.42969 10.2898 3.45313 10.0191L2.15625 8.25946C2.33692 7.57393 2.60481 6.91545 2.95312 6.30076L5.08594 5.99024C5.26823 5.79384 5.45573 5.60275 5.64844 5.41696L5.95313 3.24329C6.55665 2.88912 7.20265 2.61614 7.875 2.43115L9.60156 3.75287C9.86667 3.72898 10.1333 3.72898 10.3984 3.75287L12.125 2.43115C12.7976 2.61528 13.4437 2.88831 14.0469 3.24329L14.3516 5.41696Z" stroke="#7A7A7A" stroke-width="1.26192" stroke-linecap="round" stroke-linejoin="round"/>
</svg>
