<svg width="14" height="14" viewBox="0 0 14 14" fill="none" xmlns="http://www.w3.org/2000/svg">
<path d="M7 0C5.61553 0 4.26215 0.410543 3.11101 1.17971C1.95987 1.94888 1.06266 3.04213 0.532846 4.32121C0.00303299 5.6003 -0.13559 7.00776 0.134506 8.36563C0.404603 9.7235 1.07129 10.9708 2.05026 11.9497C3.02922 12.9287 4.2765 13.5954 5.63437 13.8655C6.99224 14.1356 8.3997 13.997 9.67879 13.4672C10.9579 12.9373 12.0511 12.0401 12.8203 10.889C13.5895 9.73784 14 8.38447 14 7C14 6.08075 13.8189 5.17049 13.4672 4.32121C13.1154 3.47194 12.5998 2.70026 11.9497 2.05025C11.2997 1.40024 10.5281 0.884626 9.67879 0.532843C8.82951 0.18106 7.91925 0 7 0ZM11.2 6.86C11.2109 6.98097 11.1866 7.10252 11.13 7.21L9.66 10.64C9.58334 10.8149 9.45514 10.9622 9.29253 11.0622C9.12992 11.1623 8.94065 11.2104 8.75 11.2H4.9C4.5287 11.2 4.1726 11.0525 3.91005 10.7899C3.6475 10.5274 3.5 10.1713 3.5 9.8V6.3C3.49301 6.16998 3.51444 6.04001 3.56279 5.91912C3.61115 5.79822 3.68527 5.68933 3.78 5.6L7 2.1L7.483 2.583C7.61018 2.71541 7.68482 2.88958 7.693 3.073V3.213L7.287 5.6H10.5C10.6857 5.6 10.8637 5.67375 10.995 5.80502C11.1263 5.9363 11.2 6.11435 11.2 6.3V6.86Z" fill="#B3B3B3"/>
</svg>
