<svg width="31" height="31" viewBox="0 0 31 31" fill="none" xmlns="http://www.w3.org/2000/svg">
<g clip-path="url(#clip0_199_181)">
<path d="M30.3482 15.9573C30.3482 14.7275 30.2481 13.8301 30.0315 12.8994H15.9443V18.4501H24.2132C24.0465 19.8295 23.1463 21.9069 21.1457 23.3028L21.1177 23.4887L25.5717 26.9284L25.8803 26.9591C28.7144 24.3499 30.3482 20.5109 30.3482 15.9573Z" fill="#4285F4"/>
<path d="M15.9447 30.5819C19.9957 30.5819 23.3966 29.2524 25.8806 26.959L21.146 23.3027C19.879 24.1835 18.1785 24.7984 15.9447 24.7984C11.9769 24.7984 8.6094 22.1893 7.40896 18.583L7.23301 18.5979L2.60158 22.171L2.54102 22.3388C5.00832 27.2248 10.0764 30.5819 15.9447 30.5819Z" fill="#34A853"/>
<path d="M7.40877 18.583C7.09202 17.6524 6.90871 16.6551 6.90871 15.6248C6.90871 14.5944 7.09202 13.5973 7.3921 12.6666L7.38371 12.4684L2.69425 8.83789L2.54082 8.91064C1.52393 10.9382 0.94043 13.215 0.94043 15.6248C0.94043 18.0346 1.52393 20.3113 2.54082 22.3388L7.40877 18.583Z" fill="#FBBC05"/>
<path d="M15.9447 6.45136C18.762 6.45136 20.6625 7.66454 21.7462 8.67838L25.9806 4.55683C23.38 2.14707 19.9957 0.667969 15.9447 0.667969C10.0764 0.667969 5.00832 4.02499 2.54102 8.91095L7.3923 12.6669C8.6094 9.06058 11.9769 6.45136 15.9447 6.45136Z" fill="#EB4335"/>
</g>
<defs>
<clipPath id="clip0_199_181">
<rect width="29.4079" height="30" fill="white" transform="translate(0.94043 0.625)"/>
</clipPath>
</defs>
</svg>
