<svg width="22" height="11" viewBox="0 0 22 11" fill="none" xmlns="http://www.w3.org/2000/svg">
<path d="M12.5786 7.2866C12.0623 7.34892 11.5353 7.38109 11 7.38109C10.7226 7.38109 10.4474 7.37245 10.1748 7.35545L9.09313 11L7.31193 10.5691L8.33879 7.10906C7.1553 6.86274 6.04008 6.45571 5.02245 5.9149L3.37681 8.48836L1.77983 7.65591L3.5056 4.95714C1.9617 3.81048 0.745006 2.3173 0 0.610423L1.71562 7.6164e-06C3.17709 3.34835 6.78274 5.71618 11 5.71618C15.2173 5.71618 18.8229 3.34836 20.2844 0L22 0.610431C21.3018 2.20997 20.1894 3.62184 18.7817 4.73675L20.6484 7.65591L19.0514 8.48836L17.2943 5.74047C16.3983 6.25147 15.4211 6.65669 14.3838 6.93657L15.4619 10.5691L13.6807 11L12.5786 7.2866Z" fill="#949494"/>
</svg>
