<svg width="33" height="33" viewBox="0 0 33 33" fill="none" xmlns="http://www.w3.org/2000/svg">
<g clip-path="url(#clip0_199_187)">
<path d="M32.3486 30.125C32.3486 31.5059 31.2295 32.625 29.8486 32.625H2.84863C1.46777 32.625 0.348633 31.5059 0.348633 30.125V3.125C0.348633 1.74414 1.46777 0.625 2.84863 0.625H29.8486C31.2295 0.625 32.3486 1.74414 32.3486 3.125" fill="#FFE812"/>
<path d="M16.3486 5.125C9.16895 5.125 3.34863 9.71436 3.34863 15.375C3.34863 19.0347 5.78174 22.2461 9.44189 24.0596C9.24316 24.7461 8.1626 28.4775 8.11963 28.7705C8.11963 28.7705 8.09375 28.9907 8.23633 29.0747C8.37891 29.1587 8.54639 29.0938 8.54639 29.0938C8.95557 29.0366 13.2896 25.9922 14.0396 25.4639C14.7891 25.5698 15.5605 25.625 16.3486 25.625C23.5283 25.625 29.3486 21.0361 29.3486 15.375C29.3486 9.71436 23.5283 5.125 16.3486 5.125Z" fill="black"/>
<path d="M9.16113 18.9531C8.74756 18.9531 8.41113 18.6318 8.41113 18.2368V13.7812H7.24072C6.83496 13.7812 6.50488 13.4517 6.50488 13.0469C6.50488 12.6421 6.83496 12.3125 7.24072 12.3125H11.0815C11.4873 12.3125 11.8174 12.6421 11.8174 13.0469C11.8174 13.4517 11.4873 13.7812 11.0815 13.7812H9.91113V18.2368C9.91113 18.6318 9.57471 18.9531 9.16113 18.9531Z" fill="#FFE812"/>
<path d="M14.3478 16.3115L13.5988 14.1831L12.8497 16.3115H14.3478ZM15.7379 18.9434C15.4249 18.9434 15.1857 18.8164 15.1134 18.6118L14.7423 17.6396H12.4552L12.0836 18.6123C12.0119 18.8164 11.7726 18.9434 11.4601 18.9434C11.2946 18.9434 11.1295 18.9077 10.9831 18.8398C10.7765 18.7446 10.5778 18.4819 10.8053 17.7749L12.5993 13.0527C12.7257 12.6938 13.1095 12.3237 13.5983 12.3125C14.088 12.3237 14.4718 12.6938 14.5983 13.0537L16.3917 17.7734C16.6203 18.4824 16.421 18.7451 16.2145 18.8398C16.0675 18.9077 15.903 18.9434 15.7379 18.9434C15.7379 18.9434 15.7374 18.9434 15.7379 18.9434Z" fill="#FFE812"/>
<path d="M17.5986 18.8438C17.2021 18.8438 16.8799 18.5352 16.8799 18.1563V13.0625C16.8799 12.6489 17.2231 12.3125 17.6455 12.3125C18.0679 12.3125 18.4111 12.6489 18.4111 13.0625V17.4688H20.0049C20.4014 17.4688 20.7236 17.7773 20.7236 18.1563C20.7236 18.5352 20.4014 18.8438 20.0049 18.8438" fill="#FFE812"/>
<path d="M21.7656 18.9434C21.3516 18.9434 21.0156 18.6069 21.0156 18.1934V13.0625C21.0156 12.6489 21.3516 12.3125 21.7656 12.3125C22.1792 12.3125 22.5156 12.6489 22.5156 13.0625V14.6743L24.6079 12.582C24.7158 12.4746 24.8633 12.415 25.0239 12.415C25.2109 12.415 25.3989 12.4956 25.54 12.6367C25.6714 12.7681 25.75 12.9365 25.7607 13.1118C25.7715 13.2891 25.7124 13.4512 25.5952 13.5688L23.8857 15.2778L25.7319 17.7231C25.8525 17.8833 25.9038 18.0806 25.876 18.2788C25.8481 18.4775 25.7451 18.6533 25.585 18.7734C25.4536 18.8726 25.2979 18.9253 25.1338 18.9253C24.896 18.9253 24.6777 18.8164 24.5347 18.627L22.7759 16.2964L22.5156 16.5566V18.1929C22.5156 18.6069 22.1792 18.9434 21.7656 18.9434Z" fill="#FFE812"/>
</g>
<defs>
<clipPath id="clip0_199_187">
<rect width="32" height="32" fill="white" transform="translate(0.348633 0.625)"/>
</clipPath>
</defs>
</svg>
