<svg width="20" height="21" viewBox="0 0 20 21" fill="none" xmlns="http://www.w3.org/2000/svg">
<path fill-rule="evenodd" clip-rule="evenodd" d="M9.19107 12.9392C9.65098 12.9219 10.0379 13.2806 10.0552 13.7405C10.0944 14.7774 10.1494 15.5341 10.2034 16.0767C10.2566 16.611 10.5792 16.9325 11.0289 16.9874C11.5591 17.0523 12.307 17.1053 13.3334 17.1053C14.3598 17.1053 15.1078 17.0523 15.638 16.9874C16.0874 16.9325 16.4101 16.6109 16.4634 16.0764C16.5637 15.0693 16.6667 13.3293 16.6667 10.4386C16.6667 7.54796 16.5637 5.80798 16.4634 4.80087C16.4101 4.26641 16.0874 3.94478 15.638 3.88984C15.1078 3.82502 14.3598 3.77197 13.3334 3.77197C12.307 3.77197 11.5591 3.82501 11.0289 3.88983C10.5792 3.9448 10.2566 4.26629 10.2034 4.80061C10.1494 5.34318 10.0944 6.09992 10.0552 7.13674C10.0379 7.59665 9.65098 7.95541 9.19107 7.93805C8.73116 7.92068 8.3724 7.53378 8.38976 7.07387C8.42994 6.00967 8.4869 5.21816 8.54495 4.6354C8.667 3.41026 9.52117 2.39506 10.8266 2.23548C11.4343 2.16119 12.2507 2.1053 13.3334 2.1053C14.4161 2.1053 15.2325 2.1612 15.8402 2.23548C17.1458 2.39509 17.9998 3.41076 18.1218 4.63566C18.2293 5.71421 18.3334 7.51237 18.3334 10.4386C18.3334 13.3649 18.2293 15.1631 18.1218 16.2416C17.9998 17.4665 17.1458 18.4822 15.8402 18.6418C15.2325 18.7161 14.4161 18.772 13.3334 18.772C12.2507 18.772 11.4343 18.7161 10.8266 18.6418C9.52117 18.4822 8.667 17.467 8.54495 16.2419C8.4869 15.6591 8.42994 14.8676 8.38976 13.8034C8.3724 13.3435 8.73116 12.9566 9.19107 12.9392Z" fill="#777E91"/>
<path fill-rule="evenodd" clip-rule="evenodd" d="M6.00576 12.7661C6.3312 13.0916 6.3312 13.6192 6.00576 13.9446C5.68032 14.2701 5.15269 14.2701 4.82725 13.9446L1.91058 11.028C1.58514 10.7025 1.58514 10.1749 1.91058 9.84947L4.82725 6.9328C5.15269 6.60736 5.68032 6.60736 6.00576 6.9328C6.3312 7.25824 6.3312 7.78587 6.00576 8.11131L4.51168 9.60539H12.4998C12.9601 9.60539 13.3332 9.97848 13.3332 10.4387C13.3332 10.899 12.9601 11.2721 12.4998 11.2721L4.51168 11.2721L6.00576 12.7661Z" fill="#777E91"/>
</svg>
