<svg width="43" height="50" viewBox="0 0 43 50" fill="none" xmlns="http://www.w3.org/2000/svg">
<path d="M33.2847 6.85096L33.3086 6.83894H33.3205L21.5 0L9.68544 6.83894H9.67351L9.71526 6.85697L0 12.5V37.5L21.5 50L43 37.5V12.5L33.2847 6.85096ZM19.7526 44.9279L11.2182 39.9639V31.5745L3.4889 27.1514V16.6406L19.7526 26.0938V44.9279ZM5.17073 13.5517L13.2042 8.8762L21.4881 13.6659L29.7839 8.86418L37.8472 13.5517L21.5119 23.0469L5.17073 13.5517ZM39.5111 27.1815L31.8295 31.5745V39.9339L23.2474 44.9219V26.1058L39.5111 16.6526V27.1815Z" fill="#7C7C7C"/>
</svg>
