<svg width="18" height="19" viewBox="0 0 18 19" fill="none" xmlns="http://www.w3.org/2000/svg">
<path d="M13.4107 2.72824L13.4196 2.72377H13.4241L9 0.183594L4.57813 2.72377H4.57366L4.58929 2.73047L0.953125 4.82645V14.1122L9 18.755L17.0469 14.1122V4.82645L13.4107 2.72824ZM8.34598 16.8711L5.15179 15.0273V11.9113L2.25893 10.2684V6.3644L8.34598 9.87556V16.8711ZM2.88839 5.21708L5.89509 3.48047L8.99554 5.25949L12.1004 3.476L15.1183 5.21708L9.00447 8.74386L2.88839 5.21708ZM15.7411 10.2796L12.8661 11.9113V15.0162L9.65402 16.8689V9.88002L15.7411 6.36886V10.2796Z" fill="#ECECEC"/>
</svg>
