<svg width="10" height="11" viewBox="0 0 10 11" fill="none" xmlns="http://www.w3.org/2000/svg">
<path fill-rule="evenodd" clip-rule="evenodd" d="M5 0.5H9.5C9.77614 0.5 10 0.723858 10 1V5.5C10 5.77614 9.77614 6 9.5 6C9.22386 6 9 5.77614 9 5.5V2.20711L1.70711 9.5H5C5.27614 9.5 5.5 9.72386 5.5 10C5.5 10.2761 5.27614 10.5 5 10.5H0.5C0.223858 10.5 0 10.2761 0 10V5.5C0 5.22386 0.223858 5 0.5 5C0.776142 5 1 5.22386 1 5.5V8.79289L8.29289 1.5H5C4.72386 1.5 4.5 1.27614 4.5 1C4.5 0.723858 4.72386 0.5 5 0.5Z" fill="#1C1D1E"/>
</svg>
