<svg width="15" height="19" viewBox="0 0 15 19" fill="none" xmlns="http://www.w3.org/2000/svg">
<path fill-rule="evenodd" clip-rule="evenodd" d="M7.5 10.2721C4.27834 10.2721 1.66667 12.8838 1.66667 16.1055V17.7721C1.66667 18.2324 1.29357 18.6055 0.833333 18.6055C0.373096 18.6055 0 18.2324 0 17.7721V16.1055C0 11.9633 3.35786 8.60547 7.5 8.60547C11.6421 8.60547 15 11.9633 15 16.1055V17.7721C15 18.2324 14.6269 18.6055 14.1667 18.6055C13.7064 18.6055 13.3333 18.2324 13.3333 17.7721V16.1055C13.3333 12.8838 10.7217 10.2721 7.5 10.2721Z" fill="#777E91"/>
<path fill-rule="evenodd" clip-rule="evenodd" d="M7.5 8.60531C9.34095 8.60531 10.8333 7.11292 10.8333 5.27197C10.8333 3.43102 9.34095 1.93864 7.5 1.93864C5.65905 1.93864 4.16667 3.43102 4.16667 5.27197C4.16667 7.11292 5.65905 8.60531 7.5 8.60531ZM7.5 10.272C10.2614 10.272 12.5 8.0334 12.5 5.27197C12.5 2.51055 10.2614 0.271973 7.5 0.271973C4.73858 0.271973 2.5 2.51055 2.5 5.27197C2.5 8.0334 4.73858 10.272 7.5 10.272Z" fill="#777E91"/>
</svg>
