<svg width="45" height="45" viewBox="0 0 45 45" fill="none" xmlns="http://www.w3.org/2000/svg">
<path d="M0 22.5C0 10.0736 10.0736 0 22.5 0C34.9264 0 45 10.0736 45 22.5C45 34.9264 34.9264 45 22.5 45C10.0736 45 0 34.9264 0 22.5Z" fill="#7090B0"/>
<path fill-rule="evenodd" clip-rule="evenodd" d="M32.9124 21.7567C33.3538 22.154 33.3538 22.8461 32.9124 23.2433L20.63 34.2974C19.7064 35.1287 18.2837 35.0538 17.4525 34.1302C16.6212 33.2065 16.6961 31.7839 17.6197 30.9526L27.0115 22.5L17.6197 14.0474C16.6961 13.2161 16.6212 11.7935 17.4525 10.8698C18.2837 9.9462 19.7064 9.87132 20.63 10.7026L32.9124 21.7567Z" fill="white"/>
</svg>
