<svg width="21" height="20" viewBox="0 0 21 20" fill="none" xmlns="http://www.w3.org/2000/svg">
<path d="M19.0888 13.5765C17.7 13.5765 16.3666 13.3593 15.1222 12.9574C14.7333 12.838 14.3 12.9248 13.9888 13.2181L11.5444 15.6076C8.39995 14.0436 5.82217 11.5346 4.22217 8.45003L6.66662 6.0497C6.97773 5.76731 7.06662 5.34372 6.94439 4.96358C6.53328 3.74712 6.31106 2.44377 6.31106 1.08612C6.31106 0.488755 5.81106 0 5.19995 0H1.31106C0.699951 0 0.199951 0.488755 0.199951 1.08612C0.199951 11.2848 8.65551 19.5502 19.0888 19.5502C19.7 19.5502 20.2 19.0614 20.2 18.4641V14.6626C20.2 14.0653 19.7 13.5765 19.0888 13.5765ZM17.9777 9.77509H20.2C20.2 4.37707 15.7222 0 10.2 0V2.17224C14.5 2.17224 17.9777 5.5718 17.9777 9.77509ZM13.5333 9.77509H15.7555C15.7555 6.7774 13.2666 4.34449 10.2 4.34449V6.51673C12.0444 6.51673 13.5333 7.97213 13.5333 9.77509Z" fill="#7090B0"/>
</svg>
