<svg width="21" height="20" viewBox="0 0 21 20" fill="none" xmlns="http://www.w3.org/2000/svg">
<path d="M19.0891 13.5765C17.7002 13.5765 16.3669 13.3593 15.1224 12.9574C14.7335 12.838 14.3002 12.9248 13.9891 13.2181L11.5446 15.6076C8.4002 14.0436 5.82242 11.5346 4.22242 8.45003L6.66686 6.0497C6.97797 5.76731 7.06686 5.34372 6.94464 4.96358C6.53353 3.74712 6.31131 2.44377 6.31131 1.08612C6.31131 0.488755 5.81131 0 5.2002 0H1.31131C0.700195 0 0.200195 0.488755 0.200195 1.08612C0.200195 11.2848 8.65575 19.5502 19.0891 19.5502C19.7002 19.5502 20.2002 19.0614 20.2002 18.4641V14.6626C20.2002 14.0653 19.7002 13.5765 19.0891 13.5765ZM17.978 9.77509H20.2002C20.2002 4.37707 15.7224 0 10.2002 0V2.17224C14.5002 2.17224 17.978 5.5718 17.978 9.77509ZM13.5335 9.77509H15.7557C15.7557 6.7774 13.2669 4.34449 10.2002 4.34449V6.51673C12.0446 6.51673 13.5335 7.97213 13.5335 9.77509Z" fill="#C9C9C9"/>
</svg>
