<svg width="177" height="48" viewBox="0 0 177 48" fill="none" xmlns="http://www.w3.org/2000/svg">
<rect width="177" height="48" rx="24" fill="#0C6EED"/>
<g clip-path="url(#clip0_926_4903)">
<path d="M45.5183 23.2147H41.7861V19.4826C41.7861 19.3745 41.6977 19.2861 41.5897 19.2861H40.4111C40.3031 19.2861 40.2147 19.3745 40.2147 19.4826V23.2147H36.4826C36.3745 23.2147 36.2861 23.3031 36.2861 23.4111V24.5897C36.2861 24.6977 36.3745 24.7861 36.4826 24.7861H40.2147V28.5183C40.2147 28.6263 40.3031 28.7147 40.4111 28.7147H41.5897C41.6977 28.7147 41.7861 28.6263 41.7861 28.5183V24.7861H45.5183C45.6263 24.7861 45.7147 24.6977 45.7147 24.5897V23.4111C45.7147 23.3031 45.6263 23.2147 45.5183 23.2147Z" fill="white"/>
<path d="M41 13C34.9254 13 30 17.9254 30 24C30 30.0746 34.9254 35 41 35C47.0746 35 52 30.0746 52 24C52 17.9254 47.0746 13 41 13ZM41 33.1339C35.9567 33.1339 31.8661 29.0433 31.8661 24C31.8661 18.9567 35.9567 14.8661 41 14.8661C46.0433 14.8661 50.1339 18.9567 50.1339 24C50.1339 29.0433 46.0433 33.1339 41 33.1339Z" fill="white"/>
</g>
<path d="M68.5816 17.248H69.8776V18.49C69.8776 22.036 66.5836 24.79 63.3256 25.528L62.6596 24.286C65.5216 23.746 68.5816 21.262 68.5816 18.49V17.248ZM68.8516 17.248H70.1476V18.49C70.1476 21.28 73.2256 23.746 76.0696 24.286L75.4036 25.528C72.1636 24.79 68.8516 22.054 68.8516 18.49V17.248ZM62.0656 28.984H76.8076V30.208H62.0656V28.984ZM80.1542 24.574H91.3322V25.78H80.1542V24.574ZM78.2642 29.146H93.0062V30.388H78.2642V29.146ZM84.8702 25.204H86.3462V29.722H84.8702V25.204ZM80.1542 17.446H91.1522V18.67H81.6662V25.024H80.1542V17.446ZM81.1802 20.938H90.8102V22.144H81.1802V20.938ZM106.307 16.114H107.801V32.422H106.307V16.114ZM95.3988 27.256H96.7488C99.4668 27.256 101.897 27.148 104.777 26.68L104.939 27.904C101.987 28.39 99.5388 28.498 96.7488 28.498H95.3988V27.256ZM95.3628 17.644H102.887V23.458H96.8928V27.724H95.3988V22.234H101.375V18.868H95.3628V17.644ZM118.379 17.14H119.567V19.318C119.567 21.748 118.163 24.304 115.769 25.366L114.959 24.196C117.101 23.26 118.379 21.154 118.379 19.318V17.14ZM118.613 17.14H119.801V19.318C119.801 21.118 121.025 22.954 123.113 23.764L122.303 24.898C119.963 23.962 118.613 21.712 118.613 19.318V17.14ZM127.253 16.15H128.675V26.176H127.253V16.15ZM124.661 20.488H127.739V21.712H124.661V20.488ZM123.761 16.456H125.183V25.654H123.761V16.456ZM123.329 26.536C126.677 26.536 128.765 27.616 128.765 29.47C128.765 31.306 126.677 32.368 123.329 32.368C119.963 32.368 117.911 31.306 117.911 29.47C117.911 27.616 119.963 26.536 123.329 26.536ZM123.329 27.706C120.881 27.706 119.369 28.354 119.369 29.47C119.369 30.568 120.881 31.216 123.329 31.216C125.777 31.216 127.271 30.568 127.271 29.47C127.271 28.354 125.777 27.706 123.329 27.706ZM135.262 17.05H136.504V18.724C136.504 21.874 134.722 24.448 131.932 25.492L131.158 24.268C133.642 23.386 135.262 21.208 135.262 18.724V17.05ZM135.532 17.05H136.756V18.67C136.756 20.974 138.34 23.008 140.716 23.836L139.906 25.006C137.278 24.016 135.532 21.622 135.532 18.67V17.05ZM143.056 16.132H144.55V25.762H143.056V16.132ZM139.204 26.23C142.552 26.23 144.622 27.364 144.622 29.308C144.622 31.252 142.552 32.368 139.204 32.368C135.838 32.368 133.768 31.252 133.768 29.308C133.768 27.364 135.838 26.23 139.204 26.23ZM139.204 27.418C136.756 27.418 135.262 28.12 135.262 29.308C135.262 30.496 136.756 31.198 139.204 31.198C141.652 31.198 143.146 30.496 143.146 29.308C143.146 28.12 141.652 27.418 139.204 27.418ZM139.528 19.57H143.38V20.812H139.528V19.57Z" fill="white"/>
<defs>
<clipPath id="clip0_926_4903">
<rect width="22" height="22" fill="white" transform="translate(30 13)"/>
</clipPath>
</defs>
</svg>
