<svg width="24" height="24" viewBox="0 0 24 24" fill="none" xmlns="http://www.w3.org/2000/svg">
<path fill-rule="evenodd" clip-rule="evenodd" d="M19.5203 19.3916C18.5043 16.1786 15.7743 14.3376 12.0273 14.3376H12.0003C8.24328 14.3166 5.49928 16.1706 4.48128 19.3916L4.36328 19.7656L4.69728 19.9696C6.65528 21.1636 9.09728 21.7686 11.9533 21.7686C11.9853 21.7686 12.0173 21.7686 12.0483 21.7686C14.9443 21.7686 17.3183 21.1796 19.3043 19.9696L19.6383 19.7656L19.5203 19.3916Z" fill="black"/>
<path fill-rule="evenodd" clip-rule="evenodd" d="M12.0008 12.1094C14.7238 12.1094 16.9398 9.89442 16.9398 7.17142C16.9398 4.44742 14.7238 2.23242 12.0008 2.23242C9.27781 2.23242 7.06281 4.44742 7.06281 7.17142C7.06281 9.89442 9.27781 12.1094 12.0008 12.1094Z" fill="black"/>
</svg>
