<svg width="20" height="21" viewBox="0 0 20 21" fill="none" xmlns="http://www.w3.org/2000/svg">
<path d="M10 18.4524C14.1421 18.4524 17.5 15.0302 17.5 10.8087C17.5 6.58723 14.1421 3.16504 10 3.16504C5.85786 3.16504 2.5 6.58723 2.5 10.8087C2.5 15.0302 5.85786 18.4524 10 18.4524Z" stroke="#7A7A7A" stroke-width="1.26192" stroke-linecap="round" stroke-linejoin="round"/>
<path d="M10 15.9046C10.5178 15.9046 10.9375 15.4768 10.9375 14.9491C10.9375 14.4214 10.5178 13.9937 10 13.9937C9.48223 13.9937 9.0625 14.4214 9.0625 14.9491C9.0625 15.4768 9.48223 15.9046 10 15.9046Z" fill="#7A7A7A"/>
<path d="M10 12.0826V11.4456C10.4326 11.4456 10.8556 11.3149 11.2153 11.0699C11.575 10.8249 11.8554 10.4768 12.021 10.0694C12.1866 9.66201 12.2299 9.21375 12.1455 8.78129C12.0611 8.34883 11.8527 7.95158 11.5468 7.6398C11.2409 7.32801 10.8511 7.11568 10.4268 7.02965C10.0024 6.94363 9.56259 6.98778 9.16288 7.15652C8.76317 7.32526 8.42153 7.61101 8.18116 7.97763C7.94079 8.34426 7.8125 8.77529 7.8125 9.21622" stroke="#7A7A7A" stroke-width="1.26192" stroke-linecap="round" stroke-linejoin="round"/>
</svg>
