<svg width="23" height="16" viewBox="0 0 23 16" fill="none" xmlns="http://www.w3.org/2000/svg">
<path fill-rule="evenodd" clip-rule="evenodd" d="M11.8389 0C6.89581 0 2.67851 3.07514 0.970488 7.40937L0.838867 7.74337L0.970488 8.07737C2.67851 12.4116 6.89581 15.4867 11.8389 15.4867C16.7819 15.4867 20.9992 12.4116 22.7072 8.07737L22.8389 7.74337L22.7072 7.40936C20.9992 3.07514 16.7819 0 11.8389 0ZM11.8389 13.6648C7.79983 13.6648 4.32861 11.23 2.80435 7.74337C4.32861 4.25669 7.79983 1.82197 11.8389 1.82197C15.8779 1.82197 19.3491 4.25668 20.8734 7.74336C19.3491 11.23 15.8779 13.6648 11.8389 13.6648ZM15.4831 7.74319C15.4831 10.5104 13.8517 12.7536 11.8392 12.7536C9.82668 12.7536 8.19524 10.5104 8.19524 7.74319C8.19524 4.97602 9.82668 2.73278 11.8392 2.73278C13.8517 2.73278 15.4831 4.97602 15.4831 7.74319ZM14.5721 5.92122C14.5721 6.67591 13.9603 7.2877 13.2057 7.2877C12.451 7.2877 11.8392 6.67591 11.8392 5.92122C11.8392 5.16654 12.451 4.55475 13.2057 4.55475C13.9603 4.55475 14.5721 5.16654 14.5721 5.92122Z" fill="#949494"/>
</svg>
