<svg width="240" height="240" viewBox="0 0 240 240" fill="none" xmlns="http://www.w3.org/2000/svg">
<path d="M112.149 0.187572C111.634 0.234442 109.993 0.398489 108.517 0.515665C74.4654 3.58568 42.5701 21.9589 22.3689 50.1983C11.12 65.8999 3.92541 83.7107 1.20693 102.576C0.246082 109.161 0.128906 111.106 0.128906 120.035C0.128906 128.964 0.246082 130.909 1.20693 137.494C7.72191 182.514 39.7579 220.338 83.2067 234.352C90.9872 236.86 99.1896 238.571 108.517 239.602C112.149 240 127.851 240 131.483 239.602C147.583 237.821 161.223 233.837 174.674 226.97C176.737 225.916 177.135 225.634 176.854 225.4C176.666 225.259 167.878 213.471 157.332 199.223L138.162 173.327L114.141 137.776C100.924 118.231 90.0498 102.248 89.9561 102.248C89.8623 102.224 89.7686 118.02 89.7217 137.307C89.6514 171.077 89.628 172.436 89.2062 173.233C88.5968 174.382 88.1281 174.85 87.1438 175.366C86.3939 175.741 85.7377 175.811 82.199 175.811H78.1447L77.0667 175.131C76.3636 174.686 75.8481 174.1 75.4966 173.421L75.0044 172.366L75.0513 125.378L75.1216 78.3674L75.8481 77.4535C76.223 76.9613 77.0198 76.3286 77.5823 76.0239C78.5431 75.5552 78.9181 75.5083 82.9724 75.5083C87.7532 75.5083 88.55 75.6958 89.792 77.0551C90.1436 77.43 103.15 97.0219 118.711 120.621C134.272 144.22 155.551 176.444 166.003 192.263L184.986 221.018L185.947 220.385C194.454 214.854 203.453 206.98 210.577 198.778C225.74 181.365 235.512 160.133 238.793 137.494C239.754 130.909 239.871 128.964 239.871 120.035C239.871 111.106 239.754 109.161 238.793 102.576C232.278 57.557 200.242 19.7325 156.793 5.71828C149.13 3.23415 140.975 1.52338 131.835 0.49223C129.585 0.257877 114.094 9.0152e-05 112.149 0.187572ZM161.223 72.6961C162.347 73.2586 163.261 74.3366 163.59 75.4615C163.777 76.0708 163.824 89.1008 163.777 118.465L163.707 160.602L156.278 149.212L148.825 137.823V107.193C148.825 87.39 148.919 76.2583 149.06 75.7193C149.435 74.4069 150.255 73.3757 151.38 72.7664C152.341 72.2743 152.692 72.2274 156.371 72.2274C159.84 72.2274 160.449 72.2743 161.223 72.6961Z" fill="black"/>
<path d="M183.814 221.533C182.994 222.049 182.736 222.4 183.463 222.002C183.978 221.697 184.822 221.064 184.681 221.041C184.611 221.041 184.213 221.275 183.814 221.533ZM182.197 222.588C181.775 222.916 181.775 222.939 182.291 222.681C182.572 222.541 182.807 222.377 182.807 222.33C182.807 222.142 182.689 222.189 182.197 222.588ZM181.026 223.291C180.604 223.619 180.604 223.642 181.119 223.385C181.4 223.244 181.635 223.08 181.635 223.033C181.635 222.846 181.518 222.892 181.026 223.291ZM179.854 223.994C179.432 224.322 179.432 224.345 179.947 224.088C180.229 223.947 180.463 223.783 180.463 223.736C180.463 223.549 180.346 223.595 179.854 223.994ZM178.073 224.931C177.182 225.4 177.229 225.587 178.12 225.142C178.518 224.931 178.823 224.72 178.823 224.673C178.823 224.509 178.799 224.533 178.073 224.931Z" fill="black"/>
</svg>
