<svg width="240" height="240" viewBox="0 0 240 240" fill="none" xmlns="http://www.w3.org/2000/svg">
<rect width="240" height="240" rx="36" fill="#F8F8F8"/>
<path fill-rule="evenodd" clip-rule="evenodd" d="M102.307 57.7501C82.1295 59.3211 64.9736 60.6957 64.1938 60.7939C61.9518 61.2849 59.9048 62.7577 58.93 64.8196L58.0527 66.587L58.1502 109.2L58.2477 151.814L59.5149 154.465C60.2947 155.937 65.1685 162.811 70.5297 169.782C81.1547 183.724 81.9345 184.412 85.9311 184.903C87.1008 185.001 95.9712 184.608 105.426 184.019C114.979 183.43 130.38 182.448 139.543 181.957C178.826 179.502 176.779 179.699 179.119 177.735C181.946 175.379 181.653 179.306 181.848 127.463C181.946 83.5734 181.848 80.6278 181.166 79.3513C180.483 77.7803 179.119 76.7985 161.183 64.1323C149.193 55.59 148.316 55.1973 142.955 55.0991C140.713 55.0009 122.387 56.2773 102.307 57.7501Z" fill="white"/>
<path fill-rule="evenodd" clip-rule="evenodd" d="M102.307 57.7501C82.1295 59.3211 64.9736 60.6957 64.1938 60.7939C61.9518 61.2849 59.9048 62.7577 58.93 64.8196L58.0527 66.587L58.1502 109.2L58.2477 151.814L59.5149 154.465C60.2947 155.937 65.1685 162.811 70.5297 169.782C81.1547 183.724 81.9345 184.412 85.9311 184.903C87.1008 185.001 95.9712 184.608 105.426 184.019C114.979 183.43 130.38 182.448 139.543 181.957C178.826 179.502 176.779 179.699 179.119 177.735C181.946 175.379 181.653 179.306 181.848 127.463C181.946 83.5734 181.848 80.6278 181.166 79.3513C180.483 77.7803 179.119 76.7985 161.183 64.1323C149.193 55.59 148.316 55.1973 142.955 55.0991C140.713 55.0009 122.387 56.2773 102.307 57.7501ZM147.634 63.3468C149.388 64.1323 161.768 72.7728 163.522 74.442C164.01 74.9329 164.205 75.4238 163.912 75.6202C163.425 76.1112 86.7109 80.726 84.4689 80.3332C83.4941 80.235 82.032 79.6459 81.1547 79.0568C77.6455 76.6021 68.9701 69.4344 68.9701 68.9435C68.9701 67.5689 68.6777 67.5689 102.795 65.016C109.325 64.6232 120.145 63.8377 126.676 63.2486C140.81 62.1686 145.002 62.1686 147.634 63.3468ZM172.003 85.5371C172.588 86.1263 173.075 87.2063 173.27 88.2864C173.368 89.2682 173.465 107.531 173.368 128.74C173.27 165.069 173.173 167.425 172.49 168.407C172.1 169.095 171.321 169.782 170.638 169.978C168.981 170.666 88.6604 175.28 87.0033 174.789C86.2235 174.593 85.1512 173.906 84.6639 173.317L83.6891 172.335L83.5916 133.06C83.4941 105.469 83.5916 93.2939 83.8841 92.2139C84.079 91.4284 84.7613 90.4465 85.2487 90.0537C85.9311 89.5628 90.7074 89.1701 107.083 88.1882C118.586 87.5991 136.424 86.519 146.562 85.8317C170.931 84.3589 170.833 84.3589 172.003 85.5371Z" fill="black"/>
<path fill-rule="evenodd" clip-rule="evenodd" d="M150.462 98.9879C146.076 99.2825 142.177 99.6752 141.787 99.9698C140.422 100.657 139.642 101.835 139.447 103.112C139.35 104.388 139.74 104.585 144.126 105.174L145.978 105.37V122.749C145.978 133.059 145.881 139.834 145.588 139.637C145.394 139.441 139.74 130.604 132.917 120.196C126.093 109.592 120.44 100.952 120.342 100.952C120.245 100.853 115.858 101.05 110.497 101.443C103.966 101.835 100.359 102.326 99.677 102.719C98.5073 103.308 97.1426 105.468 97.1426 106.843C97.1426 107.727 98.7022 108.218 101.919 108.218H103.674V158.097L100.847 158.98C98.7997 159.57 98.0199 159.962 97.63 160.846C97.0451 162.221 97.0451 163.399 97.7274 163.399C97.9224 163.399 102.504 163.202 107.768 162.81C118.1 162.221 119.27 161.926 120.342 159.766C120.732 159.177 121.024 158.489 121.024 158.195C121.024 158.097 119.562 157.606 117.905 157.213C116.151 156.82 114.396 156.329 114.006 156.329C113.324 156.133 113.324 154.857 113.324 137.379V118.625L125.606 137.968C138.473 158.293 140.032 160.65 142.079 161.631C144.516 162.908 150.755 162.024 153.874 159.962L154.849 159.373L154.946 131.684L155.044 103.897L157.188 103.505C159.723 103.014 160.892 101.835 160.892 99.7734C160.892 98.497 160.795 98.3988 159.625 98.497C158.943 98.497 154.751 98.7916 150.462 98.9879Z" fill="black"/>
</svg>
