<svg width="240" height="240" viewBox="0 0 240 240" fill="none" xmlns="http://www.w3.org/2000/svg">
<path d="M68.0845 176.066H60.3678C60.0964 163.007 59.3442 150.726 58.1146 139.223H58.0466L46.2974 176.066H40.4219L28.7438 139.223H28.675C27.8085 150.27 27.2634 162.551 27.036 176.066H20C20.4547 159.629 21.5926 144.221 23.4137 129.837H32.9782L44.1114 163.805H44.1797L55.3812 129.837H64.5328C66.5367 146.683 67.7201 162.096 68.0836 176.066" fill="white"/>
<path d="M101.557 141.96C98.4149 159.056 94.2699 171.48 89.1249 179.23C85.1162 185.202 80.7248 188.188 75.9427 188.188C74.668 188.188 73.096 187.802 71.2306 187.038V182.916C72.1419 183.05 73.2112 183.121 74.441 183.121C76.6719 183.121 78.4698 182.503 79.8376 181.269C81.4757 179.766 82.2954 178.076 82.2954 176.203C82.2954 174.924 81.656 172.299 80.383 168.329L71.914 141.96H79.495L85.5733 161.681C86.9388 166.159 87.5083 169.285 87.2805 171.067C90.6049 162.163 92.9274 152.461 94.2487 141.96H101.557" fill="white"/>
<path d="M135.361 163.25C135.361 167.171 133.925 170.389 131.061 172.908C128.195 175.415 124.344 176.672 119.523 176.672C115.013 176.672 110.642 175.225 106.408 172.355L108.389 168.384C112.032 170.21 115.329 171.122 118.289 171.122C121.066 171.122 123.24 170.503 124.812 169.279C126.381 168.045 127.321 166.326 127.321 164.144C127.321 161.4 125.412 159.053 121.909 157.085C118.675 155.305 112.212 151.59 112.212 151.59C108.71 149.029 106.955 146.281 106.955 141.753C106.955 138.008 108.264 134.981 110.879 132.678C113.5 130.371 116.881 129.217 121.022 129.217C125.302 129.217 129.195 130.362 132.7 132.645L130.919 136.612C127.92 135.337 124.962 134.697 122.046 134.697C119.68 134.697 117.856 135.266 116.585 136.412C115.307 137.548 114.516 139.01 114.516 140.792C114.516 143.53 116.467 145.905 120.069 147.911C123.343 149.692 129.965 153.479 129.965 153.479C133.567 156.035 135.361 158.761 135.361 163.25Z" fill="white"/>
<path fill-rule="evenodd" clip-rule="evenodd" d="M149.157 166.82C147.289 163.807 146.354 158.971 146.354 152.303C146.354 140.663 149.884 134.838 156.941 134.838C160.631 134.838 163.339 136.231 165.071 139.015C166.936 142.029 167.871 146.823 167.871 153.398C167.871 165.132 164.341 171.001 157.284 171.001C153.595 171.001 150.886 169.61 149.157 166.821M176.614 177.183L168.139 172.993C168.894 172.373 169.61 171.703 170.259 170.928C173.857 166.687 175.658 160.409 175.658 152.098C175.658 136.804 169.67 129.153 157.695 129.153C151.821 129.153 147.243 131.093 143.965 134.977C140.365 139.223 138.568 145.477 138.568 153.741C138.568 161.867 140.161 167.829 143.348 171.615C146.252 175.038 150.645 176.752 156.524 176.752C158.718 176.752 160.731 176.481 162.56 175.939L173.596 182.379L176.605 177.183" fill="white"/>
<path d="M204.279 176.066H182.356V129.837H189.733V170.38H204.279V176.066" fill="white"/>
<path d="M209.54 176.062H210.762V171.359H212.362V170.398H207.878V171.359H209.54V176.062ZM218.842 176.062H219.994V170.398H218.261L216.85 174.259L215.315 170.398H213.645V176.062H214.735V171.752H214.797L216.405 176.062H217.236L218.842 171.752V176.062Z" fill="white"/>
<path fill-rule="evenodd" clip-rule="evenodd" d="M213.538 114.353C209.08 114.241 205.627 114.687 202.731 115.917C201.895 116.252 200.56 116.252 200.445 117.313C200.894 117.759 200.948 118.485 201.341 119.102C202.007 120.219 203.175 121.725 204.235 122.509C205.405 123.403 206.575 124.293 207.803 125.075C209.974 126.422 212.425 127.2 214.539 128.541C215.769 129.322 216.99 130.327 218.22 131.167C218.83 131.613 219.217 132.341 220 132.617V132.448C219.608 131.947 219.498 131.221 219.11 130.659C218.554 130.105 217.996 129.599 217.438 129.042C215.821 126.864 213.813 124.967 211.646 123.403C209.862 122.171 205.96 120.495 205.239 118.434C205.239 118.434 205.18 118.375 205.126 118.32C206.352 118.207 207.802 117.759 208.971 117.421C210.863 116.919 212.59 117.033 214.539 116.531C215.432 116.306 216.324 116.025 217.219 115.751V115.244C216.211 114.241 215.489 112.898 214.431 111.95C211.592 109.493 208.469 107.093 205.239 105.079C203.509 103.962 201.281 103.239 199.442 102.287C198.777 101.951 197.664 101.786 197.272 101.224C196.269 99.9958 195.709 98.3781 194.987 96.9236C193.373 93.8549 191.81 90.4488 190.42 87.2038C189.418 85.027 188.805 82.8501 187.579 80.838C181.838 71.3406 175.601 65.5906 166.019 59.948C163.958 58.7737 161.507 58.2713 158.891 57.6566C157.496 57.5982 156.104 57.4896 154.712 57.4347C153.819 57.042 152.926 55.9799 152.148 55.4774C148.971 53.4677 140.786 49.1116 138.444 54.864C136.94 58.4968 140.673 62.07 141.955 63.9138C142.901 65.1968 144.128 66.6516 144.793 68.1016C145.184 69.0516 145.296 70.0589 145.687 71.0625C146.578 73.5198 147.412 76.2576 148.584 78.549C149.195 79.7221 149.863 80.9526 150.642 82.0088C151.092 82.627 151.869 82.9027 152.037 83.9111C151.26 85.027 151.199 86.7026 150.754 88.1001C148.75 94.4122 149.528 102.232 152.371 106.867C153.26 108.263 155.38 111.336 158.221 110.16C160.727 109.157 160.17 105.973 160.894 103.182C161.061 102.507 160.949 102.064 161.282 101.618V101.73C162.062 103.292 162.844 104.797 163.567 106.366C165.297 109.1 168.302 111.949 170.811 113.847C172.144 114.856 173.204 116.585 174.875 117.201V117.032H174.765C174.43 116.531 173.93 116.306 173.484 115.917C172.481 114.911 171.37 113.681 170.586 112.565C168.248 109.438 166.184 105.973 164.349 102.398C163.456 100.663 162.677 98.7655 161.952 97.035C161.619 96.3679 161.619 95.3596 161.061 95.0253C160.223 96.2527 159 97.3156 158.389 98.8191C157.329 101.224 157.219 104.184 156.826 107.257C156.604 107.315 156.716 107.257 156.604 107.368C154.824 106.922 154.211 105.079 153.541 103.52C151.869 99.5487 151.589 93.1813 153.04 88.6005C153.428 87.4297 155.103 83.7432 154.432 82.6262C154.095 81.5604 152.982 80.9518 152.371 80.1104C151.648 79.0494 150.864 77.7116 150.367 76.536C149.03 73.4092 148.357 69.9447 146.913 66.8178C146.244 65.363 145.072 63.8545 144.128 62.5167C143.067 61.0082 141.899 59.9472 141.062 58.1618C140.786 57.546 140.395 56.5399 140.839 55.8716C140.949 55.4241 141.175 55.2558 141.621 55.1436C142.341 54.529 144.405 55.3095 145.128 55.6449C147.191 56.4803 148.918 57.2667 150.642 58.4375C151.423 58.9972 152.259 60.0582 153.26 60.3399H154.432C156.214 60.7277 158.221 60.4485 159.893 60.9533C162.844 61.9021 165.517 63.2984 167.914 64.8069C175.209 69.4434 181.226 76.036 185.291 83.9103C185.961 85.1932 186.242 86.3676 186.854 87.7054C188.024 90.4479 189.474 93.2406 190.641 95.919C191.81 98.5446 192.927 101.223 194.6 103.405C195.433 104.576 198.777 105.191 200.281 105.805C201.393 106.307 203.122 106.754 204.126 107.368C206.019 108.539 207.91 109.881 209.695 111.168C210.584 111.838 213.371 113.233 213.538 114.352" fill="white"/>
<path fill-rule="evenodd" clip-rule="evenodd" d="M156.716 65.8086C155.771 65.8086 155.105 65.9231 154.432 66.089V66.2012H154.541C154.991 67.0927 155.771 67.7121 156.324 68.4926C156.772 69.3865 157.163 70.2768 157.608 71.1719C157.663 71.117 157.716 71.0585 157.716 71.0585C158.502 70.5024 158.891 69.6097 158.891 68.267C158.554 67.8732 158.502 67.4853 158.221 67.0927C157.888 66.5354 157.163 66.2561 156.716 65.8086Z" fill="white"/>
</svg>
