<svg width="240" height="240" viewBox="0 0 240 240" fill="none" xmlns="http://www.w3.org/2000/svg">
<g clip-path="url(#clip0_3132_3886)">
<path d="M71.9965 109.667C71.9266 111.865 72.2088 114.06 72.8325 116.169C73.4753 117.976 74.2701 119.724 75.2085 121.397C75.5281 121.898 75.7102 122.473 75.7365 123.066C75.6901 123.511 75.5382 123.938 75.2933 124.313C75.0485 124.687 74.7177 124.998 74.3285 125.219L69.9285 128.294C69.3592 128.694 68.6875 128.922 67.9925 128.953C67.5834 128.939 67.1816 128.842 66.8111 128.668C66.4406 128.494 66.1091 128.248 65.8365 127.943C64.8145 126.933 63.9272 125.796 63.1965 124.56C62.4631 123.33 61.7151 121.866 60.9525 120.167C58.3755 123.378 55.097 125.958 51.3677 127.709C47.6384 129.461 43.5572 130.337 39.4365 130.271C36.7754 130.417 34.112 130.029 31.6033 129.131C29.0945 128.234 26.791 126.844 24.8285 125.043C23.0104 123.197 21.5949 120.995 20.6711 118.575C19.7472 116.156 19.335 113.571 19.4605 110.985C19.3438 108.174 19.8605 105.373 20.9723 102.788C22.0841 100.203 23.7627 97.8997 25.8845 96.0484C30.9792 92.0426 37.3613 90.0279 43.8365 90.3812C46.4281 90.3888 49.0159 90.5796 51.5805 90.9524C54.2791 91.3331 57.0805 91.8603 59.9845 92.5339V87.1742C60.4118 82.974 59.1627 78.7749 56.5085 75.4884C53.1127 72.8811 48.846 71.6707 44.5845 72.1057C41.9303 72.1191 39.2869 72.4435 36.7085 73.0722C34.0252 73.7128 31.3927 74.5498 28.8325 75.5763C28.0048 75.956 27.1522 76.279 26.2805 76.5428H25.1365C24.1098 76.5428 23.5965 75.7813 23.5965 74.2583V70.7877C23.5335 69.906 23.7163 69.0241 24.1245 68.2397C24.6759 67.5644 25.3865 67.0361 26.1925 66.7021C29.1372 65.2936 32.2186 64.1895 35.3885 63.4072C39.1111 62.4529 42.9412 61.9804 46.7845 62.0014C53.6972 61.3897 60.5732 63.5203 65.9245 67.9322C68.1 70.3621 69.7597 73.2071 70.8033 76.2954C71.847 79.3836 72.2528 82.651 71.9965 85.9002V109.667ZM42.2965 120.782C44.8768 120.744 47.4334 120.284 49.8645 119.42C52.5443 118.493 54.9286 116.871 56.7725 114.719C57.9085 113.454 58.7499 111.954 59.2365 110.326C59.743 108.257 59.9797 106.13 59.9405 104V100.925C57.7204 100.394 55.4731 99.983 53.2085 99.6948C50.932 99.404 48.6395 99.2572 46.3445 99.2554C42.4913 98.9669 38.6555 100.006 35.4765 102.199C34.3283 103.21 33.4204 104.465 32.8191 105.871C32.2178 107.277 31.9381 108.799 32.0005 110.326C31.8964 111.73 32.0809 113.139 32.5424 114.469C33.004 115.799 33.7329 117.02 34.6845 118.058C35.7118 118.989 36.9129 119.709 38.219 120.176C39.5251 120.644 40.9107 120.849 42.2965 120.782ZM101.036 128.69C100.045 128.78 99.0525 128.532 98.2205 127.987C97.4415 127.203 96.9066 126.212 96.6805 125.131L79.5645 68.6351C79.2324 67.6824 79.0109 66.6948 78.9045 65.6917C78.8672 65.4466 78.8881 65.1962 78.9656 64.9606C79.043 64.7251 79.1749 64.511 79.3504 64.3358C79.526 64.1605 79.7404 64.0288 79.9763 63.9515C80.2122 63.8741 80.463 63.8532 80.7085 63.8905H87.8805C88.8864 63.7898 89.8963 64.038 90.7405 64.5934C91.4685 65.4005 91.9695 66.3858 92.1925 67.4489L104.468 115.774L115.864 67.4489C116.04 66.3826 116.548 65.3988 117.316 64.6373C118.198 64.0939 119.232 63.8475 120.264 63.9344H126.16C127.193 63.8475 128.227 64.0939 129.108 64.6373C129.869 65.4165 130.362 66.4163 130.516 67.4929L142 116.433L154.672 67.4929C154.906 66.4244 155.423 65.4383 156.168 64.6373C157.013 64.0819 158.023 63.8337 159.028 63.9344H165.804C166.05 63.8972 166.301 63.9181 166.537 63.9954C166.773 64.0728 166.987 64.2044 167.163 64.3797C167.338 64.555 167.47 64.769 167.547 65.0046C167.625 65.2401 167.646 65.4905 167.608 65.7356C167.645 66.1155 167.645 66.498 167.608 66.8778C167.468 67.488 167.292 68.0895 167.08 68.679L149.48 125.175C149.254 126.256 148.719 127.247 147.94 128.031C147.108 128.576 146.116 128.824 145.124 128.734H138.7C137.66 128.842 136.615 128.578 135.752 127.987C134.998 127.169 134.507 126.143 134.344 125.043L122.948 77.9925L111.684 124.999C111.522 126.099 111.031 127.125 110.276 127.943C109.414 128.534 108.369 128.798 107.328 128.69H101.036ZM195.02 130.623C191.229 130.629 187.45 130.201 183.756 129.349C180.819 128.758 177.976 127.768 175.308 126.405C174.506 126.066 173.823 125.497 173.345 124.769C172.867 124.042 172.616 123.189 172.624 122.32V118.629C172.624 117.106 173.182 116.345 174.296 116.345C174.763 116.352 175.225 116.441 175.66 116.608L177.508 117.355C180.091 118.496 182.791 119.351 185.56 119.903C188.456 120.497 191.405 120.792 194.36 120.782C198.082 121.002 201.789 120.164 205.052 118.366C206.243 117.659 207.223 116.646 207.888 115.433C208.554 114.22 208.881 112.851 208.836 111.468C208.862 110.53 208.699 109.597 208.359 108.722C208.02 107.847 207.509 107.048 206.856 106.372C204.636 104.514 202.016 103.191 199.2 102.506L188.596 99.1676C184.131 97.9288 180.154 95.3529 177.2 91.7871C174.842 88.7594 173.557 85.0352 173.548 81.1995C173.487 78.3644 174.17 75.5625 175.528 73.0722C176.843 70.7296 178.625 68.6812 180.764 67.0536C183.007 65.3509 185.542 64.0706 188.244 63.2754C191.233 62.4144 194.33 61.9853 197.44 62.0014C199.088 62 200.734 62.1027 202.368 62.3089C204.04 62.514 205.624 62.7922 207.12 63.1436C208.616 63.4951 210.01 63.8758 211.3 64.2859C212.363 64.6186 213.394 65.0449 214.38 65.5599C215.214 66.0084 215.947 66.6212 216.536 67.3611C217.002 68.0789 217.232 68.9231 217.196 69.7773V73.2479C217.196 74.7709 216.639 75.5324 215.524 75.5324C214.538 75.4224 213.582 75.1241 212.708 74.6537C208.269 72.7281 203.469 71.7696 198.628 71.8421C195.262 71.6674 191.908 72.3794 188.904 73.9069C187.779 74.5632 186.858 75.5185 186.245 76.6665C185.631 77.8144 185.348 79.11 185.428 80.4088C185.407 81.3751 185.587 82.3354 185.958 83.228C186.33 84.1207 186.883 84.9261 187.584 85.5927C189.956 87.4868 192.699 88.8636 195.636 89.6344L206.02 92.7536C210.418 93.8947 214.362 96.3466 217.328 99.7826C219.655 102.797 220.867 106.522 220.76 110.326C220.799 113.266 220.136 116.173 218.824 118.805C217.543 121.32 215.726 123.524 213.5 125.263C211.075 127.134 208.311 128.521 205.36 129.349C201.993 130.267 198.511 130.697 195.02 130.623Z" fill="black"/>
<path fill-rule="evenodd" clip-rule="evenodd" d="M208.836 166.603C184.768 184.351 149.832 193.797 120 193.797C79.7509 194.061 40.8583 179.284 10.9682 152.369C8.72421 150.348 10.7042 147.581 13.4322 149.118C46.5903 168.056 84.1325 178.006 122.332 177.981C150.859 177.828 179.076 172.051 205.36 160.98C209.408 159.266 212.84 163.66 208.836 166.603Z" fill="#FF9900"/>
<path fill-rule="evenodd" clip-rule="evenodd" d="M218.868 155.178C215.788 151.224 198.496 153.333 190.752 154.255C188.42 154.519 188.024 152.498 190.136 151.004C203.908 141.339 226.524 144.107 229.12 147.358C231.716 150.609 228.416 173.234 215.524 184.041C213.544 185.71 211.652 184.832 212.532 182.635C215.436 175.342 221.948 159.132 218.868 155.178Z" fill="#FF9900"/>
</g>
<defs>
<clipPath id="clip0_3132_3886">
<rect width="220" height="131.795" fill="white" transform="translate(10 62)"/>
</clipPath>
</defs>
</svg>
