<svg width="240" height="240" viewBox="0 0 240 240" fill="none" xmlns="http://www.w3.org/2000/svg">
<path d="M71.7384 189.655L61 69.6211H179L168.25 189.636L119.928 202.986L71.7384 189.655Z" fill="white"/>
<path d="M120 123.953H100.452L99.102 108.878H120V94.1562H82.9576L83.3112 98.1059L86.942 138.675H120V123.953ZM120 162.187L119.935 162.204L103.483 157.777L102.431 146.036H87.6021L89.6717 169.151L119.932 177.522L120 177.504V162.187Z" fill="black"/>
<path d="M71.9785 37H79.4857V44.3915H86.3529V37H93.8604V59.3834H86.3532V51.8881H79.486V59.3834H71.9792V37H71.9785ZM103.732 44.4227H97.1239V37H117.852V44.4227H111.241V59.3834H103.733L103.732 44.4227ZM121.142 37H128.97L133.785 44.8648L138.595 37H146.426V59.3834H138.95V48.2889L133.785 56.2475H133.656L128.487 48.2889V59.3834H121.142V37H121.142ZM150.162 37H157.672V51.9847H168.229V59.3834H150.162V37Z" fill="white"/>
<path d="M119.949 123.953V138.675H138.139L136.425 157.768L119.949 162.199V177.515L150.233 169.151L150.455 166.664L153.927 127.906L154.287 123.953H150.306H119.949ZM119.949 94.1562V108.878H155.631L155.928 105.569L156.601 98.1059L156.954 94.1562H119.949Z" fill="black"/>
</svg>
