<svg width="250" height="240" viewBox="0 0 250 240" fill="none" xmlns="http://www.w3.org/2000/svg">
<rect x="10" width="240" height="240" rx="36" fill="#F8F8F8"/>
<path d="M196.464 103.552L179.678 40L117.138 57.0391L107.892 73.6301L89.169 73.4983L43.5359 120.015L89.2551 166.524L108.008 166.379L117.263 182.97L179.673 200L196.404 136.457L186.952 120.002L196.464 103.552ZM157.296 63.8056L129.878 112.155H75.0426L109.562 76.3015L157.296 63.8056ZM129.878 127.955L157.296 176.3L109.519 163.769L74.9996 127.968H129.835L129.878 127.955ZM143.221 120.103L170.691 71.6705L183.947 120.02L170.691 168.351L143.221 120.103Z" fill="#222C37"/>
</svg>
