<svg width="240" height="240" viewBox="0 0 240 240" fill="none" xmlns="http://www.w3.org/2000/svg">
<path d="M120.71 148.5H83.5096L75.9096 172C75.8246 172.429 75.5826 172.81 75.2311 173.069C74.8795 173.328 74.4438 173.446 74.0096 173.4H55.2096C54.1096 173.4 53.8096 172.8 54.1096 171.6L86.3096 78.9004C86.6096 77.9004 86.9096 76.8004 87.3096 75.6004C87.712 73.4572 87.9129 71.281 87.9096 69.1004C87.8796 68.8499 87.9454 68.5974 88.0937 68.3934C88.2421 68.1894 88.4621 68.0491 88.7096 68.0004H114.61C115.41 68.0004 115.81 68.3004 115.91 68.8004L152.41 171.8C152.71 172.9 152.41 173.4 151.41 173.4H130.51C130.156 173.434 129.802 173.343 129.509 173.142C129.217 172.94 129.004 172.643 128.91 172.3L120.71 148.5ZM89.3096 128.2H114.71C114.11 126.1 113.31 123.6 112.41 121C111.51 118.4 110.61 115.4 109.71 112.4C108.81 109.4 107.81 106.3 106.81 103.2C105.81 100.1 104.91 97.2004 104.11 94.3004C103.31 91.4004 102.61 88.9004 101.91 86.5004H101.71C100.811 90.8588 99.6758 95.1652 98.3096 99.4004C96.8096 104.2 95.3096 109.2 93.7096 114.2C92.3096 119.3 90.8096 124 89.3096 128.2ZM174.21 85.1004C172.568 85.1363 170.936 84.8454 169.408 84.2445C167.88 83.6436 166.487 82.7448 165.31 81.6004C163.018 79.0953 161.798 75.7934 161.91 72.4004C161.85 70.7472 162.141 69.1002 162.761 67.5667C163.381 66.0331 164.318 64.6476 165.51 63.5004C167.913 61.2286 171.102 59.9744 174.41 60.0004C178.31 60.0004 181.31 61.2004 183.51 63.5004C185.725 65.9251 186.909 69.1175 186.81 72.4004C186.871 74.09 186.592 75.7746 185.991 77.3548C185.39 78.935 184.478 80.3786 183.31 81.6004C182.131 82.8006 180.709 83.7341 179.139 84.3379C177.57 84.9417 175.888 85.2017 174.21 85.1004ZM163.01 171.9V94.9004C163.01 93.9004 163.41 93.5004 164.31 93.5004H184.11C185.01 93.5004 185.41 94.0004 185.41 94.9004V171.9C185.41 173 185.01 173.5 184.11 173.5H164.51C164.299 173.518 164.088 173.487 163.891 173.412C163.694 173.336 163.517 173.216 163.373 173.063C163.229 172.909 163.121 172.724 163.058 172.523C162.995 172.322 162.979 172.109 163.01 171.9Z" fill="white"/>
</svg>
