<svg width="240" height="240" viewBox="0 0 240 240" fill="none" xmlns="http://www.w3.org/2000/svg">
<path d="M107.81 48H132.322V160.347C119.766 162.722 110.523 163.656 100.522 163.656C70.5842 163.625 55 150.25 55 124.563C55 99.8126 71.5306 83.7499 97.1468 83.7499C101.122 83.7499 104.15 84.0628 107.81 84.9999V48ZM108.669 105.246C105.798 104.309 103.432 103.996 100.403 103.996C88.0055 103.996 80.8444 111.558 80.8444 124.811C80.8444 137.715 87.6904 144.84 100.246 144.84C102.959 144.84 105.167 144.687 108.669 144.218V105.246Z" fill="black"/>
<path d="M172.406 86.7662V143.017C172.406 162.388 170.955 171.704 166.696 179.736C162.72 187.457 157.484 192.326 146.663 197.704L123.918 186.985C134.739 181.957 139.975 177.513 143.319 170.732C146.821 163.798 147.925 155.766 147.925 134.641V86.7666L172.406 86.7662ZM145.455 48H169.967V72.9063H145.455V48Z" fill="black"/>
</svg>
