<svg width="240" height="240" viewBox="0 0 240 240" fill="none" xmlns="http://www.w3.org/2000/svg">
<rect width="240" height="240" rx="36" fill="#F8F8F8"/>
<path d="M181.422 55.8212C179.312 60.8595 176.636 65.644 173.412 70.0379C159.307 55.9383 140.161 48.0098 120.215 48.0098C78.9541 48.0098 45 81.9894 45 123.292C45 143.895 53.4397 163.619 68.3655 177.835L71.1396 180.296C84.6978 191.72 101.87 198.008 119.59 198.008C158.819 198.008 191.796 167.27 194.59 128.096C196.641 108.919 191.015 84.6648 181.422 55.8212ZM79.0518 178.265C77.8406 179.769 75.9846 180.647 74.0505 180.647C70.5145 180.647 67.6231 177.738 67.6231 174.203C67.6231 170.668 70.534 167.759 74.0505 167.759C75.5158 167.759 76.9614 168.266 78.0946 169.204C80.8492 171.43 81.279 175.511 79.0518 178.265ZM181.11 155.729C162.55 180.472 122.911 172.133 97.4941 173.324C97.4941 173.324 92.9812 173.598 88.4488 174.34C88.4488 174.34 90.1485 173.617 92.3561 172.778C110.193 166.567 118.632 165.357 129.475 159.791C149.891 149.402 170.072 126.671 174.272 103.022C166.496 125.772 142.936 145.32 121.465 153.269C106.754 158.697 80.1849 163.97 80.1849 163.97L79.1104 163.404C61.0198 154.596 60.4728 115.403 93.3524 102.748C107.751 97.2021 121.524 100.249 137.075 96.5381C153.681 92.5934 172.885 80.1342 180.699 63.8865C189.452 89.8789 199.982 130.576 181.11 155.729Z" fill="#77BC1F"/>
</svg>
