<svg width="240" height="240" viewBox="0 0 240 240" fill="none" xmlns="http://www.w3.org/2000/svg">
<path fill-rule="evenodd" clip-rule="evenodd" d="M135.495 33.0415C134.229 33.0415 133.046 33.3114 131.967 33.6642C134.281 35.221 135.547 37.2448 136.191 39.5591C136.232 39.8705 136.326 40.0988 136.367 40.4205C136.409 40.7423 136.471 40.9602 136.471 41.2508C136.658 45.2465 135.433 45.7446 134.561 48.1005C133.243 51.1414 133.606 54.4106 135.184 57.0259C135.328 57.376 135.509 57.71 135.724 58.0222C134.001 46.5438 143.58 44.8106 145.344 41.23C145.479 38.0958 142.895 36.0097 140.851 34.5568C138.899 33.3736 137.114 33 135.495 33V33.0415ZM149.921 35.6361C149.734 36.6739 149.88 36.4041 149.817 36.9542L149.714 38.1373L149.402 39.227C149.299 39.5903 149.174 39.9535 149.039 40.3167L148.541 41.3546C148.406 41.5414 148.313 41.7178 148.178 41.8943L147.908 42.3094L147.223 43.2123C146.953 43.4821 146.725 43.8039 146.393 44.0426C146.061 44.2813 145.853 44.5823 145.531 44.8106C144.576 45.5371 143.487 46.0767 142.49 46.7617C142.179 46.99 141.868 47.1768 141.587 47.4467C141.28 47.664 140.992 47.907 140.726 48.1732C140.415 48.443 140.186 48.7128 139.896 49.0346C139.605 49.3563 139.398 49.6261 139.211 49.9375L138.588 50.8923L138.09 51.9301L137.727 52.968L137.415 54.1096C137.374 54.2964 137.374 54.5247 137.312 54.7012C137.249 54.8776 137.27 55.0644 137.208 55.2408L137.166 56.3825C137.166 56.6523 137.166 56.9221 137.208 57.2127C137.208 57.576 137.249 57.9392 137.343 58.3543C137.436 58.7695 137.478 59.0808 137.571 59.4441L137.934 60.5338C138.038 60.7621 138.163 60.9905 138.246 61.1565L127.805 57.1089L122.543 55.7598L119.679 55.0748C116.947 54.5303 114.19 54.1216 111.418 53.8501C111.314 53.8501 111.283 53.8086 111.189 53.8086L103.063 53.3935L97.1162 53.6218C94.3451 53.8086 91.5741 54.1615 88.8135 54.6181L86.7689 54.9814L82.6799 55.8843L80.6353 56.424L78.6842 57.2854L77.1897 57.9703C77.0859 58.0119 77.0029 58.0119 76.9614 58.0741L75.6952 58.6968C75.5603 58.7383 75.4669 58.8006 75.3839 58.8317L73.9724 59.5582C73.6611 59.6932 73.3497 59.8696 73.0695 60.0149C72.9346 60.1187 72.7581 60.1913 72.6544 60.2432L71.4712 60.9282C71.0954 61.1358 70.7316 61.3645 70.3815 61.6132L69.4786 62.2359L68.4823 62.9623L67.7143 63.585C67.6105 63.6266 67.5274 63.72 67.4444 63.7719L66.7594 64.3634C66.7179 64.4672 66.6245 64.4983 66.5726 64.5502L65.7424 65.3182L64.8395 66.1796L64.0715 67.0099C63.9677 67.1137 63.8431 67.1967 63.7601 67.2797C63.5163 67.5642 63.26 67.8377 62.9921 68.0996C62.9506 68.2034 62.8572 68.2345 62.8053 68.328L61.7675 69.4177L59.3182 71.7736C58.4879 72.5001 57.6369 73.185 56.7755 73.7662L54.0563 75.489C53.1534 75.9872 52.1882 76.4438 51.1919 76.8382C50.2275 77.2485 49.2438 77.6122 48.2444 77.9279C46.3348 78.3431 44.3837 79.1111 42.7024 79.246C42.3392 79.246 41.9344 79.3498 41.5608 79.3809L40.4192 79.6508L39.3294 80.0659C38.9579 80.2131 38.5941 80.3794 38.2397 80.564C37.9284 80.7924 37.5547 80.9792 37.2434 81.1868C36.932 81.3943 36.6207 81.6849 36.3405 81.9547C36.0602 82.2246 35.7178 82.4944 35.4375 82.785L34.6695 83.6879C34.4412 84.0512 34.1714 84.3729 33.9846 84.7258C33.747 85.0585 33.5354 85.4089 33.3515 85.774L32.8533 86.9571L32.4382 88.1403L32.2099 89.23C32.075 89.7697 32.075 90.3197 32.0231 90.5792C31.9712 90.8386 32.0231 91.1811 32.0231 91.5028C32.0142 91.701 32.0282 91.8995 32.0646 92.0944C32.1061 92.4058 32.1684 92.686 32.2514 92.9558L32.5627 93.7861C32.6977 94.0974 32.8741 94.3777 33.0609 94.6475L33.6525 95.4778L34.4205 96.2042C34.6865 96.4704 34.9747 96.7134 35.2819 96.9307C36.3716 97.8855 36.6311 98.1969 38.0529 98.9234C38.2812 99.0583 38.5095 99.1517 38.7794 99.2866C38.9143 99.4215 38.9143 99.463 38.9662 99.5565C39.0077 99.9197 39.1011 100.283 39.1945 100.646C39.2812 101.02 39.4028 101.385 39.5578 101.736L39.921 102.566C39.9625 102.67 40.0248 102.753 40.0559 102.795L40.5956 103.791L41.2806 104.746L42.0486 105.607C42.3184 105.877 42.5882 106.105 42.91 106.375L43.8129 107.06C44.1242 107.288 44.4356 107.475 44.8092 107.652C45.145 107.845 45.4955 108.012 45.8574 108.15C46.1273 108.285 46.449 108.378 46.7603 108.461C47.0717 108.544 47.3519 108.648 47.5283 108.689C47.3934 111.139 47.3415 113.463 47.7151 114.273C48.1303 115.176 50.1229 112.405 52.1156 109.239C51.8457 112.374 51.6589 116.048 52.1156 117.127C52.5722 118.206 55.3329 114.719 57.6991 110.817C89.8721 103.376 119.243 125.617 122.325 157.021C121.734 152.123 115.704 149.393 112.933 150.068C111.584 153.431 109.259 157.748 105.533 160.415C105.844 157.405 105.709 154.333 105.076 151.334C104.061 155.512 102.141 159.416 99.4513 162.771C95.1443 163.082 90.8373 161.007 88.554 157.872C88.3672 157.738 88.3257 157.457 88.1908 157.281L87.8275 156.326C87.6926 156.015 87.5992 155.703 87.5577 155.371C87.5162 155.039 87.5162 154.749 87.5162 154.375V153.69C87.5577 153.379 87.6511 153.067 87.7445 152.735L88.0559 151.78C88.2427 151.469 88.3672 151.158 88.5955 150.826C89.3635 148.75 89.3635 146.882 87.9728 145.844C87.703 145.657 87.4332 145.533 87.1114 145.387C86.9246 145.346 86.6963 145.252 86.5199 145.2L86.1566 145.066L85.2018 144.837C84.8915 144.747 84.57 144.702 84.247 144.702C83.9174 144.649 83.5845 144.617 83.2507 144.609C83.0223 144.609 82.794 144.65 82.5657 144.65C82.2288 144.648 81.8933 144.693 81.5694 144.785L80.6146 144.962L79.6598 145.273L78.7568 145.688L77.8954 146.145C67.3095 153.047 73.6403 169.185 80.8429 173.876C78.1238 174.374 75.3424 174.966 74.5847 175.557C76.4528 176.823 78.487 177.84 80.6249 178.691L87.9728 180.767C91.7402 181.597 95.549 181.857 99.4098 181.629C109.217 180.91 118.485 176.866 125.681 170.165C132.876 163.463 137.569 154.506 138.982 144.775L139.252 145.958L139.667 148.501L139.854 149.725L139.958 151.075L140.062 152.569V153.296C140.062 153.524 140.103 153.794 140.103 154.022C140.103 154.25 140.062 154.562 140.062 154.852V155.475C140.062 155.786 140.02 156.067 140.02 156.378C140.02 156.554 140.02 156.741 139.979 156.97L139.937 157.966C139.896 158.101 139.896 158.236 139.896 158.381L139.761 159.419C139.761 159.554 139.761 159.689 139.719 159.834L139.543 161.152V161.256L139.273 162.522L139.003 163.871L138.64 165.283L138.277 166.694L137.82 168.147L136.824 170.783L136.284 172.101L135.661 173.367C135.62 173.502 135.558 173.596 135.526 173.679C132.486 179.76 128.127 184.991 122.678 189.059C122.315 189.288 121.952 189.558 121.588 189.827C121.485 189.931 121.36 189.962 121.277 190.056L120.281 190.741L120.416 191.011H120.457L122.367 190.741H122.408L125.937 190.118C126.248 190.077 126.622 189.983 126.933 189.89L127.556 189.755L128.511 189.578L129.341 189.35C133.876 188.26 138.266 186.755 142.501 184.991C135.288 194.851 125.615 202.78 114.313 208C119.533 207.637 124.754 206.775 129.777 205.322C148.064 199.926 163.455 187.627 172.671 171.053C170.802 181.561 166.634 191.527 160.466 200.237C164.866 197.331 168.903 193.979 172.588 190.17C182.746 179.563 189.413 166.102 191.694 151.594C193.251 158.755 193.687 166.165 193.012 173.471C225.777 127.765 195.731 80.3772 183.153 67.9024C183.111 67.7987 183.049 67.7675 183.049 67.6741C182.945 68.2138 182.914 68.7638 182.873 69.3035C182.738 70.3414 182.603 71.3481 182.416 72.3444C182.229 73.3407 181.918 74.337 181.648 75.3541C181.378 76.3712 180.963 77.3052 180.558 78.26C180.153 79.2149 179.697 80.1282 179.209 81.0311C178.709 81.9188 178.165 82.7813 177.58 83.6153C176.988 84.4767 176.355 85.2966 175.712 86.0646C175.034 86.8546 174.321 87.613 173.574 88.3374C173.117 88.7526 172.712 89.1054 172.256 89.4791L171.218 90.382C170.407 91.0249 169.558 91.6176 168.675 92.1567C167.808 92.7157 166.915 93.2318 165.997 93.7031C165.043 94.1597 164.088 94.5645 163.133 94.9692C162.166 95.3349 161.183 95.6536 160.185 95.924C159.189 96.1939 158.141 96.4222 157.145 96.609C156.148 96.7958 155.069 96.8788 154.062 96.9722C153.336 97.0138 152.609 97.076 151.987 97.076C150.949 97.076 149.911 96.9722 148.904 96.8892C147.898 96.8062 146.829 96.6609 145.811 96.4326C144.781 96.2462 143.765 95.9896 142.771 95.6646H142.729C143.725 95.5608 144.722 95.4778 145.739 95.3013C146.756 95.1249 147.783 94.8862 148.78 94.6164C149.776 94.3465 150.772 94.0248 151.727 93.6615C152.682 93.2983 153.678 92.8313 154.592 92.3954C155.522 91.9418 156.429 91.4431 157.311 90.9009C158.172 90.3093 159.033 89.7178 159.853 89.0847C160.667 88.4519 161.44 87.7691 162.168 87.0402C162.936 86.3552 163.621 85.5872 164.306 84.8192C164.991 84.0512 165.624 83.1898 166.215 82.3699C166.319 82.235 166.402 82.0585 166.485 81.9132L167.803 79.8376C168.301 78.9346 168.758 78.0213 169.152 77.0665C169.547 76.1117 169.92 75.1569 170.242 74.1606C170.564 73.1643 170.782 72.2095 171.01 71.2131C171.238 70.2168 171.373 69.1686 171.467 68.1723C171.56 67.176 171.643 66.0966 171.643 65.0899C171.643 64.3634 171.602 63.6369 171.539 63.0142C171.436 61.9764 171.311 60.9697 171.176 59.9734C170.996 58.9496 170.767 57.9348 170.491 56.9325C170.18 55.9777 169.869 54.9814 169.495 54.0266C169.121 53.0718 168.665 52.1169 168.229 51.2244C167.793 50.3319 167.232 49.4082 166.672 48.5468C166.112 47.6854 165.489 46.8655 164.856 46.056L162.78 43.7416C162.397 43.3532 162.002 42.976 161.597 42.6104C159.563 41.0298 157.458 39.5441 155.287 38.158C154.976 37.9816 154.695 37.8467 154.384 37.7014C152.89 36.7466 151.478 36.2484 150.077 35.7918L149.921 35.6361Z" fill="black"/>
</svg>
