<svg width="240" height="240" viewBox="0 0 240 240" fill="none" xmlns="http://www.w3.org/2000/svg">
<path fill-rule="evenodd" clip-rule="evenodd" d="M120 33.5C96.7936 33.5 74.5376 42.7187 58.1282 59.1282C52.9699 64.2864 48.5222 70.0224 44.848 76.1839C44.6171 76.514 44.4004 76.855 44.1989 77.2061C44.0128 77.5304 43.8407 77.8615 43.6828 78.1985C36.4147 91.1589 32.5 105.878 32.5 121C32.5 138.306 37.6318 155.223 47.2464 169.612C56.861 184.002 70.5267 195.217 86.5152 201.839C102.504 208.462 120.097 210.195 137.07 206.819C154.044 203.443 169.635 195.109 181.872 182.872C194.109 170.635 202.443 155.044 205.819 138.07C209.195 121.097 207.462 103.504 200.839 87.5152C199.505 84.2935 197.984 81.166 196.288 78.1471C196.135 77.8232 195.968 77.5049 195.788 77.1929C195.6 76.8664 195.399 76.5486 195.185 76.2403C188.549 65.0925 179.487 55.5126 168.612 48.2464C154.225 38.6331 137.31 33.5014 120.007 33.5C122.359 33.5012 124.674 34.0935 126.738 35.2226L190.863 72.2476C192.583 73.2475 194.057 74.6122 195.185 76.2403C195.561 76.8709 195.928 77.5066 196.288 78.1471C197.144 79.952 197.592 81.9285 197.594 83.9351V157.973C197.59 160.341 196.967 162.666 195.786 164.719C194.605 166.772 192.908 168.479 190.863 169.673L126.738 206.698C124.689 207.88 122.365 208.5 120 208.498C117.639 208.498 115.32 207.878 113.275 206.698L91.875 194.029C88.6813 192.241 90.2375 191.61 91.2938 191.241C94.6905 190.192 97.9428 188.722 100.975 186.866C101.229 186.749 101.508 186.698 101.787 186.719C102.066 186.74 102.335 186.831 102.569 186.985L119.013 196.754C119.319 196.916 119.66 197.001 120.006 197.001C120.353 197.001 120.694 196.916 121 196.754L185.125 159.741C185.425 159.562 185.673 159.307 185.845 159.002C186.017 158.698 186.107 158.354 186.106 158.004V83.9663C186.107 83.611 186.015 83.2616 185.841 82.9518C185.667 82.642 185.416 82.3822 185.113 82.1976L120.988 45.2163C120.685 45.046 120.344 44.9566 119.997 44.9566C119.65 44.9566 119.309 45.046 119.006 45.2163L54.9188 82.2101C54.6131 82.3909 54.3593 82.6475 54.1819 82.9552C54.0045 83.2629 53.9096 83.6112 53.9063 83.9663V157.973C53.9072 158.322 54.0008 158.664 54.1776 158.965C54.3544 159.266 54.6081 159.514 54.9125 159.685L72.5 169.835C82.0313 174.598 87.8688 168.985 87.8688 163.348V90.2788C87.8688 89.7815 88.0663 89.3046 88.418 88.953C88.7696 88.6014 89.2465 88.4038 89.7438 88.4038H97.8688C98.3661 88.4038 98.843 88.6014 99.1946 88.953C99.5462 89.3046 99.7438 89.7815 99.7438 90.2788V163.354C99.7438 176.073 92.8188 183.354 80.7563 183.354C75.5524 183.444 70.4301 182.053 65.9875 179.341L49.1313 169.673C47.085 168.481 45.387 166.773 44.207 164.72C43.0269 162.667 42.406 160.341 42.4063 157.973V83.9663C42.4012 81.9685 42.8391 79.9993 43.6828 78.1985C44.0621 77.5221 44.4505 76.8506 44.848 76.1839C45.9703 74.5804 47.4305 73.2356 49.1313 72.2476L113.263 35.2226C115.328 34.0924 117.645 33.5 120 33.5ZM173.769 134.916C173.769 148.891 162.119 156.891 141.8 156.891H141.781C113.719 156.891 107.838 144.01 107.819 133.241C107.819 132.744 108.016 132.267 108.368 131.916C108.72 131.564 109.197 131.366 109.694 131.366H117.994C118.437 131.368 118.865 131.526 119.203 131.813C119.54 132.1 119.765 132.498 119.838 132.935C121.088 141.373 124.825 145.635 141.794 145.635C155.306 145.635 161.056 142.579 161.056 135.41C161.056 131.279 159.425 128.21 138.431 126.154C120.881 124.416 110.031 120.541 110.031 106.504C110.031 93.5663 120.938 85.8476 139.219 85.8476C159.769 85.8476 169.931 92.9788 171.219 108.279C171.238 108.534 171.206 108.791 171.122 109.033C171.039 109.275 170.907 109.498 170.734 109.687C170.561 109.876 170.351 110.028 170.118 110.133C169.884 110.238 169.631 110.294 169.375 110.298H161.025C160.606 110.292 160.201 110.146 159.875 109.883C159.549 109.62 159.32 109.256 159.225 108.848C157.256 99.9663 152.4 97.1288 139.225 97.1288C124.475 97.1288 122.763 102.266 122.763 106.116C122.763 110.779 124.788 112.135 144.7 114.773C164.394 117.373 173.769 121.066 173.769 134.916Z" fill="black"/>
</svg>
