<svg width="240" height="240" viewBox="0 0 240 240" fill="none" xmlns="http://www.w3.org/2000/svg">
<path d="M86.9912 47.3138V58.6276H105.05V51.0851H94.5323V43.5425H105.05V36H86.9912V47.3138ZM108.642 43.3639L108.672 50.7377L113.911 50.7675L119.14 50.7873V52.0775H108.622V58.9253H126.681V43.8403H116.163V42.5501H126.681V36H108.622L108.642 43.3639ZM130.352 43.3937V50.7873H140.771V52.0775H130.352V58.9253H148.312V43.8403H137.893V42.5501H148.312V36H130.352V43.3937ZM59.0496 69.3658C59.0794 69.5444 61.5203 96.8663 64.4772 130.083C67.4341 163.3 69.8552 190.483 69.8651 190.493C69.875 190.503 80.7996 193.55 94.1553 197.251L118.436 204L142.775 197.251C156.161 193.54 167.125 190.493 167.125 190.483C167.135 190.483 169.556 163.32 172.513 130.133C175.47 96.9457 177.911 69.6238 177.94 69.4154L178 69.0482H59L59.0496 69.3658ZM155.754 94.0775C155.754 94.2958 155.049 102.225 150.902 148.681C149.87 160.243 148.987 169.741 148.937 169.781C148.828 169.88 118.703 178.216 118.465 178.216C118.277 178.216 88.0033 169.84 87.9339 169.761C87.914 169.741 87.4477 164.66 86.9019 158.467C86.3463 152.274 85.8799 147.014 85.8402 146.776L85.7906 146.359H93.2821C97.4098 146.359 100.783 146.369 100.793 146.379C100.793 146.399 101.032 149.059 101.329 152.294C101.617 155.539 101.875 158.199 101.895 158.219C101.915 158.239 105.636 159.261 110.18 160.482L118.426 162.715L126.691 160.482C131.245 159.251 134.986 158.229 135.006 158.219C135.046 158.169 136.693 139.789 136.703 139.283V138.916H85.106V138.668C85.106 138.529 84.8182 135.184 84.461 131.244C84.1038 127.304 83.8161 124.069 83.8161 124.049C83.8161 124.039 96.0306 124.029 110.954 124.029H138.092V123.781C138.092 123.652 138.38 120.278 138.737 116.308C139.094 112.328 139.382 108.994 139.382 108.905C139.382 108.756 137.189 108.746 110.934 108.726L82.4765 108.696L81.8713 101.948C81.5339 98.2358 81.2263 94.9012 81.1866 94.5241L81.1271 93.8592H155.754V94.0775Z" fill="black"/>
<path d="M155.754 94.0775C155.754 94.2958 155.049 102.225 150.902 148.681C149.87 160.243 148.987 169.741 148.937 169.781C148.828 169.88 118.703 178.216 118.465 178.216C118.277 178.216 88.0033 169.84 87.9339 169.761C87.914 169.741 87.4477 164.66 86.9019 158.467C86.3463 152.274 85.8799 147.014 85.8402 146.776L85.7906 146.359H93.2821C97.4098 146.359 100.783 146.369 100.793 146.379C100.793 146.399 101.032 149.059 101.329 152.294C101.617 155.539 101.875 158.199 101.895 158.219C101.915 158.239 105.636 159.261 110.18 160.482L118.426 162.715L126.691 160.482C131.245 159.251 134.986 158.229 135.006 158.219C135.046 158.169 136.693 139.789 136.703 139.283V138.916H85.106V138.668C85.106 138.529 84.8182 135.184 84.461 131.244C84.1038 127.304 83.8161 124.069 83.8161 124.049C83.8161 124.039 96.0306 124.029 110.954 124.029H138.092V123.781C138.092 123.652 138.38 120.278 138.737 116.308C139.094 112.328 139.382 108.994 139.382 108.905C139.382 108.756 137.189 108.746 110.934 108.726L82.4765 108.696L81.8713 101.948C81.5339 98.2358 81.2263 94.9012 81.1866 94.5241L81.1271 93.8592H155.754V94.0775Z" fill="white"/>
</svg>
