<svg width="240" height="240" viewBox="0 0 240 240" fill="none" xmlns="http://www.w3.org/2000/svg">
<path d="M126.237 76.1051L96.2367 125.069L128.242 177.002C128.44 177.397 128.543 177.793 128.44 178.188C128.337 178.585 127.942 178.288 127.342 178.387H104.44C102.837 178.387 101.739 178.288 101.037 177.298C98.9366 173.144 96.7423 169.088 94.6423 164.934C92.5423 160.878 90.2368 156.724 87.8368 152.47C85.4368 148.217 83.0369 143.963 80.6369 139.611H80.4396C78.3396 143.864 76.0424 148.118 73.7367 152.371C71.4395 156.625 69.1424 160.878 66.9395 165.032C64.6424 169.187 62.3367 173.441 60.0396 177.496C59.6367 178.485 58.8395 178.585 57.7424 178.585H35.7395C35.3367 178.585 35.0367 178.782 35.0367 178.288C34.9424 177.892 35.0367 177.496 35.2424 177.2L66.3395 126.752L36.0396 76.0057C35.7396 75.6104 35.6367 75.2151 35.8425 75.017C36.0396 74.7203 36.4424 74.6209 36.8367 74.6209H59.5423C60.0395 74.6209 60.5368 74.7203 60.9397 74.8189C61.3425 75.017 61.6423 75.3137 61.9423 75.709C63.8366 79.9629 66.0395 84.2159 68.3366 88.4698C70.7366 92.7229 73.0426 96.8782 75.5368 101.033C77.9368 105.187 80.1396 109.341 82.2396 113.595H82.4368C84.5368 109.243 86.7397 104.989 88.9425 100.835C91.1368 96.6801 93.4425 92.5257 95.7397 88.3712C98.0368 84.2159 100.24 79.9629 102.442 75.9071C102.537 75.5118 102.742 75.1156 103.042 74.9175C103.437 74.7203 103.84 74.6209 104.337 74.7203H125.44C125.937 74.6209 126.442 74.9175 126.537 75.4123C126.64 75.5118 126.442 75.9071 126.237 76.1051ZM172.437 180.464C165.04 180.563 157.643 179.079 150.94 176.012C144.64 173.144 139.437 168.396 135.837 162.559C132.142 156.525 130.342 149.008 130.342 140.006C130.24 132.686 132.142 125.465 135.837 119.135C139.642 112.704 145.137 107.363 151.737 103.802C158.74 99.9445 167.14 98.0649 177.04 98.0649C177.537 98.0649 178.24 98.0649 179.139 98.1635C180.039 98.263 181.042 98.263 182.242 98.3616V67.1034C182.242 66.4106 182.542 66.0153 183.237 66.0153H203.542C204.04 65.9167 204.442 66.312 204.537 66.7081V161.076C204.537 162.856 204.639 164.835 204.742 167.011C204.939 169.088 205.043 171.066 205.137 172.748C205.137 173.441 204.837 174.034 204.143 174.331C198.94 176.507 193.437 178.09 187.84 179.079C182.74 179.969 177.64 180.464 172.437 180.464ZM182.242 160.68V117.156C181.342 116.958 180.442 116.76 179.542 116.662C178.437 116.562 177.34 116.464 176.243 116.464C172.343 116.464 168.442 117.255 164.937 119.035C161.542 120.718 158.637 123.19 156.443 126.355C154.24 129.521 153.142 133.774 153.142 138.918C153.04 142.381 153.64 145.842 154.84 149.107C155.842 151.778 157.342 154.152 159.34 156.13C161.242 157.91 163.54 159.295 166.137 160.086C168.837 160.977 171.639 161.373 174.442 161.373C175.942 161.373 177.34 161.274 178.642 161.175C179.937 161.274 181.042 161.076 182.242 160.68Z" fill="black"/>
</svg>
