<svg width="240" height="240" viewBox="0 0 240 240" fill="none" xmlns="http://www.w3.org/2000/svg">
<g clip-path="url(#clip0_3132_3444)">
<path d="M71.996 109.667C71.9261 111.865 72.2083 114.06 72.832 116.169C73.4748 117.976 74.2696 119.724 75.208 121.397C75.5276 121.898 75.7097 122.473 75.736 123.066C75.6896 123.511 75.5377 123.938 75.2929 124.313C75.048 124.687 74.7172 124.998 74.328 125.219L69.928 128.294C69.3587 128.694 68.687 128.922 67.992 128.953C67.583 128.939 67.1811 128.842 66.8106 128.668C66.4401 128.494 66.1086 128.248 65.836 127.943C64.814 126.933 63.9267 125.796 63.196 124.56C62.4626 123.33 61.7146 121.866 60.952 120.167C58.3751 123.378 55.0965 125.958 51.3672 127.709C47.6379 129.461 43.5567 130.337 39.436 130.271C36.7749 130.417 34.1115 130.029 31.6028 129.131C29.094 128.234 26.7905 126.844 24.828 125.043C23.0099 123.197 21.5944 120.995 20.6706 118.575C19.7467 116.156 19.3345 113.571 19.46 110.985C19.3433 108.174 19.86 105.373 20.9718 102.788C22.0836 100.203 23.7622 97.8997 25.884 96.0484C30.9787 92.0426 37.3609 90.0279 43.836 90.3812C46.4276 90.3888 49.0154 90.5796 51.58 90.9524C54.2786 91.3331 57.08 91.8603 59.984 92.5339V87.1742C60.4113 82.974 59.1622 78.7749 56.508 75.4884C53.1122 72.8811 48.8455 71.6707 44.584 72.1057C41.9298 72.1191 39.2864 72.4435 36.708 73.0722C34.0247 73.7128 31.3922 74.5498 28.832 75.5763C28.0043 75.956 27.1517 76.279 26.28 76.5428H25.136C24.1093 76.5428 23.596 75.7813 23.596 74.2583V70.7877C23.5331 69.906 23.7158 69.0241 24.124 68.2397C24.6755 67.5644 25.386 67.0361 26.192 66.7021C29.1367 65.2936 32.2181 64.1895 35.388 63.4072C39.1106 62.4529 42.9407 61.9804 46.784 62.0014C53.6967 61.3897 60.5727 63.5203 65.924 67.9322C68.0995 70.3621 69.7592 73.2071 70.8028 76.2954C71.8465 79.3836 72.2523 82.651 71.996 85.9002V109.667ZM42.296 120.782C44.8763 120.744 47.4329 120.284 49.864 119.42C52.5438 118.493 54.9281 116.871 56.772 114.719C57.908 113.454 58.7494 111.954 59.236 110.326C59.7426 108.257 59.9792 106.13 59.94 104V100.925C57.7199 100.394 55.4726 99.983 53.208 99.6948C50.9315 99.404 48.639 99.2572 46.344 99.2554C42.4908 98.9669 38.655 100.006 35.476 102.199C34.3278 103.21 33.42 104.465 32.8186 105.871C32.2173 107.277 31.9376 108.799 32 110.326C31.896 111.73 32.0804 113.139 32.5419 114.469C33.0035 115.799 33.7324 117.02 34.684 118.058C35.7114 118.989 36.9124 119.709 38.2185 120.176C39.5246 120.644 40.9102 120.849 42.296 120.782ZM101.036 128.69C100.045 128.78 99.052 128.532 98.22 127.987C97.4411 127.203 96.9062 126.212 96.68 125.131L79.564 68.6351C79.2319 67.6824 79.0104 66.6948 78.904 65.6917C78.8667 65.4466 78.8876 65.1962 78.9651 64.9606C79.0425 64.7251 79.1744 64.511 79.3499 64.3358C79.5255 64.1605 79.7399 64.0288 79.9758 63.9515C80.2117 63.8741 80.4625 63.8532 80.708 63.8905H87.88C88.8859 63.7898 89.8958 64.038 90.74 64.5934C91.468 65.4005 91.969 66.3858 92.192 67.4489L104.468 115.774L115.864 67.4489C116.04 66.3826 116.548 65.3988 117.316 64.6373C118.198 64.0939 119.231 63.8475 120.264 63.9344H126.16C127.193 63.8475 128.226 64.0939 129.108 64.6373C129.868 65.4165 130.361 66.4163 130.516 67.4929L142 116.433L154.672 67.4929C154.906 66.4244 155.422 65.4383 156.168 64.6373C157.012 64.0819 158.022 63.8337 159.028 63.9344H165.804C166.049 63.8972 166.3 63.9181 166.536 63.9954C166.772 64.0728 166.986 64.2044 167.162 64.3797C167.338 64.555 167.469 64.769 167.547 65.0046C167.624 65.2401 167.645 65.4905 167.608 65.7356C167.645 66.1155 167.645 66.498 167.608 66.8778C167.467 67.488 167.291 68.0895 167.08 68.679L149.48 125.175C149.254 126.256 148.719 127.247 147.94 128.031C147.108 128.576 146.115 128.824 145.124 128.734H138.7C137.66 128.842 136.614 128.578 135.752 127.987C134.997 127.169 134.507 126.143 134.344 125.043L122.948 77.9925L111.684 124.999C111.521 126.099 111.031 127.125 110.276 127.943C109.413 128.534 108.368 128.798 107.328 128.69H101.036ZM195.02 130.623C191.229 130.629 187.45 130.201 183.756 129.349C180.818 128.758 177.976 127.768 175.308 126.405C174.506 126.066 173.822 125.497 173.345 124.769C172.867 124.042 172.616 123.189 172.624 122.32V118.629C172.624 117.106 173.181 116.345 174.296 116.345C174.763 116.352 175.224 116.441 175.66 116.608L177.508 117.355C180.091 118.496 182.791 119.351 185.56 119.903C188.455 120.497 191.404 120.792 194.36 120.782C198.081 121.002 201.789 120.164 205.052 118.366C206.243 117.659 207.222 116.646 207.888 115.433C208.553 114.22 208.881 112.851 208.836 111.468C208.861 110.53 208.699 109.597 208.359 108.722C208.019 107.847 207.508 107.048 206.856 106.372C204.635 104.514 202.015 103.191 199.2 102.506L188.596 99.1676C184.131 97.9288 180.153 95.3529 177.2 91.7871C174.841 88.7594 173.557 85.0352 173.548 81.1995C173.487 78.3644 174.169 75.5625 175.528 73.0722C176.843 70.7296 178.625 68.6812 180.764 67.0536C183.007 65.3509 185.541 64.0706 188.244 63.2754C191.233 62.4144 194.329 61.9853 197.44 62.0014C199.088 62 200.733 62.1027 202.368 62.3089C204.04 62.514 205.624 62.7922 207.12 63.1436C208.616 63.4951 210.009 63.8758 211.3 64.2859C212.362 64.6186 213.393 65.0449 214.38 65.5599C215.213 66.0084 215.947 66.6212 216.536 67.3611C217.001 68.0789 217.232 68.9231 217.196 69.7773V73.2479C217.196 74.7709 216.639 75.5324 215.524 75.5324C214.538 75.4224 213.582 75.1241 212.708 74.6537C208.268 72.7281 203.468 71.7696 198.628 71.8421C195.261 71.6674 191.908 72.3794 188.904 73.9069C187.779 74.5632 186.858 75.5185 186.244 76.6665C185.63 77.8144 185.348 79.11 185.428 80.4088C185.406 81.3751 185.587 82.3354 185.958 83.228C186.329 84.1207 186.883 84.9261 187.584 85.5927C189.956 87.4868 192.699 88.8636 195.636 89.6344L206.02 92.7536C210.417 93.8947 214.362 96.3466 217.328 99.7826C219.654 102.797 220.867 106.522 220.76 110.326C220.799 113.266 220.135 116.173 218.824 118.805C217.543 121.32 215.725 123.524 213.5 125.263C211.074 127.134 208.311 128.521 205.36 129.349C201.993 130.267 198.51 130.697 195.02 130.623Z" fill="white"/>
<path fill-rule="evenodd" clip-rule="evenodd" d="M208.836 166.603C184.768 184.351 149.832 193.797 120 193.797C79.7507 194.061 40.8581 179.284 10.968 152.369C8.72396 150.348 10.704 147.581 13.432 149.118C46.5901 168.056 84.1322 178.006 122.332 177.981C150.859 177.828 179.075 172.051 205.36 160.98C209.408 159.266 212.84 163.66 208.836 166.603Z" fill="#FF9900"/>
<path fill-rule="evenodd" clip-rule="evenodd" d="M218.868 155.178C215.788 151.224 198.496 153.333 190.752 154.255C188.42 154.519 188.024 152.498 190.136 151.004C203.908 141.339 226.524 144.107 229.12 147.358C231.716 150.609 228.416 173.234 215.524 184.041C213.544 185.71 211.652 184.832 212.532 182.635C215.436 175.342 221.948 159.132 218.868 155.178Z" fill="#FF9900"/>
</g>
<defs>
<clipPath id="clip0_3132_3444">
<rect width="220" height="131.795" fill="white" transform="translate(10 62)"/>
</clipPath>
</defs>
</svg>
