<svg width="240" height="240" viewBox="0 0 240 240" fill="none" xmlns="http://www.w3.org/2000/svg">
<path d="M69 68.6667C69 54.4987 80.5337 43 94.7449 43H120.49V94.3333H94.7449C80.5337 94.3333 69 82.8347 69 68.6667Z" fill="#F24E1E"/>
<path d="M69 119.999C69 105.831 80.5337 94.332 94.7449 94.332H120.49V145.665H94.7449C80.5337 145.665 69 134.167 69 119.999Z" fill="#A259FF"/>
<path d="M94.7449 197.001C108.956 197.001 120.49 185.503 120.49 171.335V145.668H94.7449C80.5337 145.668 69 157.167 69 171.335C69 185.503 80.5337 197.001 94.7449 197.001Z" fill="#0ACF83"/>
<path d="M120.49 43H146.235C160.446 43 171.98 54.4987 171.98 68.6667C171.98 82.8347 160.446 94.3333 146.235 94.3333H120.49V43Z" fill="#FF7262"/>
<path d="M171.98 120.003C171.98 134.171 160.446 145.669 146.235 145.669C132.024 145.669 120.49 134.171 120.49 120.003C120.49 105.835 132.024 94.3359 146.235 94.3359C160.446 94.3359 171.98 105.835 171.98 120.003Z" fill="#1ABCFE"/>
</svg>
