<svg width="240" height="240" viewBox="0 0 240 240" fill="none" xmlns="http://www.w3.org/2000/svg">
<rect width="240" height="240" rx="36" fill="#F8F8F8"/>
<path d="M69 68.6667C69 54.4987 80.5337 43 94.7449 43H120.49V94.3333H94.7449C80.5337 94.3333 69 82.8347 69 68.6667Z" fill="#F24E1E"/>
<path d="M69 120.001C69 105.833 80.5337 94.334 94.7449 94.334H120.49V145.667H94.7449C80.5337 145.667 69 134.169 69 120.001Z" fill="#A259FF"/>
<path d="M94.7449 196.999C108.956 196.999 120.49 185.501 120.49 171.333V145.666H94.7449C80.5337 145.666 69 157.165 69 171.333C69 185.501 80.5337 196.999 94.7449 196.999Z" fill="#0ACF83"/>
<path d="M120.49 43H146.235C160.446 43 171.98 54.4987 171.98 68.6667C171.98 82.8347 160.446 94.3333 146.235 94.3333H120.49V43Z" fill="#FF7262"/>
<path d="M171.98 120.001C171.98 134.169 160.446 145.667 146.235 145.667C132.024 145.667 120.49 134.169 120.49 120.001C120.49 105.833 132.024 94.334 146.235 94.334C160.446 94.334 171.98 105.833 171.98 120.001Z" fill="#1ABCFE"/>
</svg>
