<svg width="240" height="240" viewBox="0 0 240 240" fill="none" xmlns="http://www.w3.org/2000/svg">
<rect width="240" height="240" rx="36" fill="#F8F8F8"/>
<g clip-path="url(#clip0_1913_4452)">
<path d="M71.996 109.665C71.9261 111.863 72.2083 114.058 72.832 116.167C73.4748 117.974 74.2696 119.722 75.208 121.395C75.5276 121.896 75.7097 122.471 75.736 123.064C75.6896 123.509 75.5377 123.936 75.2929 124.311C75.048 124.685 74.7172 124.996 74.328 125.217L69.928 128.292C69.3587 128.692 68.687 128.92 67.992 128.951C67.583 128.937 67.1811 128.84 66.8106 128.666C66.4401 128.492 66.1086 128.246 65.836 127.941C64.814 126.931 63.9267 125.794 63.196 124.558C62.4626 123.328 61.7146 121.864 60.952 120.165C58.3751 123.376 55.0965 125.956 51.3672 127.708C47.6379 129.459 43.5567 130.335 39.436 130.269C36.7749 130.415 34.1115 130.027 31.6028 129.129C29.094 128.232 26.7905 126.842 24.828 125.041C23.0099 123.195 21.5944 120.993 20.6706 118.573C19.7467 116.154 19.3345 113.57 19.46 110.983C19.3433 108.172 19.86 105.371 20.9718 102.786C22.0836 100.201 23.7622 97.8977 25.884 96.0465C30.9787 92.0407 37.3609 90.0259 43.836 90.3793C46.4276 90.3868 49.0154 90.5777 51.58 90.9504C54.2786 91.3311 57.08 91.8583 59.984 92.5319V87.1723C60.4113 82.972 59.1622 78.773 56.508 75.4865C53.1122 72.8792 48.8455 71.6688 44.584 72.1037C41.9298 72.1172 39.2864 72.4416 36.708 73.0702C34.0247 73.7109 31.3922 74.5479 28.832 75.5743C28.0043 75.9541 27.1517 76.277 26.28 76.5408H25.136C24.1093 76.5408 23.596 75.7794 23.596 74.2564V70.7858C23.5331 69.9041 23.7158 69.0222 24.124 68.2378C24.6755 67.5625 25.386 67.0342 26.192 66.7002C29.1367 65.2916 32.2181 64.1876 35.388 63.4053C39.1106 62.4509 42.9407 61.9785 46.784 61.9995C53.6967 61.3878 60.5727 63.5184 65.924 67.9302C68.0995 70.3602 69.7592 73.2052 70.8028 76.2934C71.8465 79.3817 72.2523 82.649 71.996 85.8983V109.665ZM42.296 120.78C44.8763 120.742 47.4329 120.282 49.864 119.418C52.5438 118.491 54.9281 116.869 56.772 114.717C57.908 113.453 58.7494 111.952 59.236 110.324C59.7426 108.255 59.9792 106.128 59.94 103.998V100.923C57.7199 100.392 55.4726 99.981 53.208 99.6928C50.9315 99.402 48.639 99.2553 46.344 99.2535C42.4908 98.965 38.655 100.004 35.476 102.197C34.3278 103.208 33.42 104.463 32.8186 105.869C32.2173 107.275 31.9376 108.797 32 110.324C31.896 111.728 32.0804 113.137 32.5419 114.467C33.0035 115.797 33.7324 117.018 34.684 118.056C35.7114 118.987 36.9124 119.707 38.2185 120.174C39.5246 120.642 40.9102 120.848 42.296 120.78ZM101.036 128.688C100.045 128.778 99.052 128.53 98.22 127.985C97.4411 127.201 96.9062 126.21 96.68 125.129L79.564 68.6331C79.2319 67.6805 79.0104 66.6928 78.904 65.6897C78.8667 65.4446 78.8876 65.1942 78.9651 64.9587C79.0425 64.7231 79.1744 64.5091 79.3499 64.3338C79.5255 64.1585 79.7399 64.0269 79.9758 63.9495C80.2117 63.8722 80.4625 63.8513 80.708 63.8885H87.88C88.8859 63.7878 89.8958 64.036 90.74 64.5914C91.468 65.3986 91.969 66.3838 92.192 67.447L104.468 115.772L115.864 67.447C116.04 66.3807 116.548 65.3969 117.316 64.6354C118.198 64.092 119.231 63.8456 120.264 63.9325H126.16C127.193 63.8456 128.226 64.092 129.108 64.6354C129.868 65.4145 130.361 66.4143 130.516 67.4909L142 116.431L154.672 67.4909C154.906 66.4225 155.422 65.4363 156.168 64.6354C157.012 64.08 158.022 63.8318 159.028 63.9325H165.804C166.049 63.8952 166.3 63.9161 166.536 63.9935C166.772 64.0708 166.986 64.2024 167.162 64.3777C167.338 64.553 167.469 64.7671 167.547 65.0026C167.624 65.2381 167.645 65.4886 167.608 65.7337C167.645 66.1135 167.645 66.496 167.608 66.8759C167.467 67.4861 167.291 68.0875 167.08 68.6771L149.48 125.173C149.254 126.254 148.719 127.245 147.94 128.029C147.108 128.574 146.115 128.822 145.124 128.732H138.7C137.66 128.84 136.614 128.576 135.752 127.985C134.997 127.167 134.507 126.141 134.344 125.041L122.948 77.9906L111.684 124.997C111.521 126.097 111.031 127.123 110.276 127.941C109.413 128.532 108.368 128.797 107.328 128.688H101.036ZM195.02 130.621C191.229 130.627 187.45 130.199 183.756 129.347C180.818 128.756 177.976 127.766 175.308 126.403C174.506 126.064 173.822 125.495 173.345 124.767C172.867 124.04 172.616 123.187 172.624 122.318V118.627C172.624 117.104 173.181 116.343 174.296 116.343C174.763 116.35 175.224 116.439 175.66 116.606L177.508 117.353C180.091 118.494 182.791 119.349 185.56 119.901C188.455 120.495 191.404 120.79 194.36 120.78C198.081 121 201.789 120.162 205.052 118.364C206.243 117.657 207.222 116.644 207.888 115.431C208.553 114.218 208.881 112.849 208.836 111.466C208.861 110.528 208.699 109.595 208.359 108.72C208.019 107.845 207.508 107.046 206.856 106.37C204.635 104.512 202.015 103.189 199.2 102.504L188.596 99.1656C184.131 97.9269 180.153 95.3509 177.2 91.7851C174.841 88.7574 173.557 85.0333 173.548 81.1976C173.487 78.3624 174.169 75.5605 175.528 73.0702C176.843 70.7277 178.625 68.6793 180.764 67.0516C183.007 65.349 185.541 64.0687 188.244 63.2735C191.233 62.4124 194.329 61.9834 197.44 61.9995C199.088 61.998 200.733 62.1007 202.368 62.307C204.04 62.512 205.624 62.7902 207.12 63.1417C208.616 63.4931 210.009 63.8739 211.3 64.2839C212.362 64.6166 213.393 65.043 214.38 65.5579C215.213 66.0065 215.947 66.6193 216.536 67.3591C217.001 68.0769 217.232 68.9212 217.196 69.7754V73.246C217.196 74.7689 216.639 75.5304 215.524 75.5304C214.538 75.4204 213.582 75.1221 212.708 74.6518C208.268 72.7261 203.468 71.7676 198.628 71.8402C195.261 71.6654 191.908 72.3775 188.904 73.9049C187.779 74.5612 186.858 75.5166 186.244 76.6645C185.63 77.8125 185.348 79.108 185.428 80.4068C185.406 81.3732 185.587 82.3334 185.958 83.2261C186.329 84.1188 186.883 84.9242 187.584 85.5907C189.956 87.4849 192.699 88.8617 195.636 89.6325L206.02 92.7516C210.417 93.8927 214.362 96.3446 217.328 99.7807C219.654 102.795 220.867 106.52 220.76 110.324C220.799 113.264 220.135 116.171 218.824 118.803C217.543 121.318 215.725 123.522 213.5 125.261C211.074 127.132 208.311 128.519 205.36 129.347C201.993 130.266 198.51 130.695 195.02 130.621Z" fill="#252F3E"/>
<path fill-rule="evenodd" clip-rule="evenodd" d="M208.836 166.601C184.768 184.349 149.832 193.795 120 193.795C79.7507 194.059 40.8581 179.282 10.968 152.367C8.72396 150.346 10.704 147.579 13.432 149.116C46.5901 168.054 84.1322 178.004 122.332 177.979C150.859 177.826 179.075 172.049 205.36 160.978C209.408 159.265 212.84 163.658 208.836 166.601Z" fill="#FF9900"/>
<path fill-rule="evenodd" clip-rule="evenodd" d="M218.868 155.18C215.788 151.226 198.496 153.335 190.752 154.257C188.42 154.521 188.024 152.5 190.136 151.006C203.908 141.341 226.524 144.109 229.12 147.36C231.716 150.611 228.416 173.236 215.524 184.043C213.544 185.712 211.652 184.834 212.532 182.637C215.436 175.344 221.948 159.134 218.868 155.18Z" fill="#FF9900"/>
</g>
<defs>
<clipPath id="clip0_1913_4452">
<rect width="220" height="131.795" fill="white" transform="translate(10 62)"/>
</clipPath>
</defs>
</svg>
