<svg width="240" height="240" viewBox="0 0 240 240" fill="none" xmlns="http://www.w3.org/2000/svg">
<g clip-path="url(#clip0_3132_3392)">
<path d="M112.149 0.189525C111.634 0.236395 109.993 0.400442 108.517 0.517618C74.4654 3.58763 42.5701 21.9608 22.3689 50.2003C11.12 65.9019 3.92541 83.7126 1.20693 102.578C0.246082 109.163 0.128906 111.108 0.128906 120.037C0.128906 128.966 0.246082 130.911 1.20693 137.496C7.72191 182.515 39.7579 220.34 83.2067 234.354C90.9872 236.862 99.1896 238.572 108.517 239.604C112.149 240.002 127.851 240.002 131.483 239.604C147.583 237.823 161.223 233.839 174.674 226.972C176.737 225.917 177.135 225.636 176.854 225.402C176.666 225.261 167.878 213.473 157.332 199.225L138.162 173.329L114.141 137.778C100.924 118.233 90.0498 102.25 89.9561 102.25C89.8623 102.226 89.7686 118.022 89.7217 137.309C89.6514 171.079 89.628 172.438 89.2062 173.235C88.5968 174.383 88.1281 174.852 87.1438 175.368C86.3939 175.743 85.7377 175.813 82.199 175.813H78.1447L77.0667 175.133C76.3636 174.688 75.8481 174.102 75.4966 173.423L75.0044 172.368L75.0513 125.38L75.1216 78.3694L75.8481 77.4554C76.223 76.9633 77.0198 76.3305 77.5823 76.0259C78.5431 75.5572 78.9181 75.5103 82.9724 75.5103C87.7532 75.5103 88.55 75.6978 89.792 77.057C90.1436 77.432 103.15 97.0238 118.711 120.623C134.272 144.222 155.551 176.446 166.003 192.265L184.986 221.02L185.947 220.387C194.454 214.856 203.453 206.982 210.577 198.78C225.74 181.367 235.512 160.135 238.793 137.496C239.754 130.911 239.871 128.966 239.871 120.037C239.871 111.108 239.754 109.163 238.793 102.578C232.278 57.5589 200.242 19.7345 156.793 5.72023C149.13 3.2361 140.975 1.52533 131.835 0.494183C129.585 0.259831 114.094 0.00204328 112.149 0.189525ZM161.223 72.6981C162.347 73.2605 163.261 74.3385 163.59 75.4634C163.777 76.0727 163.824 89.1027 163.777 118.467L163.707 160.604L156.278 149.214L148.825 137.825V107.195C148.825 87.3919 148.919 76.2602 149.06 75.7212C149.435 74.4088 150.255 73.3777 151.38 72.7684C152.341 72.2762 152.692 72.2294 156.371 72.2294C159.84 72.2294 160.449 72.2762 161.223 72.6981Z" fill="white"/>
<path d="M183.814 221.535C182.994 222.051 182.736 222.402 183.463 222.004C183.978 221.699 184.822 221.066 184.681 221.043C184.611 221.043 184.213 221.277 183.814 221.535ZM182.197 222.59C181.775 222.918 181.775 222.941 182.291 222.683C182.572 222.543 182.807 222.379 182.807 222.332C182.807 222.144 182.689 222.191 182.197 222.59ZM181.026 223.293C180.604 223.621 180.604 223.644 181.119 223.386C181.4 223.246 181.635 223.082 181.635 223.035C181.635 222.847 181.518 222.894 181.026 223.293ZM179.854 223.996C179.432 224.324 179.432 224.347 179.947 224.09C180.229 223.949 180.463 223.785 180.463 223.738C180.463 223.551 180.346 223.597 179.854 223.996ZM178.073 224.933C177.182 225.402 177.229 225.589 178.12 225.144C178.518 224.933 178.823 224.722 178.823 224.675C178.823 224.511 178.799 224.535 178.073 224.933Z" fill="white"/>
</g>
<defs>
<clipPath id="clip0_3132_3392">
<rect width="240" height="240" rx="36" fill="white"/>
</clipPath>
</defs>
</svg>
