<svg width="248" height="248" viewBox="0 0 248 248" fill="none" xmlns="http://www.w3.org/2000/svg">
<g filter="url(#filter0_d_1913_4370)">
<rect x="4" width="240" height="240" rx="36" fill="#F8F8F8" shape-rendering="crispEdges"/>
<path fill-rule="evenodd" clip-rule="evenodd" d="M160.342 176.467C160.606 175.959 160.859 175.51 161.075 175.046C161.211 174.749 161.42 174.69 161.716 174.698C163.486 174.748 165.256 174.803 167.028 174.82C168.533 174.835 170.041 174.807 171.547 174.79C173.244 174.77 174.941 174.681 176.636 174.729C178.894 174.795 181.094 175.237 183.136 176.242C185.575 177.443 187.42 179.273 188.678 181.684C189.469 183.213 189.963 184.877 190.133 186.59C190.402 189.103 190.225 191.557 189.428 193.96C188.441 196.939 186.566 199.218 183.961 200.926C181.956 202.24 179.758 203.017 177.402 203.46C174.908 203.931 172.406 203.779 169.905 203.787C167.161 203.798 164.419 203.739 161.675 203.707C161.195 203.703 161.127 203.612 161.253 203.154L161.37 202.732C161.638 201.892 161.781 201.854 162.634 201.714C163.239 201.618 163.818 201.399 164.333 201.068C164.62 200.878 164.739 200.381 164.852 199.998C164.949 199.664 164.953 199.296 164.956 198.943C164.995 193.592 165.036 188.242 165.058 182.893C165.064 181.54 165.03 180.188 164.956 178.837C164.903 177.892 164.399 177.245 163.274 177.021C162.399 176.848 161.517 176.714 160.638 176.559L160.342 176.467ZM185.461 189.424C185.342 188.359 185.284 187.284 185.094 186.234C184.638 183.714 183.534 181.518 181.597 179.798C178.464 177.018 174.692 176.59 170.739 176.921C169.839 176.996 169.645 177.304 169.631 178.229C169.609 179.542 169.588 180.854 169.586 182.167C169.58 186.329 169.58 190.492 169.586 194.654C169.588 195.839 169.6 197.023 169.634 198.204C169.672 199.414 170.111 200.437 171.295 200.906C173.163 201.645 175.127 201.732 177.086 201.431C180.216 200.951 182.405 199.128 183.874 196.395C185.036 194.226 185.364 191.859 185.461 189.424ZM193.069 203.598C193.031 202.949 193.297 202.414 193.625 201.921C193.714 201.789 194.02 201.795 194.231 201.753L196.022 201.398C196.655 201.264 196.988 200.839 197.077 200.218C197.136 199.809 197.192 199.395 197.197 198.981C197.239 195.704 197.27 192.428 197.289 189.151C197.305 185.87 197.292 182.589 197.292 179.307L197.278 178.681C197.214 177.626 196.705 177.079 195.658 176.924L193.388 176.579C193.108 176.542 193.006 176.407 193.108 176.159C193.283 175.735 193.45 175.296 193.697 174.915C193.789 174.774 194.1 174.72 194.309 174.724C195.394 174.74 196.478 174.821 197.563 174.82L207.002 174.764C208.82 174.762 210.577 175.079 212.208 175.949C214.003 176.906 215.008 178.385 215.295 180.401C215.595 182.518 214.953 184.303 213.406 185.72C212.77 186.304 211.947 186.685 211.209 187.16L210.969 187.31C211.653 187.562 212.305 187.779 212.939 188.039C214.795 188.799 216.272 189.989 217.053 191.887C217.67 193.385 217.67 194.948 217.305 196.501C216.736 198.932 215.134 200.549 213.052 201.773C211.097 202.921 208.981 203.59 206.728 203.703C204.65 203.807 202.563 203.768 200.48 203.792L199.274 203.798C197.266 203.752 195.259 203.702 193.252 203.648L193.069 203.598ZM201.72 194.084H201.741C201.741 195.112 201.727 196.14 201.745 197.168C201.758 197.834 201.734 198.518 201.878 199.159C202.094 200.117 202.531 200.981 203.606 201.256C205.043 201.633 206.545 201.699 208.009 201.449C209.849 201.129 211.316 200.207 212.12 198.456C212.717 197.154 212.806 195.774 212.602 194.365C212.33 192.509 211.344 191.162 209.705 190.279C208.63 189.699 207.483 189.345 206.261 189.298C204.892 189.246 203.522 189.243 202.153 189.201C201.769 189.19 201.716 189.385 201.717 189.701C201.725 191.16 201.72 192.621 201.72 194.084ZM204.634 187.092C205.383 187.054 206.23 187.043 207.072 186.959C208.684 186.798 209.82 185.987 210.413 184.445C210.714 183.662 210.702 182.856 210.709 182.042C210.733 179.921 209.495 178.184 207.481 177.465C205.927 176.91 204.324 176.901 202.711 176.945C202.058 176.962 201.766 177.248 201.756 177.906L201.659 186.482C201.655 186.823 201.802 186.97 202.133 186.981L204.634 187.092Z" fill="#94795D"/>
<path fill-rule="evenodd" clip-rule="evenodd" d="M40.4734 201.95L40.3594 203.425C39.2969 203.425 38.3172 203.417 37.3375 203.428C35.4922 203.447 33.6469 203.477 31.8 203.503L31.6219 203.514C31.3578 203.483 30.8781 203.483 30.8656 203.405C30.7875 202.966 30.8125 202.505 30.8328 202.05C30.8344 201.998 31.0141 201.933 31.1188 201.908L32.5547 201.588C33.45 201.355 33.7656 200.969 33.8078 200.044C33.8563 199.002 33.9047 197.958 33.9094 196.916C33.9234 194.35 33.9078 191.787 33.9188 189.222C33.9203 188.622 33.7125 188.175 33.1531 187.931C32.4884 187.636 31.8191 187.352 31.1453 187.078C30.8266 186.95 30.4125 186.88 30.45 186.452C30.4875 186.016 30.8891 185.902 31.2672 185.816C32.8328 185.458 34.4 185.109 35.9609 184.728C36.4641 184.605 36.9453 184.397 37.5469 184.188C37.5781 184.513 37.6359 184.822 37.6297 185.131L37.5375 186.602C37.5359 186.767 37.6219 186.989 37.7453 187.081C37.8203 187.139 38.0719 187.034 38.1969 186.937C39.5313 185.922 40.9438 185.045 42.5547 184.534C45.05 183.742 47.1922 184.477 48.6922 186.628C49.2203 187.386 49.2219 187.386 49.9547 186.856C51.2125 185.942 52.5281 185.136 54 184.605C57.2313 183.437 60.3359 184.919 61.4594 188.173C61.8688 189.355 62.025 190.575 62.0219 191.822L61.9922 200.1C61.9906 200.783 62.2172 201.172 62.8672 201.384C63.5969 201.623 64.3531 201.788 65.175 202.003L64.9844 203.427C64.05 203.427 63.1906 203.42 62.3313 203.428C60.2313 203.447 58.1313 203.458 56.0328 203.506C55.6672 203.516 55.5719 203.425 55.5531 203.083C55.4922 201.987 55.4828 201.989 56.5141 201.742L56.8609 201.653C57.8688 201.378 58.2047 201.069 58.2125 200.047C58.2359 197.113 58.2969 194.17 58.1484 191.242C57.9938 188.205 55.5828 186.587 52.6391 187.366C51.689 187.626 50.7942 188.057 49.9984 188.637C49.725 188.833 49.6734 189.058 49.6953 189.4C49.7781 190.694 49.8297 191.989 49.8406 193.284C49.8594 195.552 49.8313 197.819 49.8406 200.087C49.8438 201.006 50.1578 201.358 51.0656 201.57L52.4141 201.881L52.6641 201.938C52.6828 202.369 52.7 202.8 52.6797 203.231C52.6672 203.502 52.4578 203.525 52.2234 203.52C50.9125 203.488 49.6 203.444 48.2891 203.447C46.6938 203.45 45.1 203.495 43.5063 203.523H43.1313C43.1313 203.066 43.1094 202.628 43.1469 202.192C43.1547 202.087 43.3391 201.941 43.4656 201.908L45.0375 201.575C45.7047 201.411 46.0234 201.069 46.0609 200.391C46.2391 197.25 46.3672 194.108 46.0719 190.969C45.9999 190.349 45.8279 189.745 45.5625 189.18C44.7578 187.402 42.9469 186.659 40.8578 187.194C39.8656 187.447 38.9703 187.902 38.1234 188.475C37.9388 188.589 37.7871 188.749 37.6835 188.939C37.5798 189.13 37.5279 189.344 37.5328 189.561C37.5328 192.694 37.5438 195.827 37.5531 198.958L37.5703 200.166C37.5891 201.008 37.9469 201.452 38.7828 201.633C39.3203 201.755 39.8641 201.837 40.4734 201.95Z" fill="#50382B"/>
<path fill-rule="evenodd" clip-rule="evenodd" d="M134.939 184.508C135.181 185.687 135.177 186.746 134.311 187.549C133.452 188.347 132.364 188.079 131.303 187.901C131.402 188.46 131.511 188.935 131.564 189.416C131.95 192.993 130.411 195.647 127.094 197.165C125.841 197.737 124.511 197.949 123.153 198.058C122.478 198.112 121.888 198.627 121.823 199.182C121.758 199.744 122.111 200.322 122.817 200.491C123.65 200.69 124.519 200.746 125.373 200.844C127.208 201.054 129.063 201.149 130.875 201.477C133.616 201.971 135.145 204.363 134.663 207.116C134.233 209.566 132.814 211.349 130.836 212.716C127.503 215.026 123.847 215.701 119.953 214.522C117.727 213.847 116.156 212.383 115.614 210.015C115.342 208.829 115.631 207.755 116.523 206.951C117.584 205.997 118.739 205.147 119.85 204.247L120.209 203.887L119.797 203.597C118.664 203.06 117.758 202.324 117.406 201.046C117.286 200.613 117.411 200.329 117.778 200.107C118.403 199.73 119.025 199.347 119.642 198.958C119.933 198.777 120.22 198.59 120.491 198.38C120.859 198.099 120.827 197.89 120.386 197.727C119.361 197.349 118.45 196.801 117.744 195.957C116.564 194.549 116.23 192.872 116.327 191.102C116.478 188.337 117.98 186.515 120.42 185.343C123.322 183.951 126.233 183.863 129.191 185.132C130.284 185.601 131.438 185.701 132.611 185.619C133.488 185.557 134.253 185.226 134.939 184.508ZM124.247 204.322C122.069 204.304 121.386 204.572 120.108 205.874C118.677 207.333 118.684 209.357 120.113 210.822C121.197 211.933 122.55 212.454 124.055 212.61C125.813 212.791 127.544 212.718 129.141 211.838C130.844 210.896 131.691 209.146 131.308 207.383C130.991 205.929 129.919 205.263 128.614 204.88C127.13 204.446 125.595 204.363 124.247 204.322ZM119.969 190.404C120.048 191.008 120.081 191.621 120.216 192.213C120.564 193.747 121.231 195.096 122.758 195.779C124.55 196.583 126.839 196.238 127.623 193.722C128.159 192.048 128.097 190.24 127.447 188.607C127.171 187.86 126.676 187.215 126.025 186.757C124.469 185.671 121.661 185.527 120.517 187.927C120.145 188.707 120 189.537 119.969 190.404Z" fill="#4F382B"/>
<path fill-rule="evenodd" clip-rule="evenodd" d="M97.9843 184.123C98.0421 184.39 98.1578 184.693 98.1609 184.998C98.1656 185.578 98.1031 186.157 98.0703 186.737V187.24L98.5609 186.865C99.9046 185.759 101.348 184.817 103.03 184.309C106.064 183.395 109.095 185.056 110.084 188.146C110.459 189.321 110.608 190.529 110.622 191.757C110.653 194.485 110.672 197.213 110.7 199.942C110.709 200.921 110.822 201.096 111.748 201.379C112.276 201.536 112.813 201.656 113.358 201.737C113.656 201.784 113.784 201.901 113.769 202.193L113.772 202.462C113.761 203.592 113.683 203.643 112.587 203.64C109.966 203.635 107.345 203.651 104.723 203.673C103.942 203.679 103.941 203.703 103.862 202.931L103.847 202.487C103.895 201.821 103.911 201.828 104.566 201.731C105.006 201.665 105.444 201.563 105.873 201.451C106.316 201.337 106.528 201.01 106.587 200.573C106.617 200.351 106.656 200.129 106.655 199.907C106.617 196.926 106.666 193.942 106.503 190.965C106.372 188.557 104.534 187.123 102.117 187.287C100.952 187.368 99.8319 187.769 98.8812 188.448C98.2359 188.899 98.1062 189.551 98.1093 190.253C98.1218 193.04 98.1484 195.828 98.1781 198.617C98.1843 199.228 98.2015 199.838 98.2593 200.445C98.3203 201.107 98.5531 201.374 99.2031 201.518C99.8249 201.656 100.459 201.735 101.123 201.846L101.18 202.359C101.202 203.554 101.077 203.643 99.9156 203.638C97.2046 203.628 94.4937 203.645 91.7843 203.674C91.3578 203.681 91.1765 203.546 91.1874 203.131L91.1812 202.953C91.1109 201.876 91.1421 201.835 92.1609 201.66L92.6421 201.563C93.7453 201.315 94.0281 201.021 94.0437 199.901C94.0953 196.353 94.114 192.806 94.1499 189.257C94.1546 188.748 93.9624 188.353 93.4874 188.142C92.8208 187.85 92.1505 187.566 91.4765 187.292C91.1046 187.138 90.6796 187.042 90.6656 186.528C90.6562 186.165 91.0437 185.845 91.5734 185.737C92.6374 185.521 93.7109 185.342 94.7624 185.078C95.8093 184.817 96.8374 184.467 97.9843 184.123Z" fill="#4F372B"/>
<path fill-rule="evenodd" clip-rule="evenodd" d="M156.601 193.391C156.551 196.706 155.691 199.385 153.347 201.396C150.378 203.948 145.747 204.815 141.961 202.907C140.345 202.093 139.158 200.845 138.384 199.224C137.198 196.732 136.901 194.112 137.52 191.427C138.133 188.773 139.741 186.849 142.147 185.604C144.622 184.324 147.228 183.824 149.976 184.496C153.453 185.345 155.951 188.179 156.448 191.788C156.537 192.421 156.572 193.062 156.601 193.391ZM152.575 195.187L152.441 195.171C152.441 194.859 152.458 194.546 152.437 194.234C152.323 192.287 151.886 190.432 150.758 188.802C149.687 187.259 148.23 186.348 146.333 186.215C144.209 186.065 142.425 187.252 141.798 189.421C140.858 192.677 141.176 195.851 142.83 198.834C143.55 200.134 144.617 201.093 146.047 201.598C148.848 202.584 151.333 201.307 152.062 198.438C152.331 197.379 152.409 196.271 152.575 195.187Z" fill="#4F382B"/>
<path fill-rule="evenodd" clip-rule="evenodd" d="M87.7797 193.648C87.7219 196.026 87.161 198.224 85.6922 200.135C84.1188 202.182 81.9563 203.276 79.4969 203.737C76.5891 204.281 73.8578 203.787 71.5219 201.835C70.4125 200.907 69.6547 199.718 69.1547 198.365C68.3344 196.146 68.1297 193.873 68.6344 191.556C69.1735 189.076 70.5735 187.181 72.7438 185.909C75.2531 184.441 77.961 183.787 80.8531 184.446C84.5719 185.296 86.7188 187.72 87.5125 191.388C87.6719 192.129 87.6938 192.895 87.7797 193.648ZM83.7078 195.216L83.6 195.201V194.754C83.5391 192.573 83.1125 190.495 81.811 188.682C80.8469 187.337 79.5563 186.493 77.9016 186.257C75.2047 185.873 73.4422 187.473 72.8578 189.646C72.0953 192.485 72.3344 195.29 73.5141 197.982C74.25 199.66 75.4125 200.968 77.1985 201.602C79.9828 202.591 82.5047 201.282 83.2094 198.424C83.4688 197.379 83.5469 196.288 83.7078 195.216Z" fill="#4F372B"/>
<path fill-rule="evenodd" clip-rule="evenodd" d="M152.691 72.4121C154.608 77.9543 155.986 83.6121 156.441 89.4746C157.003 96.7496 156.747 103.975 155.213 111.129L155.016 111.701C154.534 111.703 154.044 111.642 153.574 111.715C149.6 112.34 145.631 112.987 141.661 113.631C137.556 114.296 133.449 114.936 129.352 115.645C127.9 115.895 126.103 115.596 125.517 117.603L125.236 117.698L125.434 105.701L125.233 76.7543L127.145 76.4262C130.272 75.9152 133.399 75.3949 136.53 74.8965C140.264 74.3043 144.002 73.7262 147.739 73.148C149.389 72.8949 151.041 72.659 152.691 72.4121Z" fill="#439934"/>
<path fill-rule="evenodd" clip-rule="evenodd" d="M121.289 152.674C119.272 150.94 117.184 149.282 115.252 147.457C104.848 137.645 97.2375 126.093 93.4891 112.166C92.4563 108.335 91.7688 104.44 91.5469 100.48C91.3906 97.7086 91.1672 94.9133 91.3641 92.1555C91.8844 84.8227 92.9453 77.5602 95.0953 70.4961L95.2141 70.332C95.4235 70.6102 95.7235 70.857 95.8297 71.1711C97.9297 77.3523 100.013 83.5398 102.086 89.732C108.6 109.187 115.106 128.646 121.631 148.098C121.759 148.477 122.089 148.788 122.327 149.13L121.289 152.674Z" fill="#45A538"/>
<path fill-rule="evenodd" clip-rule="evenodd" d="M152.691 72.4125C151.039 72.6578 149.387 72.8953 147.739 73.1484C144.002 73.7266 140.264 74.3047 136.53 74.8969C133.4 75.3937 130.273 75.9141 127.145 76.4266L125.233 76.7547L125.217 75.5078C125.153 74.4828 125.047 73.4578 125.033 72.4328L124.819 52.8172C124.769 48.725 124.694 44.6328 124.611 40.5422C124.569 37.9997 124.495 35.4579 124.391 32.9172C124.328 31.5531 124.108 30.1953 124.02 28.8313C123.969 28.0469 124.038 27.2563 124.055 26.4688C125.03 28.3578 125.984 30.2609 126.986 32.1359C128.569 35.1 131.092 37.2844 133.366 39.6672C142.344 49.0906 148.717 60.0406 152.691 72.4125Z" fill="#46A037"/>
<path fill-rule="evenodd" clip-rule="evenodd" d="M125.238 117.699L125.519 117.603C126.105 115.597 127.902 115.896 129.353 115.646C133.45 114.936 137.558 114.297 141.663 113.632C145.633 112.989 149.602 112.343 153.575 111.716C154.045 111.643 154.536 111.703 155.017 111.702C154.275 114.352 153.691 117.06 152.748 119.636C151.678 122.558 150.384 125.411 149.011 128.208C146.954 132.379 144.408 136.291 141.428 139.861C139.138 142.614 136.584 145.163 134.027 147.677C132.611 149.066 130.945 150.199 129.392 151.449L128.989 151.174L127.541 149.936L126.042 146.649C125.018 142.815 124.46 138.872 124.378 134.905L124.406 134.236L124.611 131.339C124.678 130.35 124.769 129.363 124.811 128.374C124.961 124.818 125.095 121.258 125.238 117.699Z" fill="#409433"/>
<path fill-rule="evenodd" clip-rule="evenodd" d="M125.238 117.699C125.097 121.258 124.963 124.819 124.811 128.379C124.769 129.369 124.68 130.357 124.611 131.344L123.698 131.689C121.67 125.719 119.641 119.811 117.656 113.889C114.373 104.091 111.131 94.2785 107.853 84.477C105.206 76.5666 102.54 68.6624 99.8563 60.7645C99.7297 60.3957 99.3704 60.1051 99.1204 59.7785L104.964 49.0332C105.166 49.3816 105.43 49.7082 105.556 50.0832C108.259 58.0832 110.958 66.0848 113.633 74.0941C117.114 84.516 120.572 94.9426 124.05 105.366C124.189 105.782 124.417 106.166 124.636 106.633L125.436 105.702L125.238 117.699Z" fill="#4FAA41"/>
<path fill-rule="evenodd" clip-rule="evenodd" d="M99.1188 59.7773C99.3703 60.1039 99.7297 60.3945 99.8547 60.7633C102.539 68.6611 105.205 76.5653 107.852 84.4758C111.13 94.2773 114.372 104.09 117.655 113.888C119.639 119.81 121.669 125.716 123.697 131.688L124.609 131.343L124.405 134.24L124.219 134.907C123.902 138.077 123.634 141.254 123.247 144.418C123.053 146.004 122.639 147.56 122.325 149.129C122.089 148.787 121.758 148.476 121.63 148.096C115.103 128.645 108.598 109.185 102.084 89.7305C100.012 83.5392 97.9264 77.3522 95.8282 71.1695C95.7219 70.8555 95.4219 70.6086 95.2125 70.3305L99.1188 59.7773Z" fill="#4AA73C"/>
<path fill-rule="evenodd" clip-rule="evenodd" d="M125.434 105.702L124.634 106.634C124.416 106.166 124.188 105.782 124.048 105.366C120.57 94.943 117.113 84.5164 113.631 74.0945C110.953 66.0862 108.261 58.0825 105.555 50.0836C105.428 49.7086 105.164 49.382 104.963 49.0336L112.189 39.5273C112.417 39.8305 112.742 40.1008 112.859 40.443C114.866 46.318 116.853 52.1977 118.831 58.082C120.678 63.5789 122.497 69.082 124.366 74.5695C124.491 74.9367 124.927 75.1961 125.217 75.5086L125.233 76.7555L125.434 105.702Z" fill="#57AE47"/>
<path fill-rule="evenodd" clip-rule="evenodd" d="M125.217 75.5082C124.925 75.1973 124.491 74.9379 124.366 74.5691C122.498 69.0816 120.678 63.5785 118.831 58.0816C116.855 52.1972 114.864 46.3175 112.859 40.4426C112.742 40.1004 112.417 39.8301 112.189 39.527C114.539 37.2254 116.816 34.841 119.261 32.6457C121.434 30.6957 123.181 28.6051 123.263 25.5223L123.434 24.9082L124.053 26.4676C124.038 27.2551 123.967 28.0457 124.019 28.8301C124.108 30.1941 124.328 31.552 124.389 32.916C124.503 35.4551 124.558 37.9988 124.609 40.541C124.692 44.6316 124.767 48.7238 124.817 52.816L125.031 72.4316C125.047 73.4582 125.155 74.4832 125.217 75.5082Z" fill="#60B24F"/>
<path fill-rule="evenodd" clip-rule="evenodd" d="M122.327 149.129C122.641 147.56 123.055 146.004 123.249 144.418C123.636 141.255 123.903 138.077 124.22 134.907L124.3 134.895L124.378 134.909C124.46 138.876 125.018 142.819 126.042 146.652C125.831 146.93 125.536 147.176 125.424 147.488C124.556 149.935 123.738 152.402 122.866 154.848C122.747 155.182 122.413 155.443 122.18 155.735L121.288 152.673L122.327 149.129Z" fill="#A9AA88"/>
<path fill-rule="evenodd" clip-rule="evenodd" d="M122.18 155.735C122.413 155.441 122.747 155.182 122.866 154.848C123.737 152.402 124.556 149.935 125.423 147.488C125.534 147.176 125.831 146.93 126.042 146.652L127.541 149.94C127.245 150.359 126.836 150.738 126.672 151.205L123.803 159.63C123.684 159.97 123.283 160.207 123.011 160.493L122.18 155.735Z" fill="#B6B598"/>
<path fill-rule="evenodd" clip-rule="evenodd" d="M123.011 160.493C123.281 160.207 123.684 159.969 123.803 159.63L126.672 151.205C126.834 150.738 127.245 150.358 127.541 149.939L128.991 151.175C128.291 151.868 127.902 152.668 128.136 153.679L127.695 155.121C127.495 155.368 127.205 155.583 127.106 155.866C126.105 158.735 125.15 161.619 124.141 164.486C124.013 164.849 123.658 165.135 123.409 165.457L123.011 160.493Z" fill="#C2C1A7"/>
<path fill-rule="evenodd" clip-rule="evenodd" d="M123.408 165.455C123.658 165.133 124.013 164.847 124.139 164.485C125.148 161.618 126.105 158.733 127.105 155.864C127.203 155.582 127.494 155.368 127.694 155.119L127.086 161.738C126.923 161.925 126.689 162.089 126.611 162.307L124.589 168.1C124.447 168.496 124.175 168.849 123.963 169.219C123.773 168.972 123.436 168.733 123.42 168.477C123.361 167.474 123.403 166.463 123.408 165.455Z" fill="#CECDB7"/>
<path fill-rule="evenodd" clip-rule="evenodd" d="M123.964 169.22C124.177 168.849 124.448 168.496 124.591 168.101L126.613 162.307C126.691 162.088 126.927 161.926 127.088 161.738L127.103 166.082L125.648 169.812L123.964 169.22Z" fill="#DBDAC7"/>
<path fill-rule="evenodd" clip-rule="evenodd" d="M125.648 169.812L127.103 166.082L127.403 170.495L125.648 169.812Z" fill="#EBE9DC"/>
<path fill-rule="evenodd" clip-rule="evenodd" d="M128.134 153.679C127.902 152.67 128.289 151.87 128.989 151.176L129.392 151.451L128.134 153.679Z" fill="#CECDB7"/>
<path fill-rule="evenodd" clip-rule="evenodd" d="M124.378 134.909L124.3 134.895L124.22 134.907L124.406 134.24L124.378 134.909Z" fill="#4FAA41"/>
</g>
<defs>
<filter id="filter0_d_1913_4370" x="0" y="0" width="248" height="248" filterUnits="userSpaceOnUse" color-interpolation-filters="sRGB">
<feFlood flood-opacity="0" result="BackgroundImageFix"/>
<feColorMatrix in="SourceAlpha" type="matrix" values="0 0 0 0 0 0 0 0 0 0 0 0 0 0 0 0 0 0 127 0" result="hardAlpha"/>
<feOffset dy="4"/>
<feGaussianBlur stdDeviation="2"/>
<feComposite in2="hardAlpha" operator="out"/>
<feColorMatrix type="matrix" values="0 0 0 0 0 0 0 0 0 0 0 0 0 0 0 0 0 0 0.25 0"/>
<feBlend mode="normal" in2="BackgroundImageFix" result="effect1_dropShadow_1913_4370"/>
<feBlend mode="normal" in="SourceGraphic" in2="effect1_dropShadow_1913_4370" result="shape"/>
</filter>
</defs>
</svg>
