<svg width="240" height="240" viewBox="0 0 240 240" fill="none" xmlns="http://www.w3.org/2000/svg">
<g clip-path="url(#clip0_1795_3349)">
<rect width="240" height="240" rx="36" fill="#353535"/>
<path d="M177.05 92.246C175.219 91.6157 173.321 91.0193 171.367 90.4553C171.689 89.1447 171.983 87.851 172.245 86.5794C176.547 65.6986 173.734 48.877 164.13 43.3385C154.921 38.0279 139.86 43.5651 124.65 56.8025C123.187 58.0754 121.72 59.4231 120.254 60.8355C119.277 59.901 118.302 58.9979 117.329 58.1341C101.388 43.9799 85.4092 38.0151 75.8146 43.5695C66.6143 48.8955 63.8897 64.7095 67.7618 84.4983C68.1357 86.4097 68.5728 88.3616 69.067 90.3462C66.8056 90.9882 64.6224 91.6726 62.5335 92.4006C43.8441 98.9165 31.9082 109.129 31.9082 119.721C31.9082 130.661 44.7214 141.635 64.1879 148.288C65.7241 148.813 67.3181 149.31 68.9608 149.781C68.4276 151.927 67.9638 154.031 67.5745 156.082C63.8824 175.528 66.7657 190.968 75.9415 196.26C85.4193 201.726 101.326 196.108 116.814 182.569C118.039 181.499 119.267 180.364 120.498 179.174C122.093 180.71 123.686 182.164 125.27 183.528C140.273 196.438 155.091 201.652 164.258 196.344C173.726 190.863 176.803 174.276 172.808 154.096C172.503 152.555 172.148 150.98 171.75 149.378C172.867 149.048 173.963 148.707 175.032 148.352C195.27 141.647 208.437 130.808 208.437 119.721C208.437 109.09 196.116 98.8094 177.05 92.246Z" fill="#53C1DE"/>
<path d="M172.661 141.193C171.696 141.513 170.705 141.822 169.696 142.121C167.462 135.049 164.447 127.528 160.757 119.757C164.278 112.172 167.176 104.748 169.348 97.7207C171.154 98.2432 172.907 98.7944 174.595 99.376C190.931 105 200.896 113.314 200.896 119.721C200.896 126.545 190.134 135.404 172.661 141.193ZM165.411 155.56C167.177 164.484 167.429 172.551 166.259 178.858C165.208 184.526 163.094 188.304 160.479 189.817C154.916 193.038 143.019 188.852 130.189 177.811C128.718 176.545 127.236 175.194 125.75 173.763C130.724 168.323 135.695 161.999 140.547 154.975C149.081 154.218 157.143 152.98 164.455 151.29C164.815 152.743 165.135 154.167 165.411 155.56ZM92.0908 189.261C86.6555 191.181 82.3265 191.236 79.7097 189.727C74.1414 186.515 71.8266 174.118 74.9842 157.488C75.3458 155.584 75.7763 153.627 76.2725 151.628C83.5039 153.227 91.5073 154.377 100.062 155.071C104.946 161.944 110.061 168.261 115.215 173.793C114.089 174.88 112.968 175.915 111.852 176.89C105.003 182.877 98.1395 187.125 92.0908 189.261ZM66.6269 141.152C58.0192 138.21 50.9106 134.386 46.0381 130.213C41.6597 126.464 39.4492 122.741 39.4492 119.721C39.4492 113.293 49.0326 105.094 65.0159 99.5212C66.9553 98.845 68.9854 98.2077 71.0923 97.6091C73.3012 104.795 76.1989 112.307 79.6959 119.904C76.1537 127.614 73.2148 135.246 70.9842 142.516C69.4822 142.084 68.0271 141.63 66.6269 141.152ZM75.1627 83.0495C71.8451 66.0949 74.0484 53.305 79.5928 50.0956C85.4985 46.6765 98.5578 51.5513 112.322 63.7729C113.202 64.554 114.085 65.3716 114.971 66.2175C109.842 71.7248 104.774 77.9947 99.9325 84.8271C91.6302 85.5966 83.683 86.8327 76.3762 88.488C75.9168 86.6401 75.5099 84.8245 75.1627 83.0495ZM151.309 101.852C149.562 98.8349 147.769 95.8891 145.941 93.0238C151.573 93.7358 156.97 94.6809 162.037 95.8376C160.516 100.714 158.62 105.812 156.387 111.038C154.786 107.998 153.093 104.933 151.309 101.852ZM120.257 71.6069C123.735 75.3754 127.219 79.5828 130.645 84.1477C127.192 83.9846 123.697 83.8998 120.173 83.8998C116.682 83.8998 113.212 83.9827 109.781 84.143C113.21 79.6205 116.724 75.4187 120.257 71.6069ZM89.0055 101.904C87.2607 104.93 85.5985 107.978 84.0224 111.033C81.8263 105.824 79.9476 100.703 78.4129 95.7578C83.4495 94.6307 88.8205 93.7091 94.417 93.0106C92.5631 95.9023 90.7551 98.8704 89.0055 101.904ZM94.5782 146.969C88.796 146.324 83.3443 145.45 78.3089 144.354C79.8681 139.32 81.7883 134.089 84.0308 128.769C85.611 131.821 87.2798 134.871 89.0354 137.903C90.8236 140.992 92.6766 144.018 94.5782 146.969ZM120.465 168.366C116.891 164.51 113.326 160.244 109.844 155.655C113.224 155.788 116.67 155.856 120.173 155.856C123.771 155.856 127.328 155.775 130.829 155.619C127.391 160.29 123.92 164.562 120.465 168.366ZM156.459 128.498C158.819 133.876 160.808 139.079 162.387 144.027C157.269 145.194 151.743 146.135 145.92 146.834C147.753 143.93 149.562 140.933 151.339 137.851C153.138 134.733 154.845 131.61 156.459 128.498ZM144.807 134.084C142.047 138.868 139.214 143.436 136.338 147.747C131.1 148.122 125.688 148.315 120.173 148.315C114.679 148.315 109.335 148.144 104.19 147.81C101.198 143.442 98.3033 138.861 95.5614 134.125C92.8267 129.401 90.3105 124.638 88.0299 119.902C90.3099 115.154 92.8201 110.386 95.5391 105.671L95.5384 105.672C98.2646 100.944 101.134 96.3856 104.098 92.045C109.348 91.6481 114.732 91.441 120.172 91.441C125.637 91.441 131.028 91.6497 136.277 92.05C139.196 96.3589 142.045 100.903 144.782 105.631C147.55 110.412 150.093 115.149 152.392 119.795C150.1 124.52 147.563 129.305 144.807 134.084ZM160.364 49.8712C166.275 53.2802 168.574 67.0285 164.86 85.0567C164.623 86.2071 164.356 87.3788 164.066 88.5662C156.743 86.8764 148.79 85.6189 140.463 84.8377C135.613 77.9303 130.586 71.6506 125.541 66.214C126.897 64.9091 128.252 63.6648 129.601 62.4905C142.633 51.1488 154.814 46.6709 160.364 49.8712Z" fill="white"/>
<path d="M120.174 103.957C128.879 103.957 135.937 111.014 135.937 119.72C135.937 128.426 128.879 135.484 120.174 135.484C111.468 135.484 104.41 128.426 104.41 119.72C104.41 111.014 111.468 103.957 120.174 103.957Z" fill="#53C1DE"/>
</g>
<defs>
<clipPath id="clip0_1795_3349">
<rect width="240" height="240" fill="white"/>
</clipPath>
</defs>
</svg>
