<svg width="240" height="240" viewBox="0 0 240 240" fill="none" xmlns="http://www.w3.org/2000/svg">
<g clip-path="url(#clip0_3132_3838)">
<path fill-rule="evenodd" clip-rule="evenodd" d="M141.244 0.517607C139.516 0.517607 137.901 0.885956 136.427 1.36764C139.587 3.49274 141.315 6.25535 142.193 9.41466C142.25 9.83968 142.378 10.1514 142.434 10.5905C142.491 11.0297 142.576 11.3272 142.576 11.7239C142.831 17.1783 141.159 17.8584 139.969 21.0743C138.17 25.2253 138.666 29.688 140.819 33.2582C141.016 33.7361 141.263 34.192 141.556 34.6183C139.204 18.9492 152.28 16.5833 154.689 11.6956C154.873 7.41707 151.345 4.56945 148.554 2.58603C145.891 0.97096 143.454 0.460938 141.244 0.460938V0.517607ZM160.937 4.05943C160.682 5.47615 160.88 5.10781 160.795 5.85867L160.653 7.47374L160.228 8.96131C160.087 9.45716 159.917 9.95302 159.732 10.4489L159.052 11.8656C158.868 12.1206 158.741 12.3615 158.557 12.6023L158.188 13.169L157.253 14.4015C156.885 14.7699 156.573 15.2091 156.12 15.5349C155.666 15.8608 155.383 16.2716 154.944 16.5833C153.641 17.575 152.153 18.3117 150.793 19.2467C150.368 19.5584 149.943 19.8134 149.56 20.1818C149.141 20.4785 148.748 20.8102 148.384 21.1735C147.959 21.5419 147.648 21.9102 147.251 22.3494C146.854 22.7886 146.571 23.1569 146.316 23.5819L145.466 24.8853L144.786 26.3021L144.29 27.7188L143.865 29.2772C143.808 29.5322 143.808 29.8439 143.723 30.0847C143.638 30.3256 143.667 30.5806 143.582 30.8214L143.525 32.3798C143.525 32.7482 143.525 33.1165 143.582 33.5132C143.582 34.0091 143.638 34.5049 143.766 35.0716C143.893 35.6383 143.95 36.0633 144.078 36.5592L144.573 38.0467C144.715 38.3584 144.885 38.6701 144.998 38.8968L130.746 33.3715L123.563 31.5298L119.653 30.5947C115.924 29.8515 112.16 29.2935 108.376 28.923C108.234 28.923 108.192 28.8663 108.064 28.8663L96.9714 28.2996L88.8535 28.6113C85.0708 28.8663 81.2882 29.348 77.5197 29.9714L74.7287 30.4672L69.1468 31.6998L66.3559 32.4365L63.6924 33.6124L61.6523 34.5474C61.5107 34.6041 61.3973 34.6041 61.3407 34.6891L59.6123 35.5391C59.4281 35.5958 59.3006 35.6808 59.1872 35.7233L57.2605 36.715C56.8355 36.8992 56.4104 37.14 56.0279 37.3384C55.8438 37.48 55.6029 37.5792 55.4612 37.65L53.8462 38.5851C53.3331 38.8685 52.8365 39.1807 52.3586 39.5201L51.126 40.3702L49.766 41.3619L48.7176 42.2119C48.5759 42.2686 48.4626 42.3961 48.3493 42.4669L47.4142 43.2745C47.3575 43.4161 47.23 43.4586 47.1592 43.5295L46.0258 44.5778L44.7933 45.7537L43.7449 46.8871C43.6032 47.0288 43.4332 47.1421 43.3199 47.2555C42.987 47.6437 42.6372 48.0172 42.2715 48.3747C42.2148 48.5164 42.0873 48.5589 42.0165 48.6864L40.5998 50.1739L37.2563 53.3899C36.1229 54.3816 34.9612 55.3166 33.7853 56.11L30.0735 58.4618C28.8409 59.1418 27.5234 59.7652 26.1633 60.3035C24.8467 60.8636 23.504 61.36 22.1398 61.7911C19.533 62.3578 16.8696 63.4062 14.5745 63.5903C14.0786 63.5903 13.5261 63.732 13.0161 63.7745L11.4577 64.1429L9.97009 64.7096C9.46288 64.9105 8.96636 65.1375 8.48253 65.3896C8.05751 65.7013 7.54749 65.9563 7.12247 66.2396C6.69745 66.523 6.27243 66.9197 5.88992 67.288C5.5074 67.6563 5.03988 68.0247 4.65736 68.4214L3.60898 69.6539C3.2973 70.1498 2.92895 70.589 2.67394 71.0707C2.3497 71.5248 2.06079 72.0032 1.80974 72.5016L1.12971 74.1166L0.563018 75.7317L0.251338 77.2193C0.067163 77.956 0.067163 78.7068 -0.0036734 79.061C-0.0745098 79.4152 -0.0036734 79.8827 -0.0036734 80.3219C-0.0157087 80.5924 0.0033052 80.8633 0.0529957 81.1294C0.109665 81.5545 0.194669 81.937 0.308007 82.3053L0.733025 83.4387C0.9172 83.8637 1.15804 84.2462 1.41305 84.6146L2.22059 85.748L3.26897 86.7397C3.63213 87.103 4.02551 87.4347 4.44485 87.7314C5.93242 89.0348 6.2866 89.4598 8.22752 90.4515C8.5392 90.6357 8.85088 90.7632 9.21923 90.9474C9.4034 91.1315 9.4034 91.1882 9.47424 91.3157C9.53091 91.8116 9.65841 92.3074 9.78592 92.8033C9.90423 93.3136 10.0702 93.8116 10.2818 94.2908L10.7776 95.4242C10.8343 95.5659 10.9193 95.6792 10.9618 95.7359L11.6985 97.096L12.6335 98.3993L13.6819 99.5752C14.0503 99.9436 14.4186 100.255 14.8578 100.624L16.0904 101.559C16.5154 101.87 16.9404 102.125 17.4504 102.366C17.9088 102.63 18.3872 102.858 18.8813 103.046C19.2497 103.23 19.6888 103.358 20.1139 103.471C20.5389 103.585 20.9214 103.726 21.1622 103.783C20.9781 107.126 20.9072 110.3 21.4173 111.405C21.9839 112.637 24.7041 108.855 27.4242 104.534C27.0558 108.812 26.8008 113.828 27.4242 115.301C28.0475 116.774 31.816 112.014 35.0462 106.687C78.9648 96.5293 119.058 126.89 123.266 169.76C122.458 163.073 114.227 159.347 110.444 160.268C108.603 164.858 105.429 170.752 100.343 174.393C100.768 170.284 100.584 166.091 99.7198 161.996C98.3339 167.7 95.7126 173.029 92.0412 177.609C86.1617 178.034 80.2823 175.2 77.1655 170.922C76.9105 170.737 76.8538 170.355 76.6697 170.114L76.1738 168.811C75.9896 168.386 75.8621 167.961 75.8054 167.507C75.7488 167.054 75.7488 166.657 75.7488 166.147V165.212C75.8055 164.787 75.933 164.362 76.0605 163.909L76.4855 162.605C76.7405 162.18 76.9105 161.755 77.2222 161.302C78.2706 158.469 78.2706 155.919 76.3721 154.502C76.0038 154.247 75.6354 154.077 75.1963 153.878C74.9412 153.822 74.6296 153.694 74.3887 153.623L73.8929 153.439L72.5895 153.128C72.1659 153.005 71.7271 152.943 71.2861 152.943C70.8362 152.87 70.3817 152.827 69.926 152.816C69.6143 152.816 69.3027 152.873 68.991 152.873C68.5312 152.869 68.0732 152.931 67.6309 153.057L66.3275 153.298L65.0241 153.723L63.7916 154.289L62.6157 154.913C48.1651 164.334 56.8071 186.364 66.6392 192.768C62.9274 193.448 59.1306 194.255 58.0963 195.063C60.6465 196.791 63.4232 198.18 66.3417 199.341L76.3721 202.175C81.5149 203.308 86.7143 203.662 91.9845 203.351C105.372 202.37 118.023 196.849 127.846 187.701C137.669 178.553 144.075 166.326 146.004 153.043L146.373 154.658L146.939 158.129L147.194 159.8L147.336 161.642L147.478 163.682V164.674C147.478 164.986 147.534 165.354 147.534 165.666C147.534 165.977 147.478 166.402 147.478 166.799V167.649C147.478 168.074 147.421 168.457 147.421 168.882C147.421 169.122 147.421 169.377 147.364 169.689L147.308 171.049C147.251 171.233 147.251 171.417 147.251 171.616L147.067 173.033C147.067 173.217 147.067 173.401 147.01 173.599L146.769 175.399V175.54L146.401 177.269L146.033 179.11L145.537 181.037L145.041 182.964L144.418 184.947L143.058 188.546L142.321 190.345L141.471 192.073C141.414 192.258 141.329 192.385 141.287 192.498C137.136 200.8 131.185 207.941 123.748 213.494C123.252 213.806 122.756 214.174 122.26 214.543C122.118 214.684 121.948 214.727 121.835 214.854L120.475 215.789L120.659 216.158H120.716L123.323 215.789H123.379L128.196 214.939C128.621 214.883 129.131 214.755 129.556 214.628L130.406 214.444L131.71 214.203L132.843 213.891C139.034 212.403 145.027 210.349 150.807 207.941C140.961 221.4 127.757 232.223 112.329 239.35C119.455 238.854 126.581 237.678 133.438 235.694C158.401 228.327 179.411 211.539 191.991 188.914C189.44 203.259 183.751 216.863 175.331 228.753C181.338 224.786 186.849 220.21 191.878 215.01C205.745 200.532 214.846 182.155 217.96 162.35C220.085 172.126 220.68 182.241 219.759 192.215C264.485 129.822 223.471 65.1346 206.3 48.1055C206.244 47.9638 206.159 47.9213 206.159 47.7938C206.017 48.5305 205.974 49.2814 205.918 50.0181C205.734 51.4348 205.549 52.809 205.294 54.1691C205.039 55.5292 204.614 56.8892 204.246 58.2776C203.878 59.666 203.311 60.9411 202.758 62.2444C202.206 63.5478 201.583 64.7946 200.917 66.0271C200.234 67.2389 199.492 68.4162 198.692 69.5548C197.885 70.7307 197.021 71.8499 196.142 72.8982C195.218 73.9767 194.244 75.012 193.224 76.0009C192.601 76.5676 192.048 77.0493 191.425 77.5593L190.008 78.7918C188.901 79.6695 187.742 80.4786 186.537 81.2144C185.354 81.9776 184.134 82.6821 182.882 83.3254C181.578 83.9487 180.275 84.5013 178.972 85.0538C177.652 85.553 176.31 85.988 174.948 86.3572C173.588 86.7255 172.157 87.0372 170.797 87.2922C169.437 87.5472 167.964 87.6606 166.589 87.7881C165.598 87.8447 164.606 87.9297 163.756 87.9297C162.339 87.9297 160.922 87.788 159.548 87.6747C158.174 87.5614 156.715 87.363 155.326 87.0514C153.92 86.797 152.534 86.4467 151.175 86.003H151.119C152.479 85.8613 153.839 85.748 155.227 85.5071C156.616 85.2663 158.018 84.9404 159.378 84.5721C160.738 84.2037 162.098 83.7645 163.402 83.2687C164.705 82.7728 166.065 82.1353 167.312 81.5403C168.582 80.9211 169.82 80.2403 171.024 79.5002C172.2 78.6927 173.376 77.8851 174.495 77.0209C175.605 76.1571 176.66 75.225 177.654 74.23C178.702 73.2949 179.637 72.2465 180.572 71.1982C181.508 70.1498 182.372 68.9739 183.179 67.8547C183.321 67.6705 183.434 67.4297 183.548 67.2313L185.347 64.3979C186.027 63.1653 186.65 61.9186 187.189 60.6152C187.727 59.3118 188.237 58.0084 188.676 56.6484C189.115 55.2883 189.413 53.9849 189.725 52.6249C190.036 51.2648 190.22 49.8339 190.348 48.4739C190.475 47.1138 190.589 45.6404 190.589 44.2662C190.589 43.2745 190.532 42.2827 190.447 41.4327C190.305 40.016 190.135 38.6418 189.951 37.2817C189.705 35.8842 189.393 34.499 189.016 33.1307C188.591 31.8273 188.166 30.4672 187.656 29.1638C187.146 27.8605 186.523 26.5571 185.928 25.3387C185.333 24.1203 184.568 22.8594 183.803 21.6835C183.038 20.5076 182.188 19.3884 181.323 18.2834L178.49 15.1241C177.967 14.5939 177.428 14.0789 176.875 13.5798C174.099 11.4222 171.225 9.39414 168.261 7.50208C167.836 7.26123 167.454 7.07706 167.029 6.87872C164.988 5.57533 163.062 4.8953 161.149 4.27194L160.937 4.05943Z" fill="black"/>
</g>
<defs>
<clipPath id="clip0_3132_3838">
<rect width="240" height="240" rx="36" fill="white"/>
</clipPath>
</defs>
</svg>
