<svg width="240" height="240" viewBox="0 0 240 240" fill="none" xmlns="http://www.w3.org/2000/svg">
<g filter="url(#filter0_d_3132_3855)">
<path fill-rule="evenodd" clip-rule="evenodd" d="M156.342 176.469C156.606 175.961 156.859 175.512 157.075 175.048C157.211 174.751 157.42 174.692 157.715 174.7C159.486 174.75 161.256 174.805 163.028 174.822C164.532 174.837 166.04 174.809 167.546 174.792C169.243 174.772 170.94 174.683 172.636 174.731C174.893 174.797 177.093 175.239 179.136 176.244C181.575 177.445 183.42 179.275 184.678 181.686C185.468 183.215 185.962 184.879 186.132 186.592C186.401 189.105 186.225 191.559 185.428 193.962C184.44 196.94 182.565 199.22 179.961 200.928C177.956 202.242 175.757 203.019 173.401 203.462C170.907 203.933 168.406 203.781 165.904 203.789C163.161 203.8 160.418 203.74 157.675 203.709C157.195 203.705 157.126 203.614 157.253 203.156L157.37 202.734C157.637 201.894 157.781 201.856 158.634 201.715C159.239 201.62 159.817 201.401 160.332 201.07C160.62 200.88 160.739 200.383 160.851 200C160.948 199.665 160.953 199.298 160.956 198.945C160.995 193.594 161.036 188.244 161.057 182.895C161.063 181.542 161.03 180.19 160.956 178.839C160.903 177.894 160.398 177.247 159.273 177.023C158.398 176.85 157.517 176.715 156.637 176.561L156.342 176.469ZM181.461 189.426C181.342 188.361 181.284 187.286 181.093 186.236C180.637 183.715 179.534 181.52 177.596 179.8C174.464 177.02 170.692 176.592 166.739 176.923C165.839 176.998 165.645 177.306 165.631 178.231C165.609 179.544 165.587 180.856 165.586 182.169C165.579 186.331 165.579 190.494 165.586 194.656C165.587 195.84 165.6 197.025 165.634 198.206C165.671 199.415 166.111 200.439 167.295 200.908C169.162 201.647 171.126 201.734 173.086 201.433C176.215 200.953 178.404 199.13 179.873 196.397C181.036 194.228 181.364 191.861 181.461 189.426ZM189.068 203.6C189.031 202.951 189.296 202.415 189.625 201.923C189.714 201.79 190.02 201.797 190.231 201.755L192.021 201.4C192.654 201.265 192.987 200.84 193.076 200.22C193.136 199.811 193.192 199.397 193.196 198.983C193.239 195.706 193.27 192.43 193.289 189.153C193.304 185.872 193.292 182.59 193.292 179.309L193.278 178.683C193.214 177.628 192.704 177.081 191.657 176.926L189.387 176.581C189.107 176.544 189.006 176.409 189.107 176.161C189.282 175.737 189.45 175.298 189.696 174.917C189.789 174.776 190.1 174.722 190.309 174.726C191.393 174.742 192.478 174.823 193.562 174.822L203.001 174.765C204.82 174.764 206.576 175.081 208.207 175.951C210.003 176.908 211.007 178.387 211.295 180.403C211.595 182.52 210.953 184.305 209.406 185.722C208.77 186.306 207.946 186.687 207.209 187.162L206.968 187.312C207.653 187.564 208.304 187.781 208.939 188.04C210.795 188.801 212.271 189.99 213.053 191.889C213.67 193.387 213.67 194.95 213.304 196.503C212.736 198.934 211.134 200.551 209.051 201.775C207.096 202.923 204.981 203.592 202.728 203.705C200.65 203.809 198.562 203.77 196.479 203.794L195.273 203.8C193.266 203.754 191.258 203.704 189.251 203.65L189.068 203.6ZM197.72 194.086H197.74C197.74 195.114 197.726 196.142 197.745 197.17C197.757 197.836 197.734 198.52 197.878 199.161C198.093 200.119 198.531 200.983 199.606 201.258C201.043 201.635 202.544 201.701 204.009 201.451C205.848 201.131 207.315 200.209 208.12 198.458C208.717 197.156 208.806 195.776 208.601 194.367C208.329 192.511 207.343 191.164 205.704 190.281C204.629 189.701 203.482 189.347 202.261 189.3C200.892 189.248 199.521 189.245 198.153 189.203C197.768 189.192 197.715 189.387 197.717 189.703C197.725 191.162 197.72 192.623 197.72 194.086ZM200.634 187.094C201.382 187.056 202.229 187.045 203.071 186.961C204.684 186.8 205.82 185.989 206.412 184.447C206.714 183.664 206.701 182.858 206.709 182.044C206.732 179.923 205.495 178.186 203.481 177.467C201.926 176.912 200.323 176.903 198.711 176.947C198.057 176.964 197.765 177.25 197.756 177.908L197.659 186.484C197.654 186.825 197.801 186.972 198.132 186.983L200.634 187.094Z" fill="black"/>
<path fill-rule="evenodd" clip-rule="evenodd" d="M36.4731 201.95L36.359 203.425C35.2965 203.425 34.3168 203.417 33.3371 203.428C31.4918 203.447 29.6465 203.477 27.7996 203.503L27.6215 203.514C27.3575 203.483 26.8778 203.483 26.8653 203.405C26.7871 202.966 26.8121 202.505 26.8325 202.05C26.834 201.998 27.0137 201.933 27.1184 201.908L28.5543 201.588C29.4496 201.355 29.7653 200.969 29.8075 200.044C29.8559 199.002 29.9043 197.958 29.909 196.916C29.9231 194.35 29.9075 191.787 29.9184 189.222C29.92 188.622 29.7121 188.175 29.1528 187.931C28.4881 187.636 27.8187 187.352 27.145 187.078C26.8262 186.95 26.4121 186.88 26.4496 186.452C26.4871 186.016 26.8887 185.902 27.2668 185.816C28.8325 185.458 30.3996 185.109 31.9606 184.728C32.4637 184.605 32.945 184.397 33.5465 184.188C33.5778 184.513 33.6356 184.822 33.6293 185.131L33.5371 186.602C33.5356 186.767 33.6215 186.989 33.745 187.081C33.82 187.139 34.0715 187.034 34.1965 186.937C35.5309 185.922 36.9434 185.045 38.5543 184.534C41.0496 183.742 43.1918 184.477 44.6918 186.628C45.22 187.386 45.2215 187.386 45.9543 186.856C47.2121 185.942 48.5278 185.136 49.9996 184.605C53.2309 183.437 56.3356 184.919 57.459 188.173C57.8684 189.355 58.0246 190.575 58.0215 191.822L57.9918 200.1C57.9903 200.783 58.2168 201.172 58.8668 201.384C59.5965 201.623 60.3528 201.788 61.1746 202.003L60.984 203.427C60.0496 203.427 59.1903 203.42 58.3309 203.428C56.2309 203.447 54.1309 203.458 52.0325 203.506C51.6668 203.516 51.5715 203.425 51.5528 203.083C51.4918 201.987 51.4825 201.989 52.5137 201.742L52.8606 201.653C53.8684 201.378 54.2043 201.069 54.2121 200.047C54.2356 197.113 54.2965 194.17 54.1481 191.242C53.9934 188.205 51.5825 186.587 48.6387 187.366C47.6886 187.626 46.7938 188.057 45.9981 188.637C45.7246 188.833 45.6731 189.058 45.695 189.4C45.7778 190.694 45.8293 191.989 45.8403 193.284C45.859 195.552 45.8309 197.819 45.8403 200.087C45.8434 201.006 46.1575 201.358 47.0653 201.57L48.4137 201.881L48.6637 201.938C48.6825 202.369 48.6996 202.8 48.6793 203.231C48.6668 203.502 48.4575 203.525 48.2231 203.52C46.9121 203.488 45.5996 203.444 44.2887 203.447C42.6934 203.45 41.0996 203.495 39.5059 203.523H39.1309C39.1309 203.066 39.109 202.628 39.1465 202.192C39.1543 202.087 39.3387 201.941 39.4653 201.908L41.0371 201.575C41.7043 201.411 42.0231 201.069 42.0606 200.391C42.2387 197.25 42.3668 194.108 42.0715 190.969C41.9995 190.349 41.8275 189.745 41.5621 189.18C40.7575 187.402 38.9465 186.659 36.8575 187.194C35.8653 187.447 34.97 187.902 34.1231 188.475C33.9384 188.589 33.7867 188.749 33.6831 188.939C33.5795 189.13 33.5275 189.344 33.5325 189.561C33.5325 192.694 33.5434 195.827 33.5528 198.958L33.57 200.166C33.5887 201.008 33.9465 201.452 34.7825 201.633C35.32 201.755 35.8637 201.837 36.4731 201.95Z" fill="black"/>
<path fill-rule="evenodd" clip-rule="evenodd" d="M130.939 184.506C131.181 185.685 131.176 186.744 130.311 187.547C129.451 188.346 128.364 188.077 127.303 187.899C127.401 188.458 127.511 188.933 127.564 189.414C127.95 192.991 126.411 195.646 123.094 197.163C121.84 197.735 120.511 197.947 119.153 198.056C118.478 198.11 117.887 198.625 117.823 199.18C117.758 199.742 118.111 200.321 118.817 200.489C119.65 200.688 120.519 200.744 121.373 200.842C123.208 201.052 125.062 201.147 126.875 201.475C129.615 201.969 131.145 204.361 130.662 207.114C130.233 209.564 128.814 211.347 126.836 212.714C123.503 215.024 119.847 215.699 115.953 214.521C113.726 213.846 112.156 212.381 111.614 210.013C111.342 208.827 111.631 207.753 112.523 206.949C113.584 205.996 114.739 205.146 115.85 204.246L116.209 203.885L115.797 203.596C114.664 203.058 113.758 202.322 113.406 201.044C113.286 200.611 113.411 200.327 113.778 200.105C114.403 199.728 115.025 199.346 115.642 198.956C115.933 198.775 116.22 198.588 116.49 198.378C116.859 198.097 116.826 197.888 116.386 197.725C115.361 197.347 114.45 196.799 113.744 195.955C112.564 194.547 112.229 192.871 112.326 191.1C112.478 188.335 113.979 186.513 116.42 185.341C119.322 183.949 122.233 183.861 125.19 185.13C126.284 185.599 127.437 185.699 128.611 185.617C129.487 185.555 130.253 185.224 130.939 184.506ZM120.247 204.321C118.069 204.302 117.386 204.571 116.108 205.872C114.676 207.331 114.684 209.355 116.112 210.821C117.197 211.931 118.55 212.452 120.054 212.608C121.812 212.789 123.544 212.716 125.14 211.836C126.844 210.894 127.69 209.144 127.308 207.381C126.99 205.927 125.919 205.261 124.614 204.878C123.129 204.444 121.595 204.361 120.247 204.321ZM115.969 190.402C116.048 191.006 116.081 191.619 116.215 192.211C116.564 193.746 117.231 195.094 118.758 195.777C120.55 196.581 122.839 196.236 123.623 193.721C124.159 192.046 124.097 190.238 123.447 188.605C123.171 187.858 122.675 187.213 122.025 186.755C120.469 185.669 117.661 185.525 116.517 187.925C116.145 188.705 116 189.535 115.969 190.402Z" fill="black"/>
<path fill-rule="evenodd" clip-rule="evenodd" d="M93.984 184.123C94.0418 184.39 94.1574 184.693 94.1605 184.998C94.1652 185.578 94.1027 186.157 94.0699 186.737V187.24L94.5605 186.865C95.9043 185.759 97.348 184.817 99.0293 184.309C102.064 183.395 105.095 185.056 106.084 188.146C106.459 189.321 106.607 190.529 106.621 191.757C106.653 194.485 106.671 197.213 106.7 199.942C106.709 200.921 106.821 201.096 107.748 201.379C108.275 201.536 108.813 201.656 109.357 201.737C109.656 201.784 109.784 201.901 109.768 202.193L109.771 202.462C109.761 203.592 109.682 203.643 108.587 203.64C105.965 203.635 103.345 203.651 100.723 203.673C99.9418 203.679 99.9402 203.703 99.8621 202.931L99.8465 202.487C99.8949 201.821 99.9105 201.828 100.565 201.731C101.006 201.665 101.443 201.563 101.873 201.451C102.315 201.337 102.528 201.01 102.587 200.573C102.617 200.351 102.656 200.129 102.654 199.907C102.617 196.926 102.665 193.942 102.503 190.965C102.371 188.557 100.534 187.123 98.1168 187.287C96.9516 187.368 95.8316 187.769 94.8808 188.448C94.2355 188.899 94.1058 189.551 94.109 190.253C94.1215 193.04 94.148 195.828 94.1777 198.617C94.184 199.228 94.2011 199.838 94.259 200.445C94.3199 201.107 94.5527 201.374 95.2027 201.518C95.8246 201.656 96.459 201.735 97.123 201.846L97.1793 202.359C97.2011 203.554 97.0761 203.643 95.9152 203.638C93.2043 203.628 90.4933 203.645 87.784 203.674C87.3574 203.681 87.1761 203.546 87.1871 203.131L87.1808 202.953C87.1105 201.876 87.1418 201.835 88.1605 201.66L88.6418 201.563C89.7449 201.315 90.0277 201.021 90.0433 199.901C90.0949 196.353 90.1136 192.806 90.1496 189.257C90.1543 188.748 89.9621 188.353 89.4871 188.142C88.8205 187.85 88.1501 187.566 87.4761 187.292C87.1043 187.138 86.6793 187.042 86.6652 186.528C86.6558 186.165 87.0433 185.845 87.573 185.737C88.6371 185.521 89.7105 185.342 90.7621 185.078C91.809 184.817 92.8371 184.467 93.984 184.123Z" fill="black"/>
<path fill-rule="evenodd" clip-rule="evenodd" d="M152.602 193.39C152.552 196.704 151.691 199.383 149.347 201.394C146.378 203.946 141.747 204.813 137.961 202.905C136.346 202.091 135.158 200.843 134.385 199.222C133.199 196.73 132.902 194.11 133.521 191.425C134.133 188.771 135.741 186.847 138.147 185.602C140.622 184.322 143.228 183.822 145.977 184.494C149.453 185.343 151.952 188.177 152.449 191.786C152.538 192.419 152.572 193.06 152.602 193.39ZM148.575 195.185L148.441 195.169C148.441 194.857 148.458 194.544 148.438 194.232C148.324 192.285 147.886 190.43 146.758 188.8C145.688 187.257 144.23 186.346 142.333 186.213C140.21 186.063 138.425 187.25 137.799 189.419C136.858 192.675 137.177 195.849 138.83 198.832C139.55 200.132 140.618 201.091 142.047 201.596C144.849 202.582 147.333 201.305 148.063 198.436C148.332 197.377 148.41 196.269 148.575 195.185Z" fill="black"/>
<path fill-rule="evenodd" clip-rule="evenodd" d="M83.7793 193.646C83.7215 196.024 83.1606 198.222 81.6918 200.133C80.1184 202.18 77.9559 203.274 75.4965 203.735C72.5887 204.279 69.8575 203.785 67.5215 201.833C66.4121 200.905 65.6543 199.716 65.1543 198.363C64.334 196.144 64.1293 193.871 64.634 191.554C65.1731 189.074 66.5731 187.179 68.7434 185.907C71.2528 184.44 73.9606 183.785 76.8528 184.444C80.5715 185.294 82.7184 187.718 83.5121 191.386C83.6715 192.127 83.6934 192.893 83.7793 193.646ZM79.7075 195.215L79.5997 195.199V194.752C79.5387 192.571 79.1121 190.493 77.8106 188.68C76.8465 187.335 75.5559 186.491 73.9012 186.255C71.2043 185.871 69.4418 187.471 68.8575 189.644C68.095 192.483 68.334 195.288 69.5137 197.98C70.2496 199.658 71.4121 200.966 73.1981 201.6C75.9825 202.59 78.5043 201.28 79.209 198.422C79.4684 197.377 79.5465 196.286 79.7075 195.215Z" fill="black"/>
<path fill-rule="evenodd" clip-rule="evenodd" d="M148.69 72.4141C150.607 77.9563 151.986 83.6141 152.44 89.4766C153.003 96.7516 152.746 103.977 151.212 111.131L151.015 111.703C150.534 111.705 150.043 111.644 149.573 111.717C145.6 112.342 141.631 112.989 137.661 113.633C133.556 114.298 129.448 114.938 125.351 115.647C123.9 115.897 122.103 115.598 121.517 117.605L121.236 117.7L121.434 105.703L121.232 76.7563L123.145 76.4281C126.271 75.9172 129.398 75.3969 132.529 74.8984C136.264 74.3063 140.001 73.7281 143.739 73.15C145.389 72.8969 147.04 72.6609 148.69 72.4141Z" fill="black"/>
<path fill-rule="evenodd" clip-rule="evenodd" d="M117.289 152.674C115.272 150.94 113.185 149.282 111.252 147.457C100.849 137.645 93.2378 126.093 89.4893 112.166C88.4565 108.335 87.769 104.44 87.5471 100.48C87.3909 97.7086 87.1675 94.9133 87.3643 92.1555C87.8846 84.8227 88.9456 77.5602 91.0956 70.4961L91.2143 70.332C91.4237 70.6102 91.7237 70.857 91.83 71.1711C93.93 77.3523 96.0128 83.5398 98.0862 89.732C104.6 109.187 111.107 128.646 117.632 148.098C117.76 148.477 118.089 148.788 118.327 149.13L117.289 152.674Z" fill="black"/>
<path fill-rule="evenodd" clip-rule="evenodd" d="M148.691 72.4125C147.04 72.6578 145.388 72.8953 143.74 73.1484C140.002 73.7266 136.265 74.3047 132.53 74.8969C129.4 75.3937 126.274 75.9141 123.146 76.4266L121.233 76.7547L121.218 75.5078C121.154 74.4828 121.047 73.4578 121.033 72.4328L120.819 52.8172C120.769 48.725 120.694 44.6328 120.611 40.5422C120.569 37.9997 120.496 35.4579 120.391 32.9172C120.329 31.5531 120.108 30.1953 120.021 28.8313C119.969 28.0469 120.038 27.2563 120.055 26.4688C121.03 28.3578 121.985 30.2609 122.986 32.1359C124.569 35.1 127.093 37.2844 129.366 39.6672C138.344 49.0906 144.718 60.0406 148.691 72.4125Z" fill="black"/>
<path fill-rule="evenodd" clip-rule="evenodd" d="M121.237 117.699L121.519 117.603C122.104 115.597 123.901 115.896 125.353 115.646C129.45 114.936 133.558 114.297 137.662 113.632C141.633 112.989 145.601 112.343 149.575 111.716C150.045 111.643 150.536 111.703 151.017 111.702C150.275 114.352 149.69 117.06 148.748 119.636C147.678 122.558 146.384 125.411 145.011 128.208C142.953 132.379 140.408 136.291 137.428 139.861C135.137 142.614 132.584 145.163 130.026 147.677C128.611 149.066 126.945 150.199 125.392 151.449L124.989 151.174L123.54 149.936L122.042 146.649C121.018 142.815 120.459 138.872 120.378 134.905L120.406 134.236L120.611 131.339C120.678 130.35 120.769 129.363 120.811 128.374C120.961 124.818 121.095 121.258 121.237 117.699Z" fill="black"/>
<path fill-rule="evenodd" clip-rule="evenodd" d="M121.237 117.697C121.097 121.256 120.962 124.817 120.811 128.377C120.769 129.367 120.679 130.355 120.611 131.342L119.698 131.688C117.67 125.717 115.64 119.809 113.656 113.888C110.373 104.089 107.131 94.2766 103.853 84.475C101.206 76.5646 98.5402 68.6604 95.8561 60.7625C95.7295 60.3938 95.3701 60.1031 95.1201 59.7766L100.964 49.0312C101.165 49.3797 101.429 49.7063 101.556 50.0813C104.259 58.0813 106.958 66.0828 109.633 74.0922C113.114 84.5141 116.572 94.9406 120.05 105.364C120.189 105.78 120.417 106.164 120.636 106.631L121.436 105.7L121.237 117.697Z" fill="black"/>
<path fill-rule="evenodd" clip-rule="evenodd" d="M95.1191 59.7773C95.3707 60.1039 95.7301 60.3945 95.8551 60.7633C98.5394 68.6611 101.205 76.5653 103.852 84.4758C107.13 94.2773 110.372 104.09 113.655 113.888C115.639 119.81 117.669 125.716 119.697 131.688L120.61 131.343L120.405 134.24L120.219 134.907C119.902 138.077 119.635 141.254 119.247 144.418C119.054 146.004 118.639 147.56 118.325 149.129C118.089 148.787 117.758 148.476 117.63 148.096C111.104 128.645 104.599 109.185 98.0848 89.7305C96.0122 83.5392 93.9268 77.3522 91.8285 71.1695C91.7223 70.8555 91.4223 70.6086 91.2129 70.3305L95.1191 59.7773Z" fill="black"/>
<path fill-rule="evenodd" clip-rule="evenodd" d="M121.435 105.702L120.635 106.634C120.416 106.166 120.188 105.782 120.049 105.366C116.571 94.943 113.113 84.5164 109.632 74.0945C106.953 66.0862 104.261 58.0825 101.555 50.0836C101.429 49.7086 101.164 49.382 100.963 49.0336L108.189 39.5273C108.418 39.8305 108.743 40.1008 108.86 40.443C110.866 46.318 112.854 52.1977 114.832 58.082C116.679 63.5789 118.497 69.082 120.366 74.5695C120.491 74.9367 120.927 75.1961 121.218 75.5086L121.233 76.7555L121.435 105.702Z" fill="black"/>
<path fill-rule="evenodd" clip-rule="evenodd" d="M121.218 75.5063C120.925 75.1953 120.491 74.9359 120.366 74.5672C118.499 69.0797 116.679 63.5766 114.832 58.0797C112.855 52.1953 110.864 46.3156 108.86 40.4406C108.743 40.0984 108.418 39.8281 108.189 39.525C110.539 37.2234 112.816 34.8391 115.261 32.6438C117.435 30.6938 119.182 28.6031 119.263 25.5203L119.435 24.9062L120.054 26.4656C120.038 27.2531 119.968 28.0438 120.019 28.8281C120.108 30.1922 120.329 31.55 120.389 32.9141C120.504 35.4531 120.558 37.9969 120.61 40.5391C120.693 44.6297 120.768 48.7219 120.818 52.8141L121.032 72.4297C121.047 73.4562 121.155 74.4813 121.218 75.5063Z" fill="black"/>
<path fill-rule="evenodd" clip-rule="evenodd" d="M118.326 149.129C118.64 147.56 119.054 146.004 119.248 144.418C119.636 141.255 119.903 138.077 120.22 134.907L120.3 134.895L120.378 134.909C120.459 138.876 121.018 142.819 122.042 146.652C121.831 146.93 121.536 147.176 121.423 147.488C120.556 149.935 119.737 152.402 118.865 154.848C118.746 155.182 118.412 155.443 118.179 155.735L117.287 152.673L118.326 149.129Z" fill="black"/>
<path fill-rule="evenodd" clip-rule="evenodd" d="M118.18 155.735C118.413 155.441 118.747 155.182 118.866 154.848C119.737 152.402 120.556 149.935 121.423 147.488C121.534 147.176 121.831 146.93 122.042 146.652L123.541 149.94C123.245 150.359 122.836 150.738 122.672 151.205L119.803 159.63C119.684 159.97 119.283 160.207 119.011 160.493L118.18 155.735Z" fill="black"/>
<path fill-rule="evenodd" clip-rule="evenodd" d="M119.011 160.491C119.281 160.205 119.684 159.967 119.803 159.628L122.672 151.203C122.834 150.736 123.245 150.356 123.54 149.938L124.99 151.173C124.29 151.866 123.901 152.666 124.136 153.677L123.695 155.119C123.495 155.366 123.204 155.581 123.106 155.864C122.104 158.733 121.15 161.617 120.14 164.484C120.012 164.847 119.658 165.133 119.409 165.455L119.011 160.491Z" fill="black"/>
<path fill-rule="evenodd" clip-rule="evenodd" d="M119.408 165.453C119.658 165.131 120.012 164.845 120.139 164.483C121.148 161.616 122.104 158.731 123.104 155.863C123.203 155.58 123.494 155.366 123.694 155.117L123.086 161.736C122.923 161.923 122.689 162.087 122.611 162.305L120.589 168.098C120.447 168.494 120.175 168.847 119.962 169.217C119.773 168.97 119.436 168.731 119.42 168.475C119.361 167.472 119.403 166.461 119.408 165.453Z" fill="black"/>
<path fill-rule="evenodd" clip-rule="evenodd" d="M119.964 169.22C120.176 168.849 120.448 168.496 120.59 168.101L122.612 162.307C122.69 162.088 122.926 161.926 123.087 161.738L123.103 166.082L121.648 169.812L119.964 169.22Z" fill="black"/>
<path fill-rule="evenodd" clip-rule="evenodd" d="M121.648 169.812L123.103 166.082L123.403 170.495L121.648 169.812Z" fill="black"/>
<path fill-rule="evenodd" clip-rule="evenodd" d="M124.134 153.679C123.901 152.67 124.289 151.87 124.989 151.176L125.392 151.451L124.134 153.679Z" fill="black"/>
<path fill-rule="evenodd" clip-rule="evenodd" d="M120.379 134.911L120.3 134.897L120.221 134.909L120.407 134.242L120.379 134.911Z" fill="black"/>
</g>
<defs>
<filter id="filter0_d_3132_3855" x="-4" y="0" width="248" height="248" filterUnits="userSpaceOnUse" color-interpolation-filters="sRGB">
<feFlood flood-opacity="0" result="BackgroundImageFix"/>
<feColorMatrix in="SourceAlpha" type="matrix" values="0 0 0 0 0 0 0 0 0 0 0 0 0 0 0 0 0 0 127 0" result="hardAlpha"/>
<feOffset dy="4"/>
<feGaussianBlur stdDeviation="2"/>
<feComposite in2="hardAlpha" operator="out"/>
<feColorMatrix type="matrix" values="0 0 0 0 0 0 0 0 0 0 0 0 0 0 0 0 0 0 0.25 0"/>
<feBlend mode="normal" in2="BackgroundImageFix" result="effect1_dropShadow_3132_3855"/>
<feBlend mode="normal" in="SourceGraphic" in2="effect1_dropShadow_3132_3855" result="shape"/>
</filter>
</defs>
</svg>
