<svg width="240" height="240" viewBox="0 0 240 240" fill="none" xmlns="http://www.w3.org/2000/svg">
<path d="M48 170.6V67.7C48 67 48.3 66.6 49 66.6C50.7 66.6 52.3 66.6 54.6 66.5C57 66.4 59.5 66.4 62.2 66.3C64.9 66.2 67.8 66.2 70.9 66.1C74 66 77 66 80 66C88.2 66 95 67 100.6 69.1C105.6 70.8 110.2 73.6 114 77.3C117.2 80.5 119.7 84.4 121.3 88.7C122.8 92.9 123.6 97.2 123.6 101.7C123.6 110.3 121.6 117.4 117.6 123C113.6 128.6 108 132.8 101.5 135.2C94.7 137.7 87.2 138.6 79 138.6C76.6 138.6 75 138.6 74 138.5C73 138.4 71.6 138.4 69.7 138.4V170.5C69.8 171.2 69.3 171.8 68.6 171.9H49.2C48.4 171.9 48 171.5 48 170.6ZM69.8 85.9V119.5C71.2 119.6 72.5 119.7 73.7 119.7H79C82.9 119.7 86.8 119.1 90.5 117.9C93.7 117 96.5 115.1 98.7 112.6C100.8 110.1 101.8 106.7 101.8 102.3C101.9 99.2 101.1 96.1 99.5 93.4C97.8 90.8 95.4 88.8 92.5 87.7C88.8 86.2 84.8 85.6 80.7 85.7C78.1 85.7 75.8 85.7 73.9 85.8C71.9 85.7 70.5 85.8 69.8 85.9ZM186 113.4C183 111.8 179.8 110.7 176.4 110C172.7 109.2 169 108.7 165.2 108.7C163.2 108.6 161.1 108.9 159.2 109.4C157.9 109.7 156.8 110.4 156.1 111.4C155.6 112.2 155.3 113.2 155.3 114.1C155.3 115 155.7 115.9 156.3 116.7C157.2 117.8 158.4 118.7 159.7 119.4C162 120.6 164.4 121.7 166.8 122.7C172.2 124.5 177.4 127 182.2 130C185.5 132.1 188.2 134.9 190.1 138.3C191.7 141.5 192.5 145 192.4 148.6C192.5 153.3 191.1 158 188.5 161.9C185.7 165.9 181.8 169 177.3 170.8C172.4 172.9 166.4 174 159.2 174C154.6 174 150.1 173.6 145.6 172.7C142.1 172.1 138.6 171 135.4 169.5C134.7 169.1 134.2 168.4 134.3 167.6V150.2C134.3 149.9 134.4 149.5 134.7 149.3C135 149.1 135.3 149.2 135.6 149.4C139.5 151.7 143.6 153.3 148 154.3C151.8 155.3 155.8 155.8 159.8 155.8C163.6 155.8 166.3 155.3 168.1 154.4C169.7 153.7 170.8 152 170.8 150.2C170.8 148.8 170 147.5 168.4 146.2C166.8 144.9 163.5 143.4 158.6 141.5C153.5 139.7 148.8 137.3 144.4 134.3C141.3 132.1 138.7 129.2 136.8 125.8C135.2 122.6 134.4 119.1 134.5 115.6C134.5 111.3 135.7 107.2 137.9 103.5C140.4 99.5 144.1 96.3 148.4 94.3C153.1 91.9 159 90.8 166.1 90.8C170.2 90.8 174.4 91.1 178.5 91.7C181.5 92.1 184.4 92.9 187.1 94C187.5 94.1 187.9 94.5 188.1 94.9C188.2 95.3 188.3 95.7 188.3 96.1V112.4C188.3 112.8 188.1 113.2 187.8 113.4C186.9 113.6 186.4 113.6 186 113.4Z" fill="black"/>
</svg>
