<svg width="240" height="240" viewBox="0 0 240 240" fill="none" xmlns="http://www.w3.org/2000/svg">
<g filter="url(#filter0_d_3132_3413)">
<path fill-rule="evenodd" clip-rule="evenodd" d="M156.342 176.469C156.606 175.961 156.859 175.512 157.075 175.048C157.211 174.751 157.42 174.692 157.716 174.7C159.486 174.75 161.256 174.805 163.028 174.822C164.533 174.837 166.041 174.809 167.547 174.792C169.244 174.772 170.941 174.683 172.636 174.731C174.894 174.797 177.094 175.239 179.136 176.244C181.575 177.445 183.42 179.275 184.678 181.686C185.469 183.215 185.963 184.879 186.133 186.592C186.402 189.105 186.225 191.559 185.428 193.962C184.441 196.94 182.566 199.22 179.961 200.928C177.956 202.242 175.758 203.019 173.402 203.462C170.908 203.933 168.406 203.781 165.905 203.789C163.161 203.8 160.419 203.74 157.675 203.709C157.195 203.705 157.127 203.614 157.253 203.156L157.37 202.734C157.638 201.894 157.781 201.856 158.634 201.715C159.239 201.62 159.818 201.401 160.333 201.07C160.62 200.88 160.739 200.383 160.852 200C160.949 199.665 160.953 199.298 160.956 198.945C160.995 193.594 161.036 188.244 161.058 182.895C161.064 181.542 161.03 180.19 160.956 178.839C160.903 177.894 160.399 177.247 159.274 177.023C158.399 176.85 157.517 176.715 156.638 176.561L156.342 176.469ZM181.461 189.426C181.342 188.361 181.284 187.286 181.094 186.236C180.638 183.715 179.534 181.52 177.597 179.8C174.464 177.02 170.692 176.592 166.739 176.923C165.839 176.998 165.645 177.306 165.631 178.231C165.609 179.544 165.588 180.856 165.586 182.169C165.58 186.331 165.58 190.494 165.586 194.656C165.588 195.84 165.6 197.025 165.634 198.206C165.672 199.415 166.111 200.439 167.295 200.908C169.163 201.647 171.127 201.734 173.086 201.433C176.216 200.953 178.405 199.13 179.874 196.397C181.036 194.228 181.364 191.861 181.461 189.426ZM189.069 203.6C189.031 202.951 189.297 202.415 189.625 201.923C189.714 201.79 190.02 201.797 190.231 201.755L192.022 201.4C192.655 201.265 192.988 200.84 193.077 200.22C193.136 199.811 193.192 199.397 193.197 198.983C193.239 195.706 193.27 192.43 193.289 189.153C193.305 185.872 193.292 182.59 193.292 179.309L193.278 178.683C193.214 177.628 192.705 177.081 191.658 176.926L189.388 176.581C189.108 176.544 189.006 176.409 189.108 176.161C189.283 175.737 189.45 175.298 189.697 174.917C189.789 174.776 190.1 174.722 190.309 174.726C191.394 174.742 192.478 174.823 193.563 174.822L203.002 174.765C204.82 174.764 206.577 175.081 208.208 175.951C210.003 176.908 211.008 178.387 211.295 180.403C211.595 182.52 210.953 184.305 209.406 185.722C208.77 186.306 207.947 186.687 207.209 187.162L206.969 187.312C207.653 187.564 208.305 187.781 208.939 188.04C210.795 188.801 212.272 189.99 213.053 191.889C213.67 193.387 213.67 194.95 213.305 196.503C212.736 198.934 211.134 200.551 209.052 201.775C207.097 202.923 204.981 203.592 202.728 203.705C200.65 203.809 198.563 203.77 196.48 203.794L195.274 203.8C193.266 203.754 191.259 203.704 189.252 203.65L189.069 203.6ZM197.72 194.086H197.741C197.741 195.114 197.727 196.142 197.745 197.17C197.758 197.836 197.734 198.52 197.878 199.161C198.094 200.119 198.531 200.983 199.606 201.258C201.043 201.635 202.545 201.701 204.009 201.451C205.849 201.131 207.316 200.209 208.12 198.458C208.717 197.156 208.806 195.776 208.602 194.367C208.33 192.511 207.344 191.164 205.705 190.281C204.63 189.701 203.483 189.347 202.261 189.3C200.892 189.248 199.522 189.245 198.153 189.203C197.769 189.192 197.716 189.387 197.717 189.703C197.725 191.162 197.72 192.623 197.72 194.086ZM200.634 187.094C201.383 187.056 202.23 187.045 203.072 186.961C204.684 186.8 205.82 185.989 206.413 184.447C206.714 183.664 206.702 182.858 206.709 182.044C206.733 179.923 205.495 178.186 203.481 177.467C201.927 176.912 200.324 176.903 198.711 176.947C198.058 176.964 197.766 177.25 197.756 177.908L197.659 186.484C197.655 186.825 197.802 186.972 198.133 186.983L200.634 187.094Z" fill="white"/>
<path fill-rule="evenodd" clip-rule="evenodd" d="M36.4734 201.95L36.3594 203.425C35.2969 203.425 34.3172 203.417 33.3375 203.428C31.4922 203.447 29.6469 203.477 27.8 203.503L27.6219 203.514C27.3578 203.483 26.8781 203.483 26.8656 203.405C26.7875 202.966 26.8125 202.505 26.8328 202.05C26.8344 201.998 27.0141 201.933 27.1188 201.908L28.5547 201.588C29.45 201.355 29.7656 200.969 29.8078 200.044C29.8563 199.002 29.9047 197.958 29.9094 196.916C29.9234 194.35 29.9078 191.787 29.9188 189.222C29.9203 188.622 29.7125 188.175 29.1531 187.931C28.4884 187.636 27.8191 187.352 27.1453 187.078C26.8266 186.95 26.4125 186.88 26.45 186.452C26.4875 186.016 26.8891 185.902 27.2672 185.816C28.8328 185.458 30.4 185.109 31.9609 184.728C32.4641 184.605 32.9453 184.397 33.5469 184.188C33.5781 184.513 33.6359 184.822 33.6297 185.131L33.5375 186.602C33.5359 186.767 33.6219 186.989 33.7453 187.081C33.8203 187.139 34.0719 187.034 34.1969 186.937C35.5313 185.922 36.9438 185.045 38.5547 184.534C41.05 183.742 43.1922 184.477 44.6922 186.628C45.2203 187.386 45.2219 187.386 45.9547 186.856C47.2125 185.942 48.5281 185.136 50 184.605C53.2313 183.437 56.3359 184.919 57.4594 188.173C57.8688 189.355 58.025 190.575 58.0219 191.822L57.9922 200.1C57.9906 200.783 58.2172 201.172 58.8672 201.384C59.5969 201.623 60.3531 201.788 61.175 202.003L60.9844 203.427C60.05 203.427 59.1906 203.42 58.3313 203.428C56.2313 203.447 54.1313 203.458 52.0328 203.506C51.6672 203.516 51.5719 203.425 51.5531 203.083C51.4922 201.987 51.4828 201.989 52.5141 201.742L52.8609 201.653C53.8688 201.378 54.2047 201.069 54.2125 200.047C54.2359 197.113 54.2969 194.17 54.1484 191.242C53.9938 188.205 51.5828 186.587 48.6391 187.366C47.689 187.626 46.7942 188.057 45.9984 188.637C45.725 188.833 45.6734 189.058 45.6953 189.4C45.7781 190.694 45.8297 191.989 45.8406 193.284C45.8594 195.552 45.8313 197.819 45.8406 200.087C45.8438 201.006 46.1578 201.358 47.0656 201.57L48.4141 201.881L48.6641 201.938C48.6828 202.369 48.7 202.8 48.6797 203.231C48.6672 203.502 48.4578 203.525 48.2234 203.52C46.9125 203.488 45.6 203.444 44.2891 203.447C42.6938 203.45 41.1 203.495 39.5063 203.523H39.1313C39.1313 203.066 39.1094 202.628 39.1469 202.192C39.1547 202.087 39.3391 201.941 39.4656 201.908L41.0375 201.575C41.7047 201.411 42.0234 201.069 42.0609 200.391C42.2391 197.25 42.3672 194.108 42.0719 190.969C41.9999 190.349 41.8279 189.745 41.5625 189.18C40.7578 187.402 38.9469 186.659 36.8578 187.194C35.8656 187.447 34.9703 187.902 34.1234 188.475C33.9388 188.589 33.7871 188.749 33.6835 188.939C33.5798 189.13 33.5279 189.344 33.5328 189.561C33.5328 192.694 33.5438 195.827 33.5531 198.958L33.5703 200.166C33.5891 201.008 33.9469 201.452 34.7828 201.633C35.3203 201.755 35.8641 201.837 36.4734 201.95Z" fill="white"/>
<path fill-rule="evenodd" clip-rule="evenodd" d="M130.939 184.506C131.181 185.685 131.177 186.744 130.311 187.547C129.452 188.346 128.364 188.077 127.303 187.899C127.402 188.458 127.511 188.933 127.564 189.414C127.95 192.991 126.411 195.646 123.094 197.163C121.841 197.735 120.511 197.947 119.153 198.056C118.478 198.11 117.888 198.625 117.823 199.18C117.758 199.742 118.111 200.321 118.817 200.489C119.65 200.688 120.519 200.744 121.373 200.842C123.208 201.052 125.063 201.147 126.875 201.475C129.616 201.969 131.145 204.361 130.663 207.114C130.233 209.564 128.814 211.347 126.836 212.714C123.503 215.024 119.847 215.699 115.953 214.521C113.727 213.846 112.156 212.381 111.614 210.013C111.342 208.827 111.631 207.753 112.523 206.949C113.584 205.996 114.739 205.146 115.85 204.246L116.209 203.885L115.797 203.596C114.664 203.058 113.758 202.322 113.406 201.044C113.286 200.611 113.411 200.327 113.778 200.105C114.403 199.728 115.025 199.346 115.642 198.956C115.933 198.775 116.22 198.588 116.491 198.378C116.859 198.097 116.827 197.888 116.386 197.725C115.361 197.347 114.45 196.799 113.744 195.955C112.564 194.547 112.23 192.871 112.327 191.1C112.478 188.335 113.98 186.513 116.42 185.341C119.322 183.949 122.233 183.861 125.191 185.13C126.284 185.599 127.438 185.699 128.611 185.617C129.488 185.555 130.253 185.224 130.939 184.506ZM120.247 204.321C118.069 204.302 117.386 204.571 116.108 205.872C114.677 207.331 114.684 209.355 116.113 210.821C117.197 211.931 118.55 212.452 120.055 212.608C121.813 212.789 123.544 212.716 125.141 211.836C126.844 210.894 127.691 209.144 127.308 207.381C126.991 205.927 125.919 205.261 124.614 204.878C123.13 204.444 121.595 204.361 120.247 204.321ZM115.969 190.402C116.048 191.006 116.081 191.619 116.216 192.211C116.564 193.746 117.231 195.094 118.758 195.777C120.55 196.581 122.839 196.236 123.623 193.721C124.159 192.046 124.097 190.238 123.447 188.605C123.171 187.858 122.676 187.213 122.025 186.755C120.469 185.669 117.661 185.525 116.517 187.925C116.145 188.705 116 189.535 115.969 190.402Z" fill="white"/>
<path fill-rule="evenodd" clip-rule="evenodd" d="M93.9843 184.123C94.0421 184.39 94.1578 184.693 94.1609 184.998C94.1656 185.578 94.1031 186.157 94.0703 186.737V187.24L94.5609 186.865C95.9046 185.759 97.3484 184.817 99.0296 184.309C102.064 183.395 105.095 185.056 106.084 188.146C106.459 189.321 106.608 190.529 106.622 191.757C106.653 194.485 106.672 197.213 106.7 199.942C106.709 200.921 106.822 201.096 107.748 201.379C108.276 201.536 108.813 201.656 109.358 201.737C109.656 201.784 109.784 201.901 109.769 202.193L109.772 202.462C109.761 203.592 109.683 203.643 108.587 203.64C105.966 203.635 103.345 203.651 100.723 203.673C99.9421 203.679 99.9406 203.703 99.8624 202.931L99.8468 202.487C99.8953 201.821 99.9109 201.828 100.566 201.731C101.006 201.665 101.444 201.563 101.873 201.451C102.316 201.337 102.528 201.01 102.587 200.573C102.617 200.351 102.656 200.129 102.655 199.907C102.617 196.926 102.666 193.942 102.503 190.965C102.372 188.557 100.534 187.123 98.1171 187.287C96.952 187.368 95.8319 187.769 94.8812 188.448C94.2359 188.899 94.1062 189.551 94.1093 190.253C94.1218 193.04 94.1484 195.828 94.1781 198.617C94.1843 199.228 94.2015 199.838 94.2593 200.445C94.3203 201.107 94.5531 201.374 95.2031 201.518C95.8249 201.656 96.4593 201.735 97.1234 201.846L97.1796 202.359C97.2015 203.554 97.0765 203.643 95.9156 203.638C93.2046 203.628 90.4937 203.645 87.7843 203.674C87.3578 203.681 87.1765 203.546 87.1874 203.131L87.1812 202.953C87.1109 201.876 87.1421 201.835 88.1609 201.66L88.6421 201.563C89.7453 201.315 90.0281 201.021 90.0437 199.901C90.0953 196.353 90.114 192.806 90.1499 189.257C90.1546 188.748 89.9624 188.353 89.4874 188.142C88.8208 187.85 88.1505 187.566 87.4765 187.292C87.1046 187.138 86.6796 187.042 86.6656 186.528C86.6562 186.165 87.0437 185.845 87.5734 185.737C88.6374 185.521 89.7109 185.342 90.7624 185.078C91.8093 184.817 92.8374 184.467 93.9843 184.123Z" fill="white"/>
<path fill-rule="evenodd" clip-rule="evenodd" d="M152.601 193.39C152.551 196.704 151.691 199.383 149.347 201.394C146.378 203.946 141.747 204.813 137.961 202.905C136.345 202.091 135.158 200.843 134.384 199.222C133.198 196.73 132.901 194.11 133.52 191.425C134.133 188.771 135.741 186.847 138.147 185.602C140.622 184.322 143.228 183.822 145.976 184.494C149.453 185.343 151.951 188.177 152.448 191.786C152.537 192.419 152.572 193.06 152.601 193.39ZM148.575 195.185L148.441 195.169C148.441 194.857 148.458 194.544 148.437 194.232C148.323 192.285 147.886 190.43 146.758 188.8C145.687 187.257 144.23 186.346 142.333 186.213C140.209 186.063 138.425 187.25 137.798 189.419C136.858 192.675 137.176 195.849 138.83 198.832C139.55 200.132 140.617 201.091 142.047 201.596C144.848 202.582 147.333 201.305 148.062 198.436C148.331 197.377 148.409 196.269 148.575 195.185Z" fill="white"/>
<path fill-rule="evenodd" clip-rule="evenodd" d="M83.7797 193.646C83.7219 196.024 83.161 198.222 81.6922 200.133C80.1188 202.18 77.9563 203.274 75.4969 203.735C72.5891 204.279 69.8578 203.785 67.5219 201.833C66.4125 200.905 65.6547 199.716 65.1547 198.363C64.3344 196.144 64.1297 193.871 64.6344 191.554C65.1735 189.074 66.5735 187.179 68.7438 185.907C71.2531 184.44 73.961 183.785 76.8531 184.444C80.5719 185.294 82.7188 187.718 83.5125 191.386C83.6719 192.127 83.6938 192.893 83.7797 193.646ZM79.7078 195.215L79.6 195.199V194.752C79.5391 192.571 79.1125 190.493 77.811 188.68C76.8469 187.335 75.5563 186.491 73.9016 186.255C71.2047 185.871 69.4422 187.471 68.8578 189.644C68.0953 192.483 68.3344 195.288 69.5141 197.98C70.25 199.658 71.4125 200.966 73.1985 201.6C75.9828 202.59 78.5047 201.28 79.2094 198.422C79.4688 197.377 79.5469 196.286 79.7078 195.215Z" fill="white"/>
<path fill-rule="evenodd" clip-rule="evenodd" d="M148.691 72.4141C150.608 77.9563 151.986 83.6141 152.441 89.4766C153.003 96.7516 152.747 103.977 151.213 111.131L151.016 111.703C150.534 111.705 150.044 111.644 149.574 111.717C145.6 112.342 141.631 112.989 137.661 113.633C133.556 114.298 129.449 114.938 125.352 115.647C123.9 115.897 122.103 115.598 121.517 117.605L121.236 117.7L121.434 105.703L121.233 76.7563L123.145 76.4281C126.272 75.9172 129.399 75.3969 132.53 74.8984C136.264 74.3063 140.002 73.7281 143.739 73.15C145.389 72.8969 147.041 72.6609 148.691 72.4141Z" fill="white"/>
<path fill-rule="evenodd" clip-rule="evenodd" d="M117.289 152.674C115.272 150.94 113.184 149.282 111.252 147.457C100.848 137.645 93.2375 126.093 89.4891 112.166C88.4563 108.335 87.7688 104.44 87.5469 100.48C87.3906 97.7086 87.1672 94.9133 87.3641 92.1555C87.8844 84.8227 88.9453 77.5602 91.0953 70.4961L91.2141 70.332C91.4235 70.6102 91.7235 70.857 91.8297 71.1711C93.9297 77.3523 96.0125 83.5398 98.086 89.732C104.6 109.187 111.106 128.646 117.631 148.098C117.759 148.477 118.089 148.788 118.327 149.13L117.289 152.674Z" fill="white"/>
<path fill-rule="evenodd" clip-rule="evenodd" d="M148.691 72.4125C147.039 72.6578 145.387 72.8953 143.739 73.1484C140.002 73.7266 136.264 74.3047 132.53 74.8969C129.4 75.3937 126.273 75.9141 123.145 76.4266L121.233 76.7547L121.217 75.5078C121.153 74.4828 121.047 73.4578 121.033 72.4328L120.819 52.8172C120.769 48.725 120.694 44.6328 120.611 40.5422C120.569 37.9997 120.495 35.4579 120.391 32.9172C120.328 31.5531 120.108 30.1953 120.02 28.8313C119.969 28.0469 120.038 27.2563 120.055 26.4688C121.03 28.3578 121.984 30.2609 122.986 32.1359C124.569 35.1 127.092 37.2844 129.366 39.6672C138.344 49.0906 144.717 60.0406 148.691 72.4125Z" fill="white"/>
<path fill-rule="evenodd" clip-rule="evenodd" d="M121.238 117.699L121.519 117.603C122.105 115.597 123.902 115.896 125.353 115.646C129.45 114.936 133.558 114.297 137.663 113.632C141.633 112.989 145.602 112.343 149.575 111.716C150.045 111.643 150.536 111.703 151.017 111.702C150.275 114.352 149.691 117.06 148.748 119.636C147.678 122.558 146.384 125.411 145.011 128.208C142.954 132.379 140.408 136.291 137.428 139.861C135.138 142.614 132.584 145.163 130.027 147.677C128.611 149.066 126.945 150.199 125.392 151.449L124.989 151.174L123.541 149.936L122.042 146.649C121.018 142.815 120.46 138.872 120.378 134.905L120.406 134.236L120.611 131.339C120.678 130.35 120.769 129.363 120.811 128.374C120.961 124.818 121.095 121.258 121.238 117.699Z" fill="white"/>
<path fill-rule="evenodd" clip-rule="evenodd" d="M121.238 117.697C121.097 121.256 120.963 124.817 120.811 128.377C120.769 129.367 120.68 130.355 120.611 131.342L119.698 131.688C117.67 125.717 115.641 119.809 113.656 113.888C110.373 104.089 107.131 94.2766 103.853 84.475C101.206 76.5646 98.5404 68.6604 95.8563 60.7625C95.7297 60.3938 95.3704 60.1031 95.1204 59.7766L100.964 49.0312C101.166 49.3797 101.43 49.7063 101.556 50.0813C104.259 58.0813 106.958 66.0828 109.633 74.0922C113.114 84.5141 116.572 94.9406 120.05 105.364C120.189 105.78 120.417 106.164 120.636 106.631L121.436 105.7L121.238 117.697Z" fill="white"/>
<path fill-rule="evenodd" clip-rule="evenodd" d="M95.1188 59.7773C95.3703 60.1039 95.7297 60.3945 95.8547 60.7633C98.5391 68.6611 101.205 76.5653 103.852 84.4758C107.13 94.2773 110.372 104.09 113.655 113.888C115.639 119.81 117.669 125.716 119.697 131.688L120.609 131.343L120.405 134.24L120.219 134.907C119.902 138.077 119.634 141.254 119.247 144.418C119.053 146.004 118.639 147.56 118.325 149.129C118.089 148.787 117.758 148.476 117.63 148.096C111.103 128.645 104.598 109.185 98.0844 89.7305C96.0119 83.5392 93.9264 77.3522 91.8282 71.1695C91.7219 70.8555 91.4219 70.6086 91.2125 70.3305L95.1188 59.7773Z" fill="white"/>
<path fill-rule="evenodd" clip-rule="evenodd" d="M121.434 105.702L120.634 106.634C120.416 106.166 120.188 105.782 120.048 105.366C116.57 94.943 113.113 84.5164 109.631 74.0945C106.953 66.0862 104.261 58.0825 101.555 50.0836C101.428 49.7086 101.164 49.382 100.963 49.0336L108.189 39.5273C108.417 39.8305 108.742 40.1008 108.859 40.443C110.866 46.318 112.853 52.1977 114.831 58.082C116.678 63.5789 118.497 69.082 120.366 74.5695C120.491 74.9367 120.927 75.1961 121.217 75.5086L121.233 76.7555L121.434 105.702Z" fill="white"/>
<path fill-rule="evenodd" clip-rule="evenodd" d="M121.217 75.5063C120.925 75.1953 120.491 74.9359 120.366 74.5672C118.498 69.0797 116.678 63.5766 114.831 58.0797C112.855 52.1953 110.864 46.3156 108.859 40.4406C108.742 40.0984 108.417 39.8281 108.189 39.525C110.539 37.2234 112.816 34.8391 115.261 32.6438C117.434 30.6938 119.181 28.6031 119.262 25.5203L119.434 24.9062L120.053 26.4656C120.037 27.2531 119.967 28.0438 120.019 28.8281C120.108 30.1922 120.328 31.55 120.389 32.9141C120.503 35.4531 120.558 37.9969 120.609 40.5391C120.692 44.6297 120.767 48.7219 120.817 52.8141L121.031 72.4297C121.047 73.4562 121.155 74.4813 121.217 75.5063Z" fill="white"/>
<path fill-rule="evenodd" clip-rule="evenodd" d="M118.327 149.129C118.641 147.56 119.055 146.004 119.249 144.418C119.636 141.255 119.903 138.077 120.22 134.907L120.3 134.895L120.378 134.909C120.46 138.876 121.018 142.819 122.042 146.652C121.831 146.93 121.536 147.176 121.424 147.488C120.556 149.935 119.738 152.402 118.866 154.848C118.747 155.182 118.413 155.443 118.18 155.735L117.288 152.673L118.327 149.129Z" fill="white"/>
<path fill-rule="evenodd" clip-rule="evenodd" d="M118.18 155.735C118.413 155.441 118.747 155.182 118.866 154.848C119.737 152.402 120.556 149.935 121.423 147.488C121.534 147.176 121.831 146.93 122.042 146.652L123.541 149.94C123.245 150.359 122.836 150.738 122.672 151.205L119.803 159.63C119.684 159.97 119.283 160.207 119.011 160.493L118.18 155.735Z" fill="white"/>
<path fill-rule="evenodd" clip-rule="evenodd" d="M119.011 160.491C119.281 160.205 119.684 159.967 119.803 159.628L122.672 151.203C122.834 150.736 123.245 150.356 123.541 149.938L124.991 151.173C124.291 151.866 123.902 152.666 124.136 153.677L123.695 155.119C123.495 155.366 123.205 155.581 123.106 155.864C122.105 158.733 121.15 161.617 120.141 164.484C120.013 164.847 119.658 165.133 119.409 165.455L119.011 160.491Z" fill="white"/>
<path fill-rule="evenodd" clip-rule="evenodd" d="M119.408 165.453C119.658 165.131 120.013 164.845 120.139 164.483C121.148 161.616 122.105 158.731 123.105 155.863C123.203 155.58 123.494 155.366 123.694 155.117L123.086 161.736C122.923 161.923 122.689 162.087 122.611 162.305L120.589 168.098C120.447 168.494 120.175 168.847 119.963 169.217C119.773 168.97 119.436 168.731 119.42 168.475C119.361 167.472 119.403 166.461 119.408 165.453Z" fill="white"/>
<path fill-rule="evenodd" clip-rule="evenodd" d="M119.964 169.22C120.177 168.849 120.448 168.496 120.591 168.101L122.613 162.307C122.691 162.088 122.927 161.926 123.088 161.738L123.103 166.082L121.648 169.812L119.964 169.22Z" fill="white"/>
<path fill-rule="evenodd" clip-rule="evenodd" d="M121.648 169.812L123.103 166.082L123.403 170.495L121.648 169.812Z" fill="white"/>
<path fill-rule="evenodd" clip-rule="evenodd" d="M124.134 153.679C123.902 152.67 124.289 151.87 124.989 151.176L125.392 151.451L124.134 153.679Z" fill="white"/>
<path fill-rule="evenodd" clip-rule="evenodd" d="M120.378 134.911L120.3 134.897L120.22 134.909L120.406 134.242L120.378 134.911Z" fill="white"/>
</g>
<defs>
<filter id="filter0_d_3132_3413" x="-4" y="0" width="248" height="248" filterUnits="userSpaceOnUse" color-interpolation-filters="sRGB">
<feFlood flood-opacity="0" result="BackgroundImageFix"/>
<feColorMatrix in="SourceAlpha" type="matrix" values="0 0 0 0 0 0 0 0 0 0 0 0 0 0 0 0 0 0 127 0" result="hardAlpha"/>
<feOffset dy="4"/>
<feGaussianBlur stdDeviation="2"/>
<feComposite in2="hardAlpha" operator="out"/>
<feColorMatrix type="matrix" values="0 0 0 0 0 0 0 0 0 0 0 0 0 0 0 0 0 0 0.25 0"/>
<feBlend mode="normal" in2="BackgroundImageFix" result="effect1_dropShadow_3132_3413"/>
<feBlend mode="normal" in="SourceGraphic" in2="effect1_dropShadow_3132_3413" result="shape"/>
</filter>
</defs>
</svg>
