<svg width="240" height="242" viewBox="0 0 240 242" fill="none" xmlns="http://www.w3.org/2000/svg">
<rect y="1" width="240" height="240" rx="36" fill="#F8F8F8"/>
<path d="M101.601 125.506H115.63L108.201 112.47L94.5885 136.011H88.4053L104.931 107.736C105.644 106.569 106.835 105.922 108.201 105.922C109.507 105.922 110.697 106.569 111.411 107.675L127.997 135.95H121.814L118.9 130.695H104.695L101.601 125.506ZM165.861 130.761V106.25H160.631V133.161C160.631 133.873 160.868 134.586 161.405 135.172C161.882 135.692 162.595 136.016 163.308 136.016H187.264L190.353 130.761H165.861ZM79.0124 126.35C84.1256 126.35 88.2249 121.873 88.2249 116.3C88.2249 110.727 84.0655 106.25 79.0124 106.25H56.0069V136.016H61.2362V111.505H78.5955C81.0319 111.505 82.9956 113.647 82.9956 116.305C82.9956 118.963 81.0319 121.105 78.5955 121.105H63.7928L79.485 136.02H87.0948L76.5717 126.359L79.0124 126.35ZM23.6729 136.016C16.1233 136.016 10.0002 129.336 10.0002 121.1C10.0002 112.864 16.1233 106.184 23.6729 106.184H39.5455C47.0951 106.184 53.2182 112.864 53.2182 121.1C53.2182 129.336 47.0951 136.016 39.5455 136.016H23.6729ZM39.1889 130.761C44.0616 130.761 48.0448 126.481 48.0448 121.166C48.0448 115.85 44.0616 111.505 39.1889 111.505H24.0295C19.1569 111.505 15.1737 115.85 15.1737 121.166C15.1737 126.481 19.1569 130.761 24.0295 130.761H39.1889ZM138.932 136.016C131.383 136.016 125.26 129.336 125.26 121.1C125.26 112.864 131.383 106.184 138.932 106.184H157.774L154.685 111.439H139.229C134.356 111.439 130.373 115.784 130.373 121.1C130.373 126.416 134.356 130.695 139.229 130.695H158.191L155.101 135.95H138.932V136.016ZM203.192 130.761C199.149 130.761 195.763 127.841 194.693 123.758H217.161L220.251 118.503H194.689C195.758 114.481 199.149 111.5 203.188 111.5H218.583L221.673 106.245H202.831C195.282 106.245 189.158 112.925 189.158 121.161C189.158 129.397 195.282 136.077 202.831 136.077H219L222.09 130.822H203.188" fill="#EA1B22"/>
<path d="M224.53 109.363C224.53 107.938 225.6 106.77 226.906 106.77C228.273 106.77 229.343 107.938 229.343 109.363C229.343 110.853 228.273 112.02 226.906 112.02C225.54 112.02 224.53 110.853 224.53 109.363ZM226.911 112.733C228.634 112.733 230 111.242 230 109.363C230 107.483 228.634 105.992 226.911 105.992C225.248 105.992 223.877 107.483 223.877 109.363C223.877 111.242 225.244 112.733 226.911 112.733ZM226.61 107.417C227.087 107.417 227.263 107.417 227.504 107.548C228.097 107.741 228.157 108.327 228.157 108.584C228.157 108.65 228.157 108.781 228.097 108.908C228.097 109.039 227.976 109.362 227.68 109.555C227.62 109.555 227.62 109.62 227.499 109.62L228.273 111.177H227.499L226.786 109.752H226.309V111.177H225.656V107.417H226.61ZM226.851 109.1C227.087 109.1 227.267 109.1 227.444 108.842C227.504 108.777 227.504 108.645 227.504 108.519C227.504 108.327 227.383 108.195 227.267 108.064C227.087 107.998 226.971 107.998 226.614 107.998H226.434V109.1H226.851Z" fill="#EA1B22"/>
</svg>
