<svg width="240" height="240" viewBox="0 0 240 240" fill="none" xmlns="http://www.w3.org/2000/svg">
<path d="M114.757 33.0471C114.381 33.0813 113.184 33.201 112.106 33.2865C87.254 35.5272 63.9754 48.9367 49.2317 69.5471C41.0218 81.0068 35.7709 94.0059 33.7868 107.775C33.0855 112.581 33 114 33 120.517C33 127.034 33.0855 128.453 33.7868 133.26C38.5417 166.116 61.9229 193.722 93.6338 203.951C99.3124 205.781 105.299 207.029 112.106 207.782C114.757 208.073 126.217 208.073 128.868 207.782C140.619 206.482 150.573 203.574 160.391 198.563C161.896 197.793 162.187 197.588 161.982 197.417C161.845 197.314 155.431 188.711 147.734 178.312L133.743 159.412L116.211 133.465C106.564 119.2 98.6282 107.535 98.5598 107.535C98.4914 107.518 98.4229 119.046 98.3887 133.123C98.3374 157.77 98.3203 158.762 98.0124 159.343C97.5677 160.181 97.2257 160.523 96.5073 160.9C95.96 161.173 95.481 161.225 92.8983 161.225H89.9393L89.1526 160.729C88.6394 160.404 88.2631 159.976 88.0066 159.48L87.6474 158.71L87.6816 124.417L87.7329 90.1062L88.2631 89.4391C88.5368 89.0799 89.1183 88.6181 89.5288 88.3958C90.2301 88.0537 90.5038 88.0195 93.4628 88.0195C96.952 88.0195 97.5335 88.1563 98.44 89.1483C98.6966 89.422 108.189 103.721 119.546 120.945C130.904 138.168 146.434 161.687 154.062 173.232L167.917 194.218L168.618 193.757C174.827 189.72 181.395 183.973 186.594 177.987C197.661 165.278 204.793 149.782 207.188 133.26C207.889 128.453 207.974 127.034 207.974 120.517C207.974 114 207.889 112.581 207.188 107.775C202.433 74.9178 179.051 47.3119 147.34 37.0836C141.747 35.2706 135.795 34.022 129.125 33.2694C127.483 33.0984 116.177 32.9103 114.757 33.0471ZM150.573 85.967C151.394 86.3775 152.061 87.1643 152.301 87.9853C152.437 88.43 152.472 97.9398 152.437 119.371L152.386 150.124L146.964 141.812L141.525 133.499V111.144C141.525 96.6912 141.594 88.5668 141.696 88.1734C141.97 87.2156 142.568 86.463 143.389 86.0183C144.091 85.6591 144.347 85.6249 147.033 85.6249C149.564 85.6249 150.009 85.6591 150.573 85.967Z" fill="white"/>
<path d="M167.062 194.594C166.463 194.97 166.275 195.226 166.805 194.936C167.181 194.713 167.797 194.251 167.694 194.234C167.643 194.234 167.352 194.405 167.062 194.594ZM165.881 195.363C165.574 195.603 165.574 195.62 165.95 195.432C166.155 195.329 166.326 195.209 166.326 195.175C166.326 195.038 166.241 195.072 165.881 195.363ZM165.026 195.876C164.718 196.116 164.718 196.133 165.095 195.945C165.3 195.842 165.471 195.722 165.471 195.688C165.471 195.551 165.385 195.586 165.026 195.876ZM164.171 196.389C163.863 196.629 163.863 196.646 164.239 196.458C164.445 196.355 164.616 196.236 164.616 196.201C164.616 196.065 164.53 196.099 164.171 196.389ZM162.871 197.074C162.221 197.416 162.255 197.553 162.905 197.228C163.196 197.074 163.418 196.92 163.418 196.886C163.418 196.766 163.401 196.783 162.871 197.074Z" fill="white"/>
</svg>
