<svg width="240" height="240" viewBox="0 0 240 240" fill="none" xmlns="http://www.w3.org/2000/svg">
<path d="M181.422 55.8192C179.312 60.8576 176.636 65.6421 173.412 70.036C159.307 55.9364 140.161 48.0078 120.215 48.0078C78.9541 48.0078 45 81.9874 45 123.29C45 143.893 53.4397 163.617 68.3655 177.833L71.1396 180.294C84.6978 191.718 101.87 198.006 119.59 198.006C158.819 198.006 191.796 167.269 194.59 128.094C196.641 108.917 191.015 84.6628 181.422 55.8192ZM79.0518 178.263C77.8406 179.767 75.9846 180.646 74.0505 180.646C70.5145 180.646 67.6231 177.736 67.6231 174.201C67.6231 170.666 70.534 167.757 74.0505 167.757C75.5158 167.757 76.9614 168.264 78.0946 169.202C80.8492 171.428 81.279 175.51 79.0518 178.263ZM181.11 155.727C162.55 180.47 122.911 172.131 97.4941 173.322C97.4941 173.322 92.9812 173.596 88.4488 174.338C88.4488 174.338 90.1485 173.615 92.3561 172.776C110.193 166.565 118.632 165.355 129.475 159.789C149.891 149.4 170.072 126.669 174.272 103.02C166.496 125.77 142.936 145.318 121.465 153.267C106.754 158.695 80.1849 163.968 80.1849 163.968L79.1104 163.402C61.0198 154.594 60.4728 115.401 93.3524 102.746C107.751 97.2002 121.524 100.247 137.075 96.5362C153.681 92.5914 172.885 80.1322 180.699 63.8845C189.452 89.877 199.982 130.574 181.11 155.727Z" fill="white"/>
</svg>
