<svg width="240" height="240" viewBox="0 0 240 240" fill="none" xmlns="http://www.w3.org/2000/svg">
<rect width="240" height="240" rx="36" fill="#F8F8F8"/>
<path fill-rule="evenodd" clip-rule="evenodd" d="M120 33.5C137.306 33.5 154.223 38.6318 168.612 48.2464C183.002 57.861 194.217 71.5267 200.839 87.5152C207.462 103.504 209.195 121.097 205.819 138.07C202.443 155.044 194.109 170.635 181.872 182.872C169.635 195.109 154.044 203.443 137.07 206.819C120.097 210.195 102.504 208.462 86.5152 201.839C70.5267 195.217 56.861 184.002 47.2464 169.612C37.6318 155.223 32.5 138.306 32.5 121C32.5 97.7936 41.7187 75.5376 58.1282 59.1282C74.5376 42.7187 96.7936 33.5 120 33.5Z" fill="#83CD29"/>
<path d="M120 208.5C117.639 208.5 115.32 207.88 113.275 206.7L91.875 194.031C88.6813 192.243 90.2375 191.612 91.2938 191.243C94.6905 190.194 97.9428 188.724 100.975 186.868C101.229 186.751 101.508 186.7 101.787 186.721C102.066 186.742 102.335 186.833 102.569 186.987L119.013 196.756C119.319 196.918 119.66 197.002 120.006 197.002C120.353 197.002 120.694 196.918 121 196.756L185.125 159.743C185.425 159.563 185.673 159.309 185.845 159.004C186.017 158.7 186.107 158.356 186.106 158.006V83.9683C186.107 83.6129 186.015 83.2635 185.841 82.9537C185.667 82.6439 185.416 82.3842 185.113 82.1995L120.988 45.2183C120.685 45.048 120.344 44.9585 119.997 44.9585C119.65 44.9585 119.309 45.048 119.006 45.2183L54.9188 82.212C54.6131 82.3928 54.3593 82.6495 54.1819 82.9572C54.0045 83.2649 53.9096 83.6131 53.9063 83.9683V157.975C53.9072 158.324 54.0008 158.666 54.1776 158.967C54.3544 159.268 54.6081 159.516 54.9125 159.687L72.5 169.837C82.0313 174.6 87.8688 168.987 87.8688 163.35V90.2808C87.8688 89.7835 88.0663 89.3066 88.418 88.9549C88.7696 88.6033 89.2465 88.4058 89.7438 88.4058H97.8688C98.3661 88.4058 98.843 88.6033 99.1946 88.9549C99.5462 89.3066 99.7438 89.7835 99.7438 90.2808V163.356C99.7438 176.075 92.8188 183.356 80.7563 183.356C75.5524 183.446 70.4301 182.055 65.9875 179.343L49.1313 169.675C47.085 168.483 45.387 166.775 44.207 164.722C43.0269 162.669 42.406 160.343 42.4063 157.975V83.9683C42.4002 81.5966 43.0185 79.2651 44.1989 77.208C45.3794 75.151 47.0805 73.4408 49.1313 72.2495L113.263 35.2245C115.328 34.0943 117.645 33.502 120 33.502C122.355 33.502 124.672 34.0943 126.738 35.2245L190.863 72.2495C192.909 73.4389 194.607 75.144 195.788 77.1948C196.969 79.2457 197.592 81.5704 197.594 83.937V157.975C197.59 160.343 196.967 162.668 195.786 164.721C194.605 166.773 192.908 168.481 190.863 169.675L126.738 206.7C124.689 207.881 122.365 208.502 120 208.5ZM141.8 156.893C162.119 156.893 173.769 148.893 173.769 134.918C173.769 121.068 164.394 117.375 144.7 114.775C124.788 112.137 122.763 110.781 122.763 106.118C122.763 102.268 124.475 97.1308 139.225 97.1308C152.4 97.1308 157.256 99.9683 159.225 108.85C159.32 109.258 159.549 109.622 159.875 109.885C160.201 110.148 160.606 110.294 161.025 110.3H169.375C169.631 110.296 169.884 110.24 170.118 110.135C170.351 110.03 170.561 109.878 170.734 109.689C170.907 109.5 171.039 109.277 171.122 109.035C171.206 108.793 171.238 108.536 171.219 108.281C169.931 92.9808 159.769 85.8495 139.219 85.8495C120.938 85.8495 110.031 93.5683 110.031 106.506C110.031 120.543 120.881 124.418 138.431 126.156C159.425 128.212 161.056 131.281 161.056 135.412C161.056 142.581 155.306 145.637 141.794 145.637C124.825 145.637 121.088 141.375 119.838 132.937C119.765 132.5 119.54 132.102 119.203 131.815C118.865 131.528 118.437 131.37 117.994 131.368H109.694C109.197 131.368 108.72 131.566 108.368 131.917C108.016 132.269 107.819 132.746 107.819 133.243C107.838 144.012 113.719 156.893 141.781 156.893H141.8Z" fill="white"/>
</svg>
