<svg width="248" height="248" viewBox="0 0 248 248" fill="none" xmlns="http://www.w3.org/2000/svg">
<g filter="url(#filter0_d_1916_2787)">
<rect x="4" width="240" height="240" rx="36" fill="#F8F8F8"/>
<path d="M124.71 148.5H87.5096L79.9096 172C79.8246 172.429 79.5826 172.81 79.2311 173.069C78.8795 173.328 78.4438 173.446 78.0096 173.4H59.2096C58.1096 173.4 57.8096 172.8 58.1096 171.6L90.3096 78.9004C90.6096 77.9004 90.9096 76.8004 91.3096 75.6004C91.712 73.4572 91.9129 71.281 91.9096 69.1004C91.8796 68.8499 91.9454 68.5974 92.0937 68.3934C92.2421 68.1894 92.4621 68.0491 92.7096 68.0004H118.61C119.41 68.0004 119.81 68.3004 119.91 68.8004L156.41 171.8C156.71 172.9 156.41 173.4 155.41 173.4H134.51C134.156 173.434 133.802 173.343 133.509 173.142C133.217 172.94 133.004 172.643 132.91 172.3L124.71 148.5ZM93.3096 128.2H118.71C118.11 126.1 117.31 123.6 116.41 121C115.51 118.4 114.61 115.4 113.71 112.4C112.81 109.4 111.81 106.3 110.81 103.2C109.81 100.1 108.91 97.2004 108.11 94.3004C107.31 91.4004 106.61 88.9004 105.91 86.5004H105.71C104.811 90.8588 103.676 95.1652 102.31 99.4004C100.81 104.2 99.3096 109.2 97.7096 114.2C96.3096 119.3 94.8096 124 93.3096 128.2ZM178.21 85.1004C176.568 85.1363 174.936 84.8454 173.408 84.2445C171.88 83.6436 170.487 82.7448 169.31 81.6004C167.018 79.0953 165.798 75.7934 165.91 72.4004C165.85 70.7472 166.141 69.1002 166.761 67.5667C167.381 66.0331 168.318 64.6476 169.51 63.5004C171.913 61.2286 175.102 59.9744 178.41 60.0004C182.31 60.0004 185.31 61.2004 187.51 63.5004C189.725 65.9251 190.909 69.1175 190.81 72.4004C190.871 74.09 190.592 75.7746 189.991 77.3548C189.39 78.935 188.478 80.3786 187.31 81.6004C186.131 82.8006 184.709 83.7341 183.139 84.3379C181.57 84.9417 179.888 85.2017 178.21 85.1004ZM167.01 171.9V94.9004C167.01 93.9004 167.41 93.5004 168.31 93.5004H188.11C189.01 93.5004 189.41 94.0004 189.41 94.9004V171.9C189.41 173 189.01 173.5 188.11 173.5H168.51C168.299 173.518 168.088 173.487 167.891 173.412C167.694 173.336 167.517 173.216 167.373 173.063C167.229 172.909 167.121 172.724 167.058 172.523C166.995 172.322 166.979 172.109 167.01 171.9Z" fill="#FF9A00"/>
</g>
<defs>
<filter id="filter0_d_1916_2787" x="0" y="0" width="248" height="248" filterUnits="userSpaceOnUse" color-interpolation-filters="sRGB">
<feFlood flood-opacity="0" result="BackgroundImageFix"/>
<feColorMatrix in="SourceAlpha" type="matrix" values="0 0 0 0 0 0 0 0 0 0 0 0 0 0 0 0 0 0 127 0" result="hardAlpha"/>
<feOffset dy="4"/>
<feGaussianBlur stdDeviation="2"/>
<feComposite in2="hardAlpha" operator="out"/>
<feColorMatrix type="matrix" values="0 0 0 0 0 0 0 0 0 0 0 0 0 0 0 0 0 0 0.25 0"/>
<feBlend mode="normal" in2="BackgroundImageFix" result="effect1_dropShadow_1916_2787"/>
<feBlend mode="normal" in="SourceGraphic" in2="effect1_dropShadow_1916_2787" result="shape"/>
</filter>
</defs>
</svg>
