<svg width="240" height="240" viewBox="0 0 240 240" fill="none" xmlns="http://www.w3.org/2000/svg">
<g clip-path="url(#clip0_1913_4281)">
<path fill-rule="evenodd" clip-rule="evenodd" d="M141.244 0.51956C139.516 0.51956 137.901 0.887909 136.427 1.3696C139.587 3.49469 141.315 6.25731 142.193 9.41661C142.25 9.84163 142.378 10.1533 142.434 10.5925C142.491 11.0317 142.576 11.3292 142.576 11.7259C142.831 17.1803 141.159 17.8603 139.969 21.0763C138.17 25.2273 138.666 29.69 140.819 33.2601C141.016 33.7381 141.263 34.194 141.556 34.6202C139.204 18.9512 152.28 16.5853 154.689 11.6975C154.873 7.41903 151.345 4.5714 148.554 2.58798C145.891 0.972913 143.454 0.462891 141.244 0.462891V0.51956ZM160.937 4.06138C160.682 5.47811 160.88 5.10976 160.795 5.86062L160.653 7.47569L160.228 8.96326C160.087 9.45911 159.917 9.95497 159.732 10.4508L159.052 11.8676C158.868 12.1226 158.741 12.3634 158.557 12.6042L158.188 13.1709L157.253 14.4035C156.885 14.7718 156.573 15.211 156.12 15.5369C155.666 15.8627 155.383 16.2736 154.944 16.5853C153.641 17.577 152.153 18.3137 150.793 19.2487C150.368 19.5604 149.943 19.8154 149.56 20.1837C149.141 20.4804 148.748 20.8122 148.384 21.1755C147.959 21.5438 147.648 21.9122 147.251 22.3513C146.854 22.7905 146.571 23.1589 146.316 23.5839L145.466 24.8873L144.786 26.304L144.29 27.7207L143.865 29.2791C143.808 29.5341 143.808 29.8458 143.723 30.0867C143.638 30.3275 143.667 30.5825 143.582 30.8234L143.525 32.3818C143.525 32.7501 143.525 33.1185 143.582 33.5152C143.582 34.011 143.638 34.5069 143.766 35.0736C143.893 35.6402 143.95 36.0653 144.078 36.5611L144.573 38.0487C144.715 38.3604 144.885 38.672 144.998 38.8987L130.746 33.3735L123.563 31.5317L119.653 30.5967C115.924 29.8534 112.16 29.2955 108.376 28.925C108.234 28.925 108.192 28.8683 108.064 28.8683L96.9714 28.3016L88.8535 28.6133C85.0708 28.8683 81.2882 29.35 77.5197 29.9733L74.7287 30.4692L69.1468 31.7017L66.3559 32.4384L63.6924 33.6143L61.6523 34.5494C61.5107 34.606 61.3973 34.606 61.3407 34.691L59.6123 35.5411C59.4281 35.5977 59.3006 35.6827 59.1872 35.7253L57.2605 36.717C56.8355 36.9011 56.4104 37.142 56.0279 37.3403C55.8438 37.482 55.6029 37.5812 55.4612 37.652L53.8462 38.587C53.3331 38.8705 52.8365 39.1827 52.3586 39.5221L51.126 40.3721L49.766 41.3638L48.7176 42.2139C48.5759 42.2705 48.4626 42.398 48.3493 42.4689L47.4142 43.2764C47.3575 43.4181 47.23 43.4606 47.1592 43.5314L46.0258 44.5798L44.7933 45.7557L43.7449 46.8891C43.6032 47.0307 43.4332 47.1441 43.3199 47.2574C42.987 47.6457 42.6372 48.0191 42.2715 48.3766C42.2148 48.5183 42.0873 48.5608 42.0165 48.6883L40.5998 50.1759L37.2563 53.3918C36.1229 54.3836 34.9612 55.3186 33.7853 56.112L30.0735 58.4637C28.8409 59.1438 27.5234 59.7671 26.1633 60.3055C24.8467 60.8655 23.504 61.362 22.1398 61.793C19.533 62.3597 16.8696 63.4081 14.5745 63.5923C14.0786 63.5923 13.5261 63.734 13.0161 63.7765L11.4577 64.1448L9.97009 64.7115C9.46288 64.9125 8.96636 65.1394 8.48253 65.3915C8.05751 65.7032 7.54749 65.9582 7.12247 66.2416C6.69745 66.5249 6.27243 66.9216 5.88992 67.29C5.5074 67.6583 5.03988 68.0267 4.65736 68.4233L3.60898 69.6559C3.2973 70.1517 2.92895 70.5909 2.67394 71.0726C2.3497 71.5268 2.06079 72.0051 1.80974 72.5035L1.12971 74.1186L0.563018 75.7337L0.251338 77.2212C0.067163 77.9579 0.067163 78.7088 -0.0036734 79.063C-0.0745098 79.4171 -0.0036734 79.8847 -0.0036734 80.3239C-0.0157087 80.5943 0.0033052 80.8653 0.0529957 81.1314C0.109665 81.5564 0.194669 81.9389 0.308007 82.3073L0.733025 83.4407C0.9172 83.8657 1.15804 84.2482 1.41305 84.6165L2.22059 85.7499L3.26897 86.7416C3.63213 87.1049 4.02551 87.4367 4.44485 87.7333C5.93242 89.0367 6.2866 89.4618 8.22752 90.4535C8.5392 90.6376 8.85088 90.7651 9.21923 90.9493C9.4034 91.1335 9.4034 91.1902 9.47424 91.3177C9.53091 91.8135 9.65841 92.3094 9.78592 92.8052C9.90423 93.3155 10.0702 93.8136 10.2818 94.2928L10.7776 95.4262C10.8343 95.5678 10.9193 95.6812 10.9618 95.7379L11.6985 97.0979L12.6335 98.4013L13.6819 99.5772C14.0503 99.9455 14.4186 100.257 14.8578 100.626L16.0904 101.561C16.5154 101.872 16.9404 102.127 17.4504 102.368C17.9088 102.632 18.3872 102.859 18.8813 103.048C19.2497 103.232 19.6888 103.36 20.1139 103.473C20.5389 103.587 20.9214 103.728 21.1622 103.785C20.9781 107.128 20.9072 110.302 21.4173 111.407C21.9839 112.639 24.7041 108.857 27.4242 104.536C27.0558 108.814 26.8008 113.829 27.4242 115.303C28.0475 116.776 31.816 112.016 35.0462 106.689C78.9648 96.5312 119.058 126.892 123.266 169.762C122.458 163.075 114.227 159.349 110.444 160.27C108.603 164.86 105.429 170.754 100.343 174.395C100.768 170.286 100.584 166.093 99.7198 161.998C98.3339 167.702 95.7126 173.031 92.0412 177.611C86.1617 178.036 80.2823 175.202 77.1655 170.924C76.9105 170.739 76.8538 170.357 76.6697 170.116L76.1738 168.813C75.9896 168.388 75.8621 167.963 75.8054 167.509C75.7488 167.056 75.7488 166.659 75.7488 166.149V165.214C75.8055 164.789 75.933 164.364 76.0605 163.911L76.4855 162.607C76.7405 162.182 76.9105 161.757 77.2222 161.304C78.2706 158.471 78.2706 155.92 76.3721 154.504C76.0038 154.249 75.6354 154.079 75.1963 153.88C74.9412 153.824 74.6296 153.696 74.3887 153.625L73.8929 153.441L72.5895 153.13C72.1659 153.007 71.7271 152.945 71.2861 152.945C70.8362 152.872 70.3817 152.829 69.926 152.818C69.6143 152.818 69.3027 152.874 68.991 152.874C68.5312 152.871 68.0732 152.933 67.6309 153.059L66.3275 153.3L65.0241 153.725L63.7916 154.291L62.6157 154.915C48.1651 164.336 56.8071 186.366 66.6392 192.77C62.9274 193.45 59.1306 194.257 58.0963 195.065C60.6465 196.793 63.4232 198.181 66.3417 199.343L76.3721 202.177C81.5149 203.31 86.7143 203.664 91.9845 203.353C105.372 202.372 118.023 196.851 127.846 187.703C137.669 178.555 144.075 166.328 146.004 153.044L146.373 154.66L146.939 158.131L147.194 159.802L147.336 161.644L147.478 163.684V164.676C147.478 164.988 147.534 165.356 147.534 165.668C147.534 165.979 147.478 166.404 147.478 166.801V167.651C147.478 168.076 147.421 168.458 147.421 168.884C147.421 169.124 147.421 169.379 147.364 169.691L147.308 171.051C147.251 171.235 147.251 171.419 147.251 171.618L147.067 173.035C147.067 173.219 147.067 173.403 147.01 173.601L146.769 175.4V175.542L146.401 177.271L146.033 179.112L145.537 181.039L145.041 182.966L144.418 184.949L143.058 188.548L142.321 190.347L141.471 192.075C141.414 192.26 141.329 192.387 141.287 192.5C137.136 200.802 131.185 207.943 123.748 213.496C123.252 213.808 122.756 214.176 122.26 214.545C122.118 214.686 121.948 214.729 121.835 214.856L120.475 215.791L120.659 216.16H120.716L123.323 215.791H123.379L128.196 214.941C128.621 214.885 129.131 214.757 129.556 214.63L130.406 214.445L131.71 214.205L132.843 213.893C139.034 212.405 145.027 210.351 150.807 207.943C140.961 221.402 127.757 232.225 112.329 239.352C119.455 238.856 126.581 237.68 133.438 235.696C158.401 228.329 179.411 211.541 191.991 188.916C189.44 203.261 183.751 216.865 175.331 228.754C181.338 224.788 186.849 220.212 191.878 215.012C205.745 200.534 214.846 182.157 217.96 162.352C220.085 172.128 220.68 182.243 219.759 192.217C264.485 129.824 223.471 65.1365 206.3 48.1075C206.244 47.9658 206.159 47.9233 206.159 47.7958C206.017 48.5325 205.974 49.2833 205.918 50.02C205.734 51.4368 205.549 52.811 205.294 54.171C205.039 55.5311 204.614 56.8912 204.246 58.2796C203.878 59.668 203.311 60.943 202.758 62.2464C202.206 63.5498 201.583 64.7965 200.917 66.0291C200.234 67.2409 199.492 68.4182 198.692 69.5567C197.885 70.7326 197.021 71.8518 196.142 72.9002C195.218 73.9786 194.244 75.0139 193.224 76.0028C192.601 76.5695 192.048 77.0512 191.425 77.5612L190.008 78.7938C188.901 79.6715 187.742 80.4805 186.537 81.2164C185.354 81.9795 184.134 82.684 182.882 83.3273C181.578 83.9507 180.275 84.5032 178.972 85.0557C177.652 85.555 176.31 85.9899 174.948 86.3591C173.588 86.7275 172.157 87.0391 170.797 87.2942C169.437 87.5492 167.964 87.6625 166.589 87.79C165.598 87.8467 164.606 87.9317 163.756 87.9317C162.339 87.9317 160.922 87.79 159.548 87.6767C158.174 87.5633 156.715 87.365 155.326 87.0533C153.92 86.799 152.534 86.4487 151.175 86.0049H151.119C152.479 85.8633 153.839 85.7499 155.227 85.5091C156.616 85.2682 158.018 84.9424 159.378 84.574C160.738 84.2057 162.098 83.7665 163.402 83.2706C164.705 82.7748 166.065 82.1373 167.312 81.5422C168.582 80.9231 169.82 80.2422 171.024 79.5021C172.2 78.6946 173.376 77.8871 174.495 77.0229C175.605 76.1591 176.66 75.227 177.654 74.2319C178.702 73.2969 179.637 72.2485 180.572 71.2001C181.508 70.1517 182.372 68.9759 183.179 67.8566C183.321 67.6725 183.434 67.4316 183.548 67.2333L185.347 64.3998C186.027 63.1673 186.65 61.9206 187.189 60.6172C187.727 59.3138 188.237 58.0104 188.676 56.6503C189.115 55.2903 189.413 53.9869 189.725 52.6268C190.036 51.2668 190.22 49.8359 190.348 48.4758C190.475 47.1157 190.589 45.6423 190.589 44.2681C190.589 43.2764 190.532 42.2847 190.447 41.4347C190.305 40.0179 190.135 38.6437 189.951 37.2837C189.705 35.8861 189.393 34.5009 189.016 33.1326C188.591 31.8292 188.166 30.4692 187.656 29.1658C187.146 27.8624 186.523 26.559 185.928 25.3406C185.333 24.1222 184.568 22.8614 183.803 21.6855C183.038 20.5096 182.188 19.3904 181.323 18.2853L178.49 15.126C177.967 14.5958 177.428 14.0809 176.875 13.5818C174.099 11.4242 171.225 9.39609 168.261 7.50403C167.836 7.26319 167.454 7.07901 167.029 6.88067C164.988 5.57728 163.062 4.89725 161.149 4.27389L160.937 4.06138Z" fill="#EA2845"/>
</g>
<defs>
<clipPath id="clip0_1913_4281">
<rect width="240" height="240" rx="36" fill="white"/>
</clipPath>
</defs>
</svg>
