<svg width="5" height="9" viewBox="0 0 5 9" fill="none" xmlns="http://www.w3.org/2000/svg">
<path d="M4.817 8.69184C4.93417 8.57454 5 8.41545 5 8.24958C5 8.0837 4.93417 7.92461 4.817 7.80731L1.5087 4.49622L4.817 1.18514C4.93085 1.06716 4.99385 0.909142 4.99243 0.745123C4.991 0.581103 4.92527 0.424206 4.80938 0.308222C4.6935 0.192238 4.53673 0.126449 4.37285 0.125023C4.20897 0.123598 4.05108 0.18665 3.9332 0.300601L0.183001 4.05395C0.0658257 4.17126 0 4.33035 0 4.49622C0 4.6621 0.0658257 4.82118 0.183001 4.93849L3.9332 8.69184C4.05041 8.80912 4.20936 8.875 4.3751 8.875C4.54084 8.875 4.69979 8.80912 4.817 8.69184Z" fill="#0C6EED"/>
</svg>
