<svg width="30" height="30" viewBox="0 0 30 30" fill="none" xmlns="http://www.w3.org/2000/svg">
<g id="Group 1000006044">
<circle id="Ellipse 447" cx="15" cy="15" r="15" transform="matrix(1 0 0 -1 0 30)" fill="#0C6EED"/>
<g id="&#240;&#159;&#166;&#134; icon &#34;remove&#34;">
<path id="Vector" d="M4.93359 14.9186C4.93359 15.2544 5.067 15.5765 5.30447 15.8139C5.54193 16.0514 5.86401 16.1848 6.19984 16.1848H23.9273C24.2631 16.1848 24.5852 16.0514 24.8226 15.8139C25.0601 15.5765 25.1935 15.2544 25.1935 14.9186C25.1935 14.5827 25.0601 14.2607 24.8226 14.0232C24.5852 13.7857 24.2631 13.6523 23.9273 13.6523H6.19984C5.86401 13.6523 5.54193 13.7857 5.30447 14.0232C5.067 14.2607 4.93359 14.5827 4.93359 14.9186Z" fill="white"/>
</g>
</g>
</svg>
