<svg width="30" height="30" viewBox="0 0 30 30" fill="none" xmlns="http://www.w3.org/2000/svg">
<g id="Group 1000006043">
<circle id="Ellipse 446" cx="15" cy="15" r="15" transform="matrix(1 0 0 -1 0 30)" fill="#0C6EED"/>
<g id="&#240;&#159;&#166;&#134; icon &#34;add&#34;">
<path id="Vector" d="M15.0635 25.0659C15.3994 25.0659 15.7214 24.9325 15.9589 24.695C16.1964 24.4576 16.3298 24.1355 16.3298 23.7997V16.2022H23.9273C24.2631 16.2022 24.5852 16.0688 24.8226 15.8313C25.0601 15.5939 25.1935 15.2718 25.1935 14.936C25.1935 14.6001 25.0601 14.2781 24.8226 14.0406C24.5852 13.8031 24.2631 13.6697 23.9273 13.6697H16.3298V6.07226C16.3298 5.73643 16.1964 5.41436 15.9589 5.17689C15.7214 4.93942 15.3994 4.80602 15.0635 4.80602C14.7277 4.80602 14.4056 4.93942 14.1682 5.17689C13.9307 5.41436 13.7973 5.73643 13.7973 6.07226V13.6697H6.19984C5.86401 13.6697 5.54193 13.8031 5.30447 14.0406C5.067 14.2781 4.93359 14.6001 4.93359 14.936C4.93359 15.2718 5.067 15.5939 5.30447 15.8313C5.54193 16.0688 5.86401 16.2022 6.19984 16.2022H13.7973V23.7997C13.7973 24.1355 13.9307 24.4576 14.1682 24.695C14.4056 24.9325 14.7277 25.0659 15.0635 25.0659Z" fill="white"/>
</g>
</g>
</svg>
