<svg width="5" height="9" viewBox="0 0 5 9" fill="none" xmlns="http://www.w3.org/2000/svg">
<g id="&#240;&#159;&#166;&#134; icon &#34;chevron right&#34;">
<path id="Vector" d="M0.183001 0.308154C0.0658257 0.425464 0 0.584548 0 0.750424C0 0.9163 0.0658257 1.07539 0.183001 1.19269L3.4913 4.50378L0.183001 7.81486C0.0691465 7.93284 0.0061467 8.09086 0.00757079 8.25488C0.00899488 8.4189 0.0747288 8.57579 0.190615 8.69178C0.306501 8.80776 0.463268 8.87355 0.627149 8.87498C0.791031 8.8764 0.948916 8.81335 1.0668 8.6994L4.817 4.94605C4.93418 4.82874 5 4.66965 5 4.50378C5 4.3379 4.93418 4.17882 4.817 4.06151L1.0668 0.308154C0.949587 0.19088 0.790636 0.124999 0.6249 0.124999C0.459163 0.124999 0.300212 0.19088 0.183001 0.308154Z" fill="#0C6EED"/>
</g>
</svg>
